<svg width="300" height="220" viewBox="0 0 300 220" fill="none" xmlns="http://www.w3.org/2000/svg">
<rect width="300" height="220" fill="#F6F6F6"/>
<path opacity="0.5" fill-rule="evenodd" clip-rule="evenodd" d="M300 103.876V90.7185L299.203 95.4959L277.564 90.7131L282.388 63.3961L300 67.0298V27.455L299.071 34.5327H292.166L294.941 1.304C294.331 0.956449 293.68 0.671301 292.998 0.457243L288.278 57.0651V57.0672L284.465 56.2521L282.358 0H278.391L279.048 17.5252L256.339 17.7521L259.119 0H254.989L250.174 30.2658L237.43 0H232.964L244.347 26.9578L230.481 36.1521C229.29 34.0751 227.784 32.3479 226.059 31.0807L231.275 0H224.402L219.632 28.5037C219.141 28.4332 218.647 28.4058 218.153 28.4215L214.964 0H210.871L214.133 28.9369C214.068 28.9369 214.018 28.9576 213.969 28.9783C213.92 28.999 213.871 29.0197 213.805 29.0197L200.832 0H193.383L194.178 1.77717L180.781 4.57045L179.381 0H177.234C177.89 2.15384 178.428 3.91768 178.763 5.01154L165.507 7.73268L164.612 0H160.481L160.816 2.94825L160.813 2.94895L153.757 0H148.013L149.624 0.669431L144.733 22.533L134.221 24.3787L140.391 0H138.372L132.076 24.739L114.79 27.6864L123.981 0H119.558L118.477 3.24735L111.384 0H105.275L101.797 13.5543L101.797 13.555L93.0186 10.1628L90.6067 0H86.4771L86.7909 1.32887L61.0716 6.92844L60.1894 0H58.0555L60.465 19.1516L33.5392 21.9449L32.1993 2.73061C40.0335 2.47571 47.8466 1.56354 55.5913 0L10 0C7.3949 0 5.02246 0.996153 3.24282 2.62832C6.95014 2.81666 10.8213 2.95372 14.7821 3.0225L14.7166 5.23851L0 10.2483V12.5161L0.852859 12.2238L2.12717 23.1909L0 22.7613V27.3312L6.54898 28.6443L2.46429 67.7331L0 67.2225V74.7173L0.447966 74.8092L0 79.6675V154.121L1.12228 141.655L11.1003 142.47V142.47L10.1631 164.921C8.97318 164.663 7.81716 164.411 6.71333 164.171C4.10334 163.602 1.78515 163.097 0 162.727V165.002L9.89152 167.141L6.01182 192.541L0 189.355V197.609L16.0559 206.084L10.4091 220H14.8128L19.6711 208.074H19.6723L41.5107 219.631L41.414 220H57.9863L50.8903 216.235L56.2492 195.547L76.4751 205.708L72.1412 220H76.3805L80.0254 208.07L80.0259 208.071L95.8662 220H99.5268L92.2913 214.54L94.6989 197.533L94.6973 197.529L101.668 180.005C107.158 182.149 113.453 184.572 118.943 186.635L113.023 220H115.14L120.956 187.448C124.234 188.695 127.12 189.798 129.191 190.612L134.147 212.105L115.282 220H127.541L127.446 219.625L127.449 219.627L135.093 216.389L135.919 220H142.841L136.162 190.835L148.088 187.082L159.537 218.152L154.158 220H162.424L154.384 198.206L176.887 185.609L166.85 220H173.935L176.756 210.35V210.349L195.98 214.4L195.077 220H199.161L199.934 215.204L220.826 219.626L220.778 220H243.96C242.432 219.676 240.743 219.324 238.917 218.962H238.917L240.922 204.974L251.977 205.934L249.624 220H256.438L259.753 200.115L283.868 203.794L281.738 220H286.008L290.428 185.905L300 187.811V180.152L294.18 178.983L296.12 167.572L300 168.429V166.094L284.334 162.642L286.339 151.592L300 155.228V150.864L287.214 147.479C287.612 145.164 288.3 141.219 289.032 137.021C290.024 131.331 291.097 125.177 291.637 121.998L300 123.712V119.198L297.53 118.686L300 103.876ZM154.384 198.206L154.384 198.205V198.206L154.384 198.206ZM136.162 190.835L136.162 190.835L136.162 190.835L136.162 190.835ZM56.2492 195.547L56.2493 195.547H56.2481L56.2492 195.547ZM38.2987 51.8417L35.6851 26.2148L10.6331 28.8647L7.82216 55.7383C14.2494 54.862 32.2655 52.5732 38.2987 51.8417ZM14.0516 24.0817L14.6527 7.58858H14.651L2.93042 11.5674L4.27031 23.6378L8.95493 24.5963L14.0516 24.0817ZM39.508 63.3254L38.5616 54.0477L38.5594 54.0484L7.61451 58.0272L6.61235 67.738L39.508 63.3254ZM173.471 66.789L177.228 52.2856L153.047 55.5942C154.05 59.6422 155.793 66.4164 158.069 73.3348L173.471 66.789ZM167.915 36.6689L156.129 38.2154L157.132 47.4926L169.255 45.8739L167.915 36.6689ZM200.471 128.928L214.74 132.607L214.742 132.608C215.717 127.666 216.74 122.534 217.635 118.048C218.58 113.309 219.381 109.29 219.829 106.981L207.575 104.476L200.471 128.928ZM236.908 110.445L221.843 107.352L217.215 130.617L236.908 110.445ZM110.646 110.001L87.3368 112.434L85.257 122L113.185 121.124L110.646 110.001ZM108.631 101.312L87.3368 93.1474L87.3362 93.1481L89.0788 107.795L109.643 105.662L108.631 101.312ZM189.624 142.028L193.437 128.929L177.426 122.587L173.004 134.813L189.624 142.028ZM181.979 109.859L178.166 120.452H178.167L194.037 126.794L196.454 118.394C193.241 116.633 187.676 113.466 181.979 109.859ZM159.476 131.205L167.317 138.492L173.81 120.452L168.854 116.557L159.476 131.205ZM166.109 141.657L166.512 140.625L146.417 121.856L136.635 129.07L146.482 143.502L166.109 141.657ZM127.857 154.91L144.477 144.388V144.385C142.528 141.437 136.767 133.046 134.893 130.397L124.044 138.417L127.857 154.91ZM135.361 127.38C135.361 127.38 135.361 127.38 135.361 127.38H135.361L135.361 127.38ZM135.361 127.38L144.804 120.452L139.979 115.969L131.809 122.442C132.451 123.309 133.216 124.383 133.918 125.369C134.467 126.141 134.978 126.859 135.361 127.38ZM123.575 136.059L133.684 128.626L133.685 128.626L130.133 123.699L122.17 130.029L123.575 136.059ZM104.95 156.972L122.77 162.786L118.347 143.499L104.95 156.972ZM79.6265 148.724L102.674 156.228H102.674L117.748 140.993L113.663 123.324L84.7887 124.283L79.6265 148.724ZM74.5391 79.5857L77.6872 108.965H77.6883L87.1318 108.007L83.58 78.1229L74.5391 79.5857ZM85.2575 112.645L77.491 113.459L73.7998 127.519L81.51 130.241L85.2575 112.645ZM77.6883 148.064L81.0423 132.457H81.0418L73.2004 129.653L69.1813 145.259L77.6883 148.064ZM67.842 185.834L78.8314 153.064L68.1141 149.538L59.6727 182.071L67.842 185.834ZM91.2826 157.187L80.7707 153.734V153.737L75.8801 168.386C77.9072 169.034 82.5437 170.625 85.6571 171.694C86.04 171.825 86.3999 171.949 86.7291 172.062L91.2826 157.187ZM93.7773 176.987C92.2287 176.4 90.9226 175.904 89.9427 175.526H89.9422L84.0494 194.812L93.0902 195.987L99.789 179.278C97.5585 178.422 95.5152 177.647 93.7773 176.987ZM95.171 158.372L90.6175 173.392L107.032 179.649L110.779 163.445L95.171 158.372ZM123.904 167.794L112.718 164.114L108.905 180.38L128.533 187.967L123.904 167.794ZM137.105 151.673L128.467 157.115L130.275 165.145L141.321 168.238L137.105 151.673ZM146.288 145.775L138.85 150.485H138.849L143.534 168.824L155.057 172.06L165.241 144.012L146.288 145.775ZM173.083 162.926L163.967 159.618V159.614L159.077 173.163L169.794 176.183L173.083 162.926ZM164.708 157.554L164.708 157.556V157.554L164.708 157.554ZM172.212 136.795L164.708 157.554L183.061 164.256L188.954 144.083L172.212 136.795ZM206.642 169.184L189.694 165.875H189.694L183.66 186.491L192.439 195.253L206.642 169.184ZM199.878 131.058L191.765 158.804V158.806L198.332 160.135L210.923 151.889C211.303 150.106 211.874 147.222 212.563 143.74C213.097 141.044 213.701 137.99 214.343 134.81L199.878 131.058ZM222.109 144.526L216.086 136.425L213.341 150.269L222.109 144.526ZM168.662 94.8308C175.763 101.46 190.968 110.365 197.732 114.117H197.734L202.222 98.7994L183.934 78.4818L167.65 93.7995C167.974 94.1657 168.311 94.51 168.662 94.8308ZM167.855 71.5655L173.148 82.7495V82.7488L181.046 75.3895L174.151 68.9158L167.855 71.5655ZM171.602 84.2241L171.603 84.2239V84.2246L171.602 84.2241ZM165.241 90.1919L171.602 84.2241L165.906 72.2971L158.814 75.318C160.544 80.5664 162.699 85.5533 165.241 90.1919ZM178.506 107.562C174.184 104.854 170.02 101.729 166.047 98.2121H166.046C165.707 97.8849 165.395 97.529 165.073 97.1625C164.887 96.9509 164.699 96.7358 164.5 96.5206L155.862 103.367L174.618 118.314L178.506 107.562ZM157.943 129.723L167.246 115.22V115.216L154.121 104.767L141.726 114.56L157.943 129.723ZM138.915 95.2711L142.531 108.446V108.442L151.647 101.298L147.89 90.56L138.915 95.2711ZM135.43 82.5335L138.316 93.0552L138.316 93.0573L147.16 88.4191L141.801 73.0392L135.43 82.5335ZM121.096 125.383L139.047 111.168H139.047L134.026 93.0552L114.604 97.1793L121.096 125.383ZM106.565 61.7704L114.201 94.9734H114.202L133.491 90.9217L124.853 59.3372L106.565 61.7704ZM87.069 90.6328L108.101 98.7252V98.7245L102.677 75.0263L85.5324 77.8203L87.069 90.6328ZM73.0714 66.2643L74.2708 77.3769L102.142 72.8108L99.7923 62.6568L73.0714 66.2643ZM69.849 49.4001L71.8632 58.9769L99.4633 55.2858L98.3863 50.8738L69.849 49.4001ZM54.11 82.2315L73.3343 106.456L69.0528 66.7802L53.304 68.9144L54.11 82.2315ZM51.1679 51.9772L52.5734 61.5434V61.5413L67.9097 59.4894L65.7644 49.5442C63.962 49.8034 61.1313 50.2883 58.0067 50.8235C55.7877 51.2036 53.4205 51.6091 51.1679 51.9772ZM52.0395 81.6439L51.2996 69.2019L51.299 69.2026L43.7948 70.1611L43.5325 82.5313L52.0395 81.6439ZM73.0069 109.476L52.705 83.8601C51.0936 84.0049 46.2128 84.5203 43.4582 84.8914L42.7932 112.641L73.0069 109.476ZM56.4455 178.317L73.1309 113.902L65.6273 114.706L48.2761 173.308L56.4455 178.317ZM79.4265 195.985L58.5907 186.42V186.421L56.717 193.411L77.0844 203.644L79.4265 195.985ZM75.1359 170.37L69.7114 186.708V186.709L80.7008 191.791L86.0597 174.122L75.1359 170.37ZM92.5519 198.199L83.3799 197.014H83.3778L80.7002 205.848L90.4815 213.218L92.5519 198.199ZM153.915 176.325L131.403 169.996L135.693 188.695L148.088 184.798L153.915 176.325ZM177.29 182.883L156.052 176.914V176.917L149.831 185.906L153.578 196.139L177.29 182.883ZM174.948 163.669L171.734 176.77L171.737 176.771L178.829 178.762L182.452 166.39L174.948 163.669ZM202.002 207.84L182.986 188.924L182.985 188.925L178.029 206.005C182.581 206.953 190.956 208.726 200.597 210.788L202.002 207.84ZM193.967 196.871L193.966 196.872V196.87L193.967 196.871ZM193.967 196.871L202.941 205.848L219.093 171.761L208.769 169.698L193.967 196.871ZM224.452 172.791L221.164 172.132H221.163L202.679 211.303C207.699 212.333 212.928 213.437 218.081 214.54L224.452 172.791ZM222.308 200.264L222.307 200.263H222.308L222.308 200.264ZM238.918 204.603L222.308 200.264L220.031 214.983C222.919 215.581 225.761 216.181 228.49 216.757C231.456 217.383 234.289 217.982 236.904 218.518L238.918 204.603ZM242.599 193.409L241.259 202.758L241.259 202.757L252.314 203.717L253.785 195.11L242.599 193.409ZM245.016 176.843L242.936 191.203L242.935 191.206L254.187 192.896L256.464 179.132L245.016 176.843ZM222.634 198.047L239.254 202.398L239.257 202.398L243.004 176.401L226.459 173.163L222.634 198.047ZM224.714 148.063L204.421 161.309H204.422L239.722 168.308L224.714 148.063ZM252.849 129.653L226.456 146.877L226.459 146.878L232.286 154.681L258.743 137.53L252.849 129.653ZM223.842 143.351L223.842 143.352H223.841L223.842 143.351ZM216.881 134.003L223.842 143.351L250.234 126.116L239.113 111.17L216.881 134.003ZM224.179 92.6249L239.985 94.903V94.9051L240.997 88.1309L225.388 84.6673C225.116 86.211 224.648 89.3055 224.179 92.6249ZM238.317 106.17L239.657 97.0368L223.777 94.6859C223.665 95.4368 223.554 96.1836 223.446 96.9125C223.097 99.2557 222.776 101.413 222.568 102.922L238.317 106.17ZM208.911 100.133L220.632 102.566L223.377 84.1557L214.13 82.0936L208.911 100.133ZM187.073 75.5478L203.618 93.948L210.851 69.3634L200.068 63.3225L187.073 75.5478ZM182.584 73.8448L182.586 73.8471L182.583 73.845L182.584 73.8448ZM175.482 67.2172L182.584 73.8448L205.087 52.6408C204.436 51.4588 203.939 50.1419 203.616 48.7442L179.436 51.9816L175.482 67.2172ZM170.06 22.7493L173.274 45.3543L187.008 43.5201L183.795 20.399L170.06 22.7493ZM162.086 92.9917L162.087 92.9908V92.9936C162.087 92.993 162.087 92.9924 162.086 92.9917ZM162.086 92.9917C156.794 84.1569 152.512 69.5102 150.226 60.6049L143.265 70.9824L153.374 99.9174L162.086 92.9917ZM128.866 58.7565L134.693 79.8894H134.696L149.433 57.7979C149.292 57.1385 149.161 56.5513 149.03 56.0353L128.866 58.7565ZM124.977 51.8403L131.469 50.9539L131.544 29.3065L113.922 32.3268L124.977 51.8403ZM105.881 54.4166L122.766 52.1285H122.763L112.579 34.1717L105.881 54.4166ZM102.67 51.0966L102.67 51.0973L102.669 51.0994L102.67 51.0966ZM93.629 12.6686L102.67 51.0966L112.918 20.183L93.629 12.6686ZM82.1713 47.7165L97.8453 48.5209L91.2121 20.3271L77.9554 21.7295L82.1713 47.7165ZM69.3736 47.1285L80.0915 47.6439L80.0937 47.6446L75.9408 22.0184L64.2863 23.2651L69.3736 47.1285ZM50.8892 49.7784L65.289 47.3448L63.3497 38.1398L49.4838 40.2015L50.8892 49.7784ZM43.5254 62.8074L50.5521 61.8488V61.8481L49.2122 52.4262C48.3341 52.5715 47.4922 52.7079 46.7003 52.8362C45.0763 53.0994 43.6628 53.3285 42.5796 53.5295L43.5254 62.8074ZM63.4809 114.937L42.72 117.07L42.7194 117.069L42.0451 145.634L52.9034 150.571L63.4809 114.937ZM46.4019 172.58L52.2947 152.706L41.9796 148.067L41.4457 171.693L46.4019 172.58ZM40.9768 190.763L45.727 174.713H45.7265C45.4724 174.664 45.1845 174.608 44.8748 174.547C43.8028 174.337 42.47 174.076 41.3796 173.909L40.9768 190.763ZM55.9105 180.528L47.6756 175.456L47.6751 175.455L40.7703 198.565L40.508 210.863L47.1412 214.399L55.9105 180.528ZM259.011 172.066L259.013 172.066L259.011 172.067L259.011 172.066ZM242.729 168.829L259.011 172.066L263.902 144.606L259.948 139.307L233.491 156.459L242.729 168.829ZM284.402 151.161L267.651 146.666H267.649L263.03 172.88L279.915 176.19C280.73 171.524 282.21 163.319 283.325 157.137C283.76 154.728 284.139 152.626 284.402 151.161ZM264.903 138.86L264.905 138.864H264.902L264.903 138.86ZM245.015 112.135L264.903 138.86L268.727 117.072L245.015 112.135ZM246.215 79.7458L242.261 107.053L269.524 112.721L274.555 84.2299L246.215 79.7458ZM259.816 58.7579L257.467 77.0138L275.359 79.8901L278.433 62.5825L259.816 58.7579ZM251.246 49.4807L258.882 51.0273L258.883 51.0252L261.355 35.2031L253.654 34.3165L251.246 49.4807ZM256.384 69.4175C256.877 65.5283 257.42 61.2471 257.804 58.3147L257.805 58.314L249.635 56.5519L246.89 75.2512L255.462 76.6527C255.688 74.9088 256.023 72.2685 256.384 69.4175ZM232.621 45.5841L247.227 48.5943V48.5915L248.96 37.9221L245.212 29.016L231.412 38.1391C232.185 40.151 232.599 42.3697 232.621 44.625V45.5841ZM241.324 85.8475L245.681 55.8098L245.68 55.8105L230.746 52.6452C228.568 56.8229 224.811 59.7134 220.497 60.5314L214.801 79.9619L241.324 85.8475ZM209.864 44.5464C209.86 49.4231 213.451 53.3818 217.884 53.3868L217.885 53.3861C222.317 53.3746 225.908 49.4275 225.923 44.5522C225.923 39.6747 222.331 35.719 217.897 35.7182C213.463 35.7175 209.868 39.6696 209.864 44.5464ZM211.382 67.2236L213.462 60.0891L213.465 60.0831C211.322 59.3517 209.316 58.0465 207.572 56.2486L201.676 61.7809L211.382 67.2236ZM189.007 43.224L203.407 41.3071H203.408C204.161 37.8549 205.706 34.7944 207.829 32.5451L201.065 17.3825L185.729 20.0308L189.007 43.224ZM165.698 9.94939L166.7 18.7833H166.702L199.258 13.2587L195.042 3.83676L165.698 9.94939ZM167.572 34.4629L166.035 23.423L154.709 25.3298L155.851 36.0094L167.572 34.4629ZM133.547 50.6541L155.114 47.788L152.772 25.6261L133.547 28.9354V50.6541ZM103.67 14.2864L113.582 18.1204V18.1176L117.808 5.37609L107.156 0.521814L103.67 14.2864ZM90.2075 16.0592L90.2077 16.0592V16.0599L90.2075 16.0592ZM62.5421 18.9253L90.2075 16.0592L87.1908 3.39075L61.2678 9.06088L62.5421 18.9253ZM49.145 38.0676L62.8792 36.0066H62.8797L60.2656 23.6364L47.2713 25.038L49.145 38.0676ZM48.8844 50.1387L47.4696 40.5727H47.4691L41.3796 41.4584L42.3817 51.2514L48.8844 50.1387ZM39.7687 25.7695L41.1085 39.2424V39.2459L47.1418 38.2983L45.2587 25.1822L39.7687 25.7695ZM39.5064 82.9811L39.7687 70.7554L27.5798 72.302L27.1771 84.1557C28.6027 84.0378 31.1815 83.7848 33.7545 83.5325C35.8995 83.3221 38.0406 83.1121 39.5064 82.9811ZM23.0267 143.431L23.0268 143.428L23.0274 143.431L23.0267 143.431ZM22.6897 153.437L23.0267 143.431L13.1057 142.689L12.7122 153.066C13.8501 153.102 15.7743 153.177 17.6989 153.252C19.6247 153.326 21.5508 153.401 22.6897 153.437ZM23.8247 120.451L13.8472 138.201L23.1596 138.933L23.8247 120.451ZM22.1569 167.568L22.5596 155.642L12.5729 155.281L12.1697 165.435C15.3926 166.104 18.8685 166.836 22.1569 167.568ZM20.3487 184.649L22.0164 169.786L22.0154 169.79L11.9062 167.574L9.76091 181.644L20.3487 184.649ZM27.3082 194.741L21.4154 193.124H21.4138L20.6083 200.338L26.7071 203.576L27.3082 194.741ZM23.9651 170.147L21.6886 190.834L27.5159 192.381L28.9212 171.177L23.9651 170.147ZM37.3594 173.094L30.9234 171.692L28.7125 204.607L36.5539 208.73L37.3594 173.094ZM24.5618 155.797L24.159 168.011C28.4857 168.925 32.4453 169.802 35.2516 170.423C36.0548 170.601 36.7635 170.758 37.3594 170.888L37.6873 156.601C37.0878 156.564 36.3823 156.52 35.6119 156.472C31.9161 156.241 26.725 155.917 24.5618 155.797ZM25.0301 143.572L24.6929 153.509L37.8277 154.395L38.0244 144.603L25.0301 143.572ZM25.9667 117.286L25.1612 139.078L38.1648 140.037L38.6987 116.255L25.9667 117.286ZM26.3699 106.318L26.0328 115.079L38.6993 114.048L38.896 106.689L26.3699 106.318ZM27.0443 86.4436L26.5011 101.896H26.5028L38.9615 102.267L39.3643 85.2588L27.0443 86.4436ZM25.4984 72.6718L7.14512 75.1048V75.1055L6.33913 84.0835L25.0951 84.2996L25.4984 72.6718ZM24.4978 101.824L25.0317 86.5172L6.14462 86.2902L4.80474 101.237L24.4978 101.824ZM24.0296 115.967L24.3667 106.319L24.3678 106.318L4.40311 105.731L4.12989 108.751L17.6023 127.45L24.0296 115.967ZM11.503 138.047L16.3936 129.44H16.3898L3.79818 111.916L1.44846 137.244L11.503 138.047ZM20.0755 186.871L9.42326 183.851L7.95223 193.571L18.6701 199.241L20.0755 186.871ZM260.219 197.908L284.259 201.588L286.47 185.023L263.161 180.457L260.219 197.908ZM281.916 176.632L292.166 178.622L292.165 178.621L294.039 167.137L283.996 164.921L281.916 176.632ZM268.453 142.244L285.205 146.739L289.618 121.339L272.81 117.876L268.453 142.244ZM273.541 113.464L295.445 118.03V118.03L298.931 97.6305L277.233 92.8476L273.541 113.464ZM298.801 36.8216H291.971L290.229 57.5097L295.925 58.6852L298.801 36.8216ZM260.884 51.3971L280.38 55.4478L279.771 37.3362L263.432 35.4184C262.964 38.2946 261.624 46.5319 260.884 51.3971ZM253.996 32.0292L279.647 35.0495L279.113 19.8147L255.935 20.0308L253.996 32.0292ZM146.948 22.1632L162.752 19.4421L162.753 19.4414L161.151 5.45404L151.567 1.47525L146.948 22.1632ZM31.6005 22.244L30.2606 2.87471L30.2601 2.87541C25.77 3.01954 21.2198 3.10238 16.863 3.10238L16.0576 23.8626L31.6005 22.244Z" fill="#C2D1D9"/>
<path d="M193.799 109.546C190.708 106.142 187.837 102.544 185.202 98.7761C181.278 93.1484 176.602 85.0887 176.602 78.6413C176.601 76.4409 177.047 74.2633 177.912 72.2402C178.777 70.217 180.044 68.3904 181.635 66.8708C184.899 63.7227 189.264 61.9748 193.799 62.0003C198.334 61.9746 202.699 63.7225 205.964 66.8708C207.555 68.3904 208.822 70.217 209.687 72.2402C210.552 74.2633 210.998 76.4409 210.997 78.6413C210.997 85.088 206.321 93.1477 202.398 98.7732C199.764 102.542 196.892 106.141 193.801 109.546H193.799ZM193.799 72.698C192.197 72.6738 190.651 73.2858 189.5 74.3999C188.348 75.514 187.686 77.0393 187.657 78.6413C187.685 80.2433 188.348 81.7688 189.499 82.8831C190.651 83.9973 192.197 84.6095 193.799 84.5852C195.402 84.6098 196.948 83.9979 198.1 82.8836C199.252 81.7692 199.914 80.2436 199.943 78.6413C199.914 77.0391 199.251 75.5136 198.1 74.3994C196.948 73.2852 195.401 72.6734 193.799 72.698Z" fill="#F50057"/>
<path d="M194 69.5C199.247 69.5 203.5 73.7533 203.5 79C203.5 84.2467 199.247 88.5 194 88.5C188.753 88.5 184.5 84.2467 184.5 79C184.5 73.7533 188.753 69.5 194 69.5Z" fill="#F50057" stroke="white"/>
<path d="M190.742 75.4725C190.701 75.4313 190.652 75.3985 190.598 75.3762C190.544 75.3539 190.487 75.3424 190.428 75.3424C190.37 75.3424 190.312 75.3539 190.259 75.3762C190.205 75.3985 190.156 75.4313 190.115 75.4725L187.302 78.2843C187.219 78.3677 187.173 78.4805 187.173 78.598C187.173 78.7156 187.219 78.8284 187.302 78.9118L190.102 81.7118C190.186 81.7889 190.297 81.8306 190.412 81.828C190.526 81.8255 190.635 81.7789 190.716 81.6981C190.797 81.6172 190.843 81.5083 190.846 81.3939C190.848 81.2796 190.807 81.1687 190.729 81.0843L188.243 78.598L190.742 76.1029C190.784 76.0617 190.817 76.0126 190.839 75.9585C190.862 75.9044 190.873 75.8463 190.873 75.7877C190.873 75.7291 190.862 75.6711 190.839 75.617C190.817 75.5629 190.784 75.5138 190.742 75.4725Z" fill="white"/>
<path d="M200.691 78.2725L197.891 75.4725C197.808 75.3893 197.695 75.3425 197.578 75.3425C197.46 75.3424 197.347 75.389 197.264 75.4721C197.181 75.5551 197.134 75.6679 197.134 75.7854C197.134 75.903 197.181 76.0158 197.264 76.099L199.751 78.5863L197.252 81.0843C197.175 81.1687 197.133 81.2796 197.136 81.3939C197.138 81.5083 197.185 81.6172 197.266 81.6981C197.346 81.7789 197.455 81.8255 197.57 81.828C197.684 81.8306 197.795 81.7889 197.879 81.7118L200.692 78.9C200.775 78.8167 200.822 78.7039 200.822 78.5863C200.822 78.4686 200.775 78.3558 200.692 78.2725H200.691Z" fill="white"/>
<path d="M196.391 75.3549C196.345 75.32 196.292 75.2946 196.235 75.2802C196.179 75.2658 196.12 75.2626 196.062 75.2709C196.005 75.2792 195.949 75.2987 195.899 75.3285C195.849 75.3582 195.805 75.3975 195.771 75.4441L191.513 81.1304C191.475 81.1768 191.447 81.2304 191.43 81.288C191.414 81.3455 191.409 81.4058 191.416 81.4653C191.423 81.5247 191.443 81.582 191.473 81.6339C191.503 81.6857 191.543 81.7309 191.591 81.7667C191.639 81.8026 191.694 81.8284 191.752 81.8425C191.81 81.8567 191.871 81.8589 191.93 81.8491C191.989 81.8393 192.045 81.8177 192.096 81.7855C192.146 81.7533 192.19 81.7112 192.224 81.6618L196.48 75.9755C196.515 75.9289 196.541 75.8759 196.555 75.8195C196.57 75.763 196.573 75.7043 196.564 75.6467C196.556 75.5891 196.537 75.5336 196.507 75.4836C196.477 75.4335 196.438 75.3898 196.391 75.3549Z" fill="white"/>
</svg>
