<svg width="300" height="220" viewBox="0 0 300 220" fill="none" xmlns="http://www.w3.org/2000/svg">
<rect width="300" height="220" fill="white"/>
<path d="M48.588 99.072C50.4253 99.072 52.436 98.7773 54.62 98.188C58.7107 93.508 63.0613 89.556 67.672 86.332C72.3173 83.0733 76.2347 81.444 79.424 81.444C81.0187 81.444 81.816 81.8427 81.816 82.64C81.816 83.7147 80.6027 85.2573 78.176 87.268C75.7493 89.2787 72.5947 91.3413 68.712 93.456C64.8293 95.5707 61.016 97.252 57.272 98.5C54.464 101.759 52.1933 104.913 50.46 107.964C48.7267 111.015 47.86 113.528 47.86 115.504C47.86 118.277 49.628 119.664 53.164 119.664C55.14 119.664 57.324 119.04 59.716 117.792C62.108 116.544 64.084 115.313 65.644 114.1C65.9907 113.857 66.2853 113.736 66.528 113.736C66.8053 113.736 66.944 113.875 66.944 114.152C66.944 114.325 66.8747 114.481 66.736 114.62C65.1067 115.799 63.6507 116.769 62.368 117.532C61.12 118.295 59.4733 119.04 57.428 119.768C55.3827 120.531 53.424 120.912 51.552 120.912C47.184 120.912 45 119.231 45 115.868C45 111.812 47.808 106.387 53.424 99.592C51.76 100.008 50.1653 100.268 48.64 100.372C48.224 100.303 48.016 100.077 48.016 99.696C48.016 99.3147 48.2067 99.1067 48.588 99.072ZM77.812 82.9C75.7667 82.9 72.924 84.2693 69.284 87.008C65.6787 89.712 62.108 93.04 58.572 96.992C61.796 95.848 65.0373 94.3573 68.296 92.52C71.5893 90.648 74.224 88.8973 76.2 87.268C78.176 85.604 79.164 84.3907 79.164 83.628C79.164 83.1427 78.7133 82.9 77.812 82.9ZM85.9431 109.316C86.1858 109.143 86.4111 109.056 86.6191 109.056C86.8271 109.056 86.9311 109.16 86.9311 109.368V109.524C84.1924 111.812 81.5058 113.857 78.8711 115.66C76.2364 117.671 74.3991 118.676 73.3591 118.676C72.3538 118.676 71.8511 118.26 71.8511 117.428C71.8511 116.527 72.5098 115.001 73.8271 112.852C75.1444 110.703 75.8031 109.559 75.8031 109.42C75.8031 109.247 75.7338 109.16 75.5951 109.16C75.1444 109.16 73.7578 110.165 71.4351 112.176C69.1471 114.152 67.1364 115.989 65.4031 117.688C64.7444 118.277 64.2764 118.572 63.9991 118.572C63.7564 118.572 63.6351 118.381 63.6351 118C63.6351 117.619 63.8604 117.133 64.3111 116.544L82.4591 88.88C82.8404 88.2907 83.3431 87.996 83.9671 87.996C84.6258 87.996 84.9551 88.204 84.9551 88.62C84.9551 88.8627 84.8511 89.1227 84.6431 89.4C84.4698 89.6773 83.3084 91.3413 81.1591 94.392C79.0098 97.408 77.7618 99.1933 77.4151 99.748C77.1031 100.303 75.5951 102.591 72.8911 106.612C70.2218 110.633 68.8004 112.765 68.6271 113.008C68.4884 113.216 68.4191 113.389 68.4191 113.528C68.4191 113.667 68.4711 113.736 68.5751 113.736C68.7138 113.736 68.8004 113.719 68.8351 113.684C69.9444 112.575 71.4524 111.292 73.3591 109.836C75.3004 108.345 76.6351 107.6 77.3631 107.6C77.6404 107.6 77.8831 107.704 78.0911 107.912C78.2991 108.085 78.4031 108.397 78.4031 108.848C78.4031 109.264 77.7271 110.443 76.3751 112.384C75.0231 114.291 74.3471 115.539 74.3471 116.128C74.3471 116.683 74.5204 116.96 74.8671 116.96C75.2484 116.96 76.1671 116.475 77.6231 115.504C80.2231 113.771 82.6151 112.02 84.7991 110.252L85.9431 109.316ZM88.8677 102.296C89.2144 102.296 89.4744 102.4 89.6477 102.608C89.8557 102.816 89.9597 103.111 89.9597 103.492C89.9597 103.873 89.6997 104.359 89.1797 104.948C88.6597 105.537 88.209 105.832 87.8277 105.832C87.4464 105.832 87.169 105.728 86.9957 105.52C86.8224 105.277 86.7357 105.017 86.7357 104.74C86.7357 104.428 87.013 103.943 87.5677 103.284C88.1224 102.625 88.5557 102.296 88.8677 102.296ZM93.1837 109.316C93.461 109.143 93.669 109.056 93.8077 109.056C93.981 109.056 94.0677 109.16 94.0677 109.368V109.524C94.2064 109.524 93.2704 110.287 91.2597 111.812C89.2837 113.337 87.1517 114.863 84.8637 116.388C82.6104 117.913 81.189 118.676 80.5997 118.676C79.5944 118.676 79.0917 118.26 79.0917 117.428C79.0917 116.423 79.9584 114.533 81.6917 111.76C83.425 108.952 84.6904 107.548 85.4877 107.548C86.077 107.548 86.3717 107.773 86.3717 108.224C86.3717 108.675 85.5744 109.905 83.9797 111.916C82.385 113.927 81.5877 115.365 81.5877 116.232C81.5877 116.717 81.761 116.96 82.1077 116.96C82.489 116.96 83.4077 116.475 84.8637 115.504C87.4637 113.771 89.8557 112.02 92.0397 110.252L93.1837 109.316ZM107.352 109.316C107.595 109.143 107.82 109.056 108.028 109.056C108.236 109.056 108.34 109.16 108.34 109.368V109.524C105.602 111.812 102.915 113.857 100.28 115.66C97.6458 117.671 95.8085 118.676 94.7685 118.676C93.7631 118.676 93.2605 118.26 93.2605 117.428C93.2605 116.527 93.9191 115.001 95.2365 112.852C96.5538 110.703 97.2125 109.559 97.2125 109.42C97.2125 109.247 97.1431 109.16 97.0045 109.16C96.5538 109.16 95.1671 110.165 92.8445 112.176C90.5565 114.152 88.5458 115.989 86.8125 117.688C86.1538 118.277 85.6858 118.572 85.4085 118.572C85.1658 118.572 85.0445 118.381 85.0445 118C85.0445 117.619 85.2698 117.133 85.7205 116.544L103.868 88.88C104.25 88.2907 104.752 87.996 105.376 87.996C106.035 87.996 106.364 88.204 106.364 88.62C106.364 88.8627 106.26 89.1227 106.052 89.4C105.879 89.6773 104.718 91.3413 102.568 94.392C100.419 97.408 99.1711 99.1933 98.8245 99.748C98.5125 100.303 97.0045 102.591 94.3005 106.612C91.6311 110.633 90.2098 112.765 90.0365 113.008C89.8978 113.216 89.8285 113.389 89.8285 113.528C89.8285 113.667 89.8805 113.736 89.9845 113.736C90.1231 113.736 90.2098 113.719 90.2445 113.684C91.3538 112.575 92.8618 111.292 94.7685 109.836C96.7098 108.345 98.0445 107.6 98.7725 107.6C99.0498 107.6 99.2925 107.704 99.5005 107.912C99.7085 108.085 99.8125 108.397 99.8125 108.848C99.8125 109.264 99.1365 110.443 97.7845 112.384C96.4325 114.291 95.7565 115.539 95.7565 116.128C95.7565 116.683 95.9298 116.96 96.2765 116.96C96.6578 116.96 97.5765 116.475 99.0325 115.504C101.632 113.771 104.024 112.02 106.208 110.252L107.352 109.316ZM110.277 102.296C110.624 102.296 110.884 102.4 111.057 102.608C111.265 102.816 111.369 103.111 111.369 103.492C111.369 103.873 111.109 104.359 110.589 104.948C110.069 105.537 109.618 105.832 109.237 105.832C108.856 105.832 108.578 105.728 108.405 105.52C108.232 105.277 108.145 105.017 108.145 104.74C108.145 104.428 108.422 103.943 108.977 103.284C109.532 102.625 109.965 102.296 110.277 102.296ZM114.593 109.316C114.87 109.143 115.078 109.056 115.217 109.056C115.39 109.056 115.477 109.16 115.477 109.368V109.524C115.616 109.524 114.68 110.287 112.669 111.812C110.693 113.337 108.561 114.863 106.273 116.388C104.02 117.913 102.598 118.676 102.009 118.676C101.004 118.676 100.501 118.26 100.501 117.428C100.501 116.423 101.368 114.533 103.101 111.76C104.834 108.952 106.1 107.548 106.897 107.548C107.486 107.548 107.781 107.773 107.781 108.224C107.781 108.675 106.984 109.905 105.389 111.916C103.794 113.927 102.997 115.365 102.997 116.232C102.997 116.717 103.17 116.96 103.517 116.96C103.898 116.96 104.817 116.475 106.273 115.504C108.873 113.771 111.265 112.02 113.449 110.252L114.593 109.316ZM123.406 109.368C123.649 109.195 123.874 109.108 124.082 109.108C124.29 109.108 124.394 109.229 124.394 109.472V109.576C121.794 111.656 119.229 113.615 116.698 115.452C114.167 117.255 112.313 118.156 111.134 118.156C110.267 118.156 109.834 117.688 109.834 116.752C109.834 115.816 110.25 114.88 111.082 113.944C111.914 113.008 112.729 112.193 113.526 111.5C114.358 110.807 114.774 110.356 114.774 110.148C114.774 109.905 114.635 109.645 114.358 109.368C114.115 109.056 113.907 108.848 113.734 108.744C113.145 109.333 111.862 110.408 109.886 111.968L109.678 111.188C111.862 109.455 113.127 108.293 113.474 107.704V107.236C113.474 106.369 113.561 105.78 113.734 105.468C113.907 105.156 114.323 104.723 114.982 104.168C115.641 103.613 116.091 103.336 116.334 103.336C116.577 103.336 116.785 103.423 116.958 103.596C117.166 103.769 117.27 103.943 117.27 104.116C117.27 104.289 117.201 104.497 117.062 104.74C116.958 104.948 116.837 105.139 116.698 105.312C116.594 105.451 116.438 105.641 116.23 105.884C116.022 106.092 115.883 106.248 115.814 106.352C115.779 106.421 115.727 106.56 115.658 106.768C115.623 106.976 115.519 107.149 115.346 107.288C115.173 107.427 115.086 107.6 115.086 107.808C115.086 108.016 115.225 108.484 115.502 109.212C115.779 109.905 115.918 110.425 115.918 110.772C115.918 111.084 115.277 111.864 113.994 113.112C112.711 114.325 112.07 115.313 112.07 116.076C112.07 116.492 112.261 116.7 112.642 116.7C113.127 116.7 114.029 116.267 115.346 115.4L115.97 114.984C118.223 113.424 120.338 111.847 122.314 110.252L123.406 109.368ZM124.794 113.528C126.736 113.528 129.058 112.436 131.762 110.252L132.646 110.512C129.249 113.355 126.32 114.776 123.858 114.776C123.581 114.776 123.373 114.759 123.234 114.724C122.298 115.868 121.276 116.804 120.166 117.532C119.057 118.225 118.086 118.572 117.254 118.572C115.937 118.572 115.278 117.844 115.278 116.388C115.278 114.897 116.509 112.921 118.97 110.46C118.554 109.455 118.346 108.397 118.346 107.288C118.346 106.179 118.745 105.277 119.542 104.584C120.34 103.891 121.258 103.544 122.298 103.544C123.373 103.544 124.274 103.891 125.002 104.584C125.73 105.277 126.094 106.265 126.094 107.548C126.094 109.524 125.453 111.5 124.17 113.476C124.309 113.511 124.517 113.528 124.794 113.528ZM123.13 113.008C124.205 111.205 124.742 109.68 124.742 108.432C124.742 107.149 124.43 106.213 123.806 105.624C123.182 105 122.576 104.688 121.986 104.688C120.773 104.688 120.166 105.312 120.166 106.56C120.166 107.808 120.444 109.056 120.998 110.304C121.553 111.517 122.264 112.419 123.13 113.008ZM117.41 116.076C117.41 116.769 117.861 117.116 118.762 117.116C119.664 117.116 120.808 116.197 122.194 114.36C121.258 113.875 120.426 113.025 119.698 111.812C118.173 113.476 117.41 114.897 117.41 116.076ZM184.992 79.936C184.992 81.4613 183.553 83.4547 180.676 85.916C177.798 88.3773 173.708 91.376 168.404 94.912C165.18 99.2453 162.441 103.388 160.188 107.34C157.969 111.292 156.86 114.031 156.86 115.556C156.86 117.081 157.293 117.844 158.16 117.844C158.784 117.844 159.633 117.515 160.708 116.856C161.817 116.197 162.753 115.539 163.516 114.88L164.66 113.892C164.868 113.649 165.058 113.528 165.232 113.528C165.405 113.528 165.492 113.597 165.492 113.736C165.492 114.637 164.382 115.747 162.164 117.064C159.945 118.381 158.281 119.04 157.172 119.04C155.057 119.04 154 118.225 154 116.596C154 114.932 154.832 112.453 156.496 109.16C158.16 105.867 160.309 102.331 162.944 98.552C157.224 102.261 152.942 105.069 150.1 106.976C146.425 112.003 142.768 116.353 139.128 120.028C135.488 123.737 132.94 125.592 131.484 125.592C130.686 125.592 130.288 125.297 130.288 124.708C130.288 122.767 131.761 120.392 134.708 117.584C137.689 114.776 141.814 111.535 147.084 107.86C150.342 103.215 153.064 98.812 155.248 94.652C157.466 90.4573 158.576 87.4067 158.576 85.5C158.576 83.316 157.484 81.9813 155.3 81.496C153.601 81.08 151.816 80.872 149.944 80.872C148.106 80.872 146.633 80.924 145.524 81.028C144.449 81.132 143.253 81.34 141.936 81.652C140.618 81.9293 139.544 82.3973 138.712 83.056C137.914 83.7147 137.516 84.512 137.516 85.448C137.516 86.5227 138.452 87.372 140.324 87.996C142.23 88.62 144.345 89.244 146.668 89.868C149.025 90.492 150.533 91.2547 151.192 92.156C151.469 92.468 151.66 93.04 151.764 93.872C151.764 94.1147 151.677 94.236 151.504 94.236C151.365 94.236 151.226 94.1147 151.088 93.872C150.776 93.144 149.77 92.5027 148.072 91.948C146.408 91.3587 144.657 90.908 142.82 90.596C141.017 90.2493 139.37 89.712 137.88 88.984C136.424 88.2213 135.696 87.2853 135.696 86.176C135.696 85.0667 136.06 84.1133 136.788 83.316C137.516 82.484 138.365 81.86 139.336 81.444C140.341 81.028 141.606 80.6987 143.132 80.456C145.42 80.144 148.089 79.988 151.14 79.988C154.225 79.988 156.617 80.4907 158.316 81.496C160.049 82.5013 160.916 83.9053 160.916 85.708C160.916 89.556 157.83 95.9 151.66 104.74C153.324 103.631 155.681 102.088 158.732 100.112C161.782 98.1013 163.741 96.8013 164.608 96.212C168.178 91.3587 171.749 87.2853 175.32 83.992C178.925 80.6987 181.837 79.052 184.056 79.052C184.68 79.052 184.992 79.3467 184.992 79.936ZM132.108 124.396C133.078 124.396 134.812 123.027 137.308 120.288C139.838 117.584 142.577 114.187 145.524 110.096C136.337 116.544 131.744 121.155 131.744 123.928C131.744 124.24 131.865 124.396 132.108 124.396ZM182.808 80.248C181.837 80.248 180.208 81.392 177.92 83.68C175.632 85.9333 173.101 88.8453 170.328 92.416C178.856 86.592 183.12 82.64 183.12 80.56C183.12 80.352 183.016 80.248 182.808 80.248ZM174.815 111.76C174.607 111.76 174.503 111.691 174.503 111.552C174.503 111.379 174.624 111.188 174.867 110.98C176.011 110.044 176.583 109.195 176.583 108.432C176.583 107.947 176.15 107.669 175.283 107.6C173.723 107.635 171.851 108.761 169.667 110.98C167.518 113.199 166.443 114.863 166.443 115.972C166.443 116.353 166.651 116.544 167.067 116.544C167.518 116.544 168.107 116.249 168.835 115.66C169.494 115.244 170.724 114.204 172.527 112.54C172.943 112.124 173.342 111.916 173.723 111.916C174.208 111.916 174.451 112.141 174.451 112.592C174.451 112.765 174.399 112.904 174.295 113.008C174.191 113.112 174 113.337 173.723 113.684C173.446 113.996 173.203 114.291 172.995 114.568C172.371 115.469 172.059 116.059 172.059 116.336C172.059 117.029 172.336 117.376 172.891 117.376C173.619 117.376 174.988 116.717 176.999 115.4C179.01 114.048 180.847 112.696 182.511 111.344L185.007 109.368C185.25 109.195 185.475 109.108 185.683 109.108C185.891 109.108 185.995 109.229 185.995 109.472V109.576C183.326 111.829 180.5 113.944 177.519 115.92C174.572 117.896 172.631 118.884 171.695 118.884C170.586 118.884 170.031 118.295 170.031 117.116C170.031 116.839 170.083 116.579 170.187 116.336C170.291 116.093 170.343 115.92 170.343 115.816C170.343 115.712 170.308 115.643 170.239 115.608C170.135 115.608 169.459 116.076 168.211 117.012C166.998 117.948 165.923 118.416 164.987 118.416C164.086 118.416 163.635 117.931 163.635 116.96C163.635 115.989 164.276 114.689 165.559 113.06C166.876 111.396 168.627 109.888 170.811 108.536C172.995 107.184 175.127 106.508 177.207 106.508C177.692 106.508 178.091 106.629 178.403 106.872C178.75 107.115 178.923 107.496 178.923 108.016C178.923 108.501 178.42 109.247 177.415 110.252C176.41 111.257 175.543 111.76 174.815 111.76ZM192.745 109.368C193.022 109.195 193.248 109.108 193.421 109.108C193.629 109.108 193.733 109.229 193.733 109.472V109.576C191.064 111.829 188.238 113.944 185.257 115.92C182.31 117.896 180.438 118.884 179.641 118.884C178.844 118.884 178.168 118.728 177.613 118.416C177.093 118.139 176.833 117.809 176.833 117.428C176.833 117.047 176.937 116.735 177.145 116.492C177.353 116.215 177.544 116.076 177.717 116.076C177.89 116.076 178.168 116.353 178.549 116.908C178.965 117.428 179.364 117.688 179.745 117.688C180.542 117.688 181.166 116.839 181.617 115.14C182.068 113.441 182.293 112.28 182.293 111.656C182.293 110.997 182.241 110.668 182.137 110.668C182.068 110.668 181.998 110.703 181.929 110.772L180.421 111.968L180.213 111.188C182.397 109.455 183.662 108.293 184.009 107.704C184.217 107.149 184.512 106.872 184.893 106.872C185.136 106.872 185.257 106.959 185.257 107.132C185.257 107.305 185.136 107.687 184.893 108.276C184.65 108.831 184.321 110.113 183.905 112.124C183.524 114.135 183.333 115.296 183.333 115.608C183.333 115.92 183.42 116.076 183.593 116.076C186.02 114.585 188.585 112.731 191.289 110.512L192.745 109.368ZM203.572 109.368C203.815 109.195 204.04 109.108 204.248 109.108C204.456 109.108 204.56 109.229 204.56 109.472V109.576C200.955 112.557 197.956 114.793 195.564 116.284C193.172 117.775 191.006 118.52 189.064 118.52C187.504 118.52 186.724 117.757 186.724 116.232C186.724 113.979 187.868 111.673 190.156 109.316C192.444 106.924 194.368 105.728 195.928 105.728C196.795 105.728 197.228 106.213 197.228 107.184C197.055 109.091 194.316 111.656 189.012 114.88V115.4C189.012 116.544 189.602 117.116 190.78 117.116C191.994 117.116 193.294 116.717 194.68 115.92C197.384 114.325 199.915 112.505 202.272 110.46L203.572 109.368ZM194.576 107.34C193.814 107.34 192.826 107.981 191.612 109.264C190.434 110.547 189.636 112.003 189.22 113.632C190.884 112.627 192.288 111.569 193.432 110.46C194.576 109.316 195.148 108.519 195.148 108.068C195.148 107.583 194.958 107.34 194.576 107.34ZM216.459 109.368C216.701 109.195 216.927 109.108 217.135 109.108C217.343 109.108 217.447 109.229 217.447 109.472V109.576C214.084 112.349 211.449 114.36 209.543 115.608L199.143 122.368L195.919 126.892C190.927 133.721 188.431 137.396 188.431 137.916C187.876 139.129 187.339 139.736 186.819 139.736C186.16 139.736 185.831 139.303 185.831 138.436C185.831 137.569 186.264 136.408 187.131 134.952C187.963 133.496 188.795 132.317 189.627 131.416L194.567 126.216C194.983 125.557 195.832 124.344 197.115 122.576C198.397 120.808 199.247 119.629 199.663 119.04L201.899 115.712L202.003 115.504C202.003 115.435 201.968 115.4 201.899 115.4C199.853 117.099 198.155 117.948 196.803 117.948C195.451 117.948 194.775 117.567 194.775 116.804C194.775 116.007 195.295 114.967 196.335 113.684C197.375 112.401 198.623 111.153 200.079 109.94C201.569 108.727 203.199 107.687 204.967 106.82C206.769 105.919 208.347 105.468 209.699 105.468C211.085 105.468 211.779 105.953 211.779 106.924C211.779 107.617 211.12 108.449 209.803 109.42C208.52 110.391 207.723 110.876 207.411 110.876C207.133 110.876 206.995 110.807 206.995 110.668C206.995 110.46 207.133 110.269 207.411 110.096C208.589 109.264 209.179 108.484 209.179 107.756C209.179 106.993 208.867 106.612 208.243 106.612C206.717 106.612 204.585 107.912 201.847 110.512C199.143 113.077 197.791 114.897 197.791 115.972C197.791 116.284 198.033 116.44 198.519 116.44C199.039 116.44 199.905 116.041 201.119 115.244C202.332 114.412 203.251 113.615 203.875 112.852L205.279 111.084C205.452 110.841 205.677 110.72 205.955 110.72C206.232 110.72 206.475 110.807 206.683 110.98C206.891 111.153 206.995 111.327 206.995 111.5L200.703 120.236L208.399 115.4C210.687 114.013 212.975 112.349 215.263 110.408L216.459 109.368ZM219.208 111.76C219 111.76 218.896 111.691 218.896 111.552C218.896 111.379 219.017 111.188 219.26 110.98C220.404 110.044 220.976 109.195 220.976 108.432C220.976 107.947 220.543 107.669 219.676 107.6C218.116 107.635 216.244 108.761 214.06 110.98C211.911 113.199 210.836 114.863 210.836 115.972C210.836 116.353 211.044 116.544 211.46 116.544C211.911 116.544 212.5 116.249 213.228 115.66C213.887 115.244 215.117 114.204 216.92 112.54C217.336 112.124 217.735 111.916 218.116 111.916C218.601 111.916 218.844 112.141 218.844 112.592C218.844 112.765 218.792 112.904 218.688 113.008C218.584 113.112 218.393 113.337 218.116 113.684C217.839 113.996 217.596 114.291 217.388 114.568C216.764 115.469 216.452 116.059 216.452 116.336C216.452 117.029 216.729 117.376 217.284 117.376C218.012 117.376 219.381 116.717 221.392 115.4C223.403 114.048 225.24 112.696 226.904 111.344L229.4 109.368C229.643 109.195 229.868 109.108 230.076 109.108C230.284 109.108 230.388 109.229 230.388 109.472V109.576C227.719 111.829 224.893 113.944 221.912 115.92C218.965 117.896 217.024 118.884 216.088 118.884C214.979 118.884 214.424 118.295 214.424 117.116C214.424 116.839 214.476 116.579 214.58 116.336C214.684 116.093 214.736 115.92 214.736 115.816C214.736 115.712 214.701 115.643 214.632 115.608C214.528 115.608 213.852 116.076 212.604 117.012C211.391 117.948 210.316 118.416 209.38 118.416C208.479 118.416 208.028 117.931 208.028 116.96C208.028 115.989 208.669 114.689 209.952 113.06C211.269 111.396 213.02 109.888 215.204 108.536C217.388 107.184 219.52 106.508 221.6 106.508C222.085 106.508 222.484 106.629 222.796 106.872C223.143 107.115 223.316 107.496 223.316 108.016C223.316 108.501 222.813 109.247 221.808 110.252C220.803 111.257 219.936 111.76 219.208 111.76ZM239.374 111.136L239.062 109.472C239.062 109.195 239.131 108.952 239.27 108.744C239.409 108.536 239.634 108.432 239.946 108.432C240.258 108.432 240.501 108.675 240.674 109.16C240.882 109.611 240.986 110.079 240.986 110.564C240.986 112.332 240.015 114.152 238.074 116.024C236.133 117.896 234.122 118.832 232.042 118.832C231.557 118.832 231.175 118.676 230.898 118.364C230.621 118.087 230.482 117.723 230.482 117.272C230.482 116.787 230.707 116.093 231.158 115.192C231.643 114.291 231.886 113.736 231.886 113.528C231.886 113.32 231.834 113.216 231.73 113.216C231.626 113.216 231.539 113.251 231.47 113.32C228.003 116.232 225.455 117.688 223.826 117.688C222.855 117.688 222.37 117.272 222.37 116.44C222.37 115.123 223.341 113.285 225.282 110.928C227.258 108.536 228.662 107.34 229.494 107.34C230.014 107.34 230.274 107.444 230.274 107.652C230.274 107.825 229.945 108.224 229.286 108.848C228.662 109.472 227.691 110.599 226.374 112.228C225.091 113.823 224.45 114.984 224.45 115.712C224.45 116.163 224.797 116.388 225.49 116.388C226.183 116.388 227.709 115.452 230.066 113.58C232.423 111.673 234.33 109.94 235.786 108.38C236.341 107.825 236.809 107.548 237.19 107.548C237.606 107.548 237.814 107.687 237.814 107.964C237.814 108.207 237.727 108.449 237.554 108.692C237.415 108.935 236.895 109.576 235.994 110.616C233.741 113.355 232.614 115.504 232.614 117.064C232.614 117.48 232.77 117.688 233.082 117.688C234.365 117.688 235.734 117.012 237.19 115.66C238.646 114.273 239.374 112.765 239.374 111.136ZM249.047 111.76C248.839 111.76 248.735 111.691 248.735 111.552C248.735 111.379 248.857 111.188 249.099 110.98C250.243 110.044 250.815 109.195 250.815 108.432C250.815 107.947 250.382 107.669 249.515 107.6C247.955 107.635 246.083 108.761 243.899 110.98C241.75 113.199 240.675 114.863 240.675 115.972C240.675 116.353 240.883 116.544 241.299 116.544C241.75 116.544 242.339 116.249 243.067 115.66C243.726 115.244 244.957 114.204 246.759 112.54C247.175 112.124 247.574 111.916 247.955 111.916C248.441 111.916 248.683 112.141 248.683 112.592C248.683 112.765 248.631 112.904 248.527 113.008C248.423 113.112 248.233 113.337 247.955 113.684C247.678 113.996 247.435 114.291 247.227 114.568C246.603 115.469 246.291 116.059 246.291 116.336C246.291 117.029 246.569 117.376 247.123 117.376C247.851 117.376 249.221 116.717 251.231 115.4C253.242 114.048 255.079 112.696 256.743 111.344L259.239 109.368C259.482 109.195 259.707 109.108 259.915 109.108C260.123 109.108 260.227 109.229 260.227 109.472V109.576C257.558 111.829 254.733 113.944 251.751 115.92C248.805 117.896 246.863 118.884 245.927 118.884C244.818 118.884 244.263 118.295 244.263 117.116C244.263 116.839 244.315 116.579 244.419 116.336C244.523 116.093 244.575 115.92 244.575 115.816C244.575 115.712 244.541 115.643 244.471 115.608C244.367 115.608 243.691 116.076 242.443 117.012C241.23 117.948 240.155 118.416 239.219 118.416C238.318 118.416 237.867 117.931 237.867 116.96C237.867 115.989 238.509 114.689 239.791 113.06C241.109 111.396 242.859 109.888 245.043 108.536C247.227 107.184 249.359 106.508 251.439 106.508C251.925 106.508 252.323 106.629 252.635 106.872C252.982 107.115 253.155 107.496 253.155 108.016C253.155 108.501 252.653 109.247 251.647 110.252C250.642 111.257 249.775 111.76 249.047 111.76Z" fill="#333333"/>
<path d="M94.48 150.72H99.35V151.84H97.47V158H96.31V151.84H94.48V150.72ZM101.51 153.51L101.48 153.88L101.64 153.65L104.38 150.72H105.88L102.87 153.9L105.99 158H104.51L102.02 154.64L101.51 155.14V158H100.33V150.72H101.51V153.51ZM111.773 157.43C111.666 157.503 111.506 157.593 111.293 157.7C111.086 157.807 110.836 157.9 110.543 157.98C110.25 158.053 109.93 158.087 109.583 158.08C109.016 158.073 108.506 157.973 108.053 157.78C107.6 157.58 107.213 157.313 106.893 156.98C106.58 156.64 106.34 156.253 106.173 155.82C106.006 155.38 105.923 154.913 105.923 154.42C105.923 153.867 106.01 153.36 106.183 152.9C106.363 152.44 106.61 152.043 106.923 151.71C107.243 151.37 107.62 151.107 108.053 150.92C108.493 150.733 108.976 150.64 109.503 150.64C109.963 150.64 110.373 150.703 110.733 150.83C111.1 150.95 111.406 151.087 111.653 151.24L111.193 152.33C111.006 152.203 110.773 152.077 110.493 151.95C110.213 151.823 109.896 151.76 109.543 151.76C109.11 151.76 108.71 151.877 108.343 152.11C107.983 152.337 107.69 152.647 107.463 153.04C107.243 153.427 107.133 153.863 107.133 154.35C107.133 154.857 107.233 155.307 107.433 155.7C107.64 156.093 107.926 156.403 108.293 156.63C108.666 156.85 109.106 156.96 109.613 156.96C109.993 156.96 110.323 156.903 110.603 156.79C110.883 156.67 111.11 156.537 111.283 156.39L111.773 157.43ZM121.449 150.72V158H120.279V154.9H116.699V158H115.529V150.72H116.699V153.79H120.279V150.72H121.449ZM122.369 155.84C122.369 155.413 122.469 155.03 122.669 154.69C122.876 154.35 123.156 154.08 123.509 153.88C123.869 153.68 124.283 153.58 124.749 153.58C125.223 153.58 125.633 153.68 125.979 153.88C126.333 154.08 126.606 154.35 126.799 154.69C126.993 155.03 127.089 155.413 127.089 155.84C127.089 156.267 126.993 156.653 126.799 157C126.606 157.34 126.333 157.61 125.979 157.81C125.626 158.01 125.213 158.11 124.739 158.11C124.279 158.11 123.869 158.02 123.509 157.84C123.156 157.653 122.876 157.39 122.669 157.05C122.469 156.71 122.369 156.307 122.369 155.84ZM123.499 155.85C123.499 156.103 123.553 156.333 123.659 156.54C123.766 156.74 123.909 156.9 124.089 157.02C124.276 157.133 124.486 157.19 124.719 157.19C125.086 157.19 125.383 157.063 125.609 156.81C125.836 156.55 125.949 156.23 125.949 155.85C125.949 155.47 125.836 155.15 125.609 154.89C125.383 154.63 125.086 154.5 124.719 154.5C124.486 154.5 124.276 154.563 124.089 154.69C123.909 154.81 123.766 154.973 123.659 155.18C123.553 155.38 123.499 155.603 123.499 155.85ZM127.766 150.2H128.886V158H127.766V150.2ZM131.652 158.11C131.252 158.11 130.896 158.017 130.582 157.83C130.269 157.643 130.022 157.38 129.842 157.04C129.662 156.693 129.572 156.287 129.572 155.82C129.572 155.347 129.669 154.943 129.862 154.61C130.056 154.277 130.319 154.023 130.652 153.85C130.986 153.67 131.366 153.58 131.792 153.58C132.099 153.58 132.389 153.64 132.662 153.76C132.942 153.873 133.162 154.03 133.322 154.23V150.2H134.432V158H133.312V157.43C133.106 157.63 132.862 157.793 132.582 157.92C132.309 158.047 131.999 158.11 131.652 158.11ZM132.012 157.16C132.339 157.16 132.612 157.08 132.832 156.92C133.059 156.76 133.219 156.537 133.312 156.25V155.35C133.232 155.09 133.072 154.877 132.832 154.71C132.599 154.543 132.326 154.46 132.012 154.46C131.772 154.46 131.552 154.52 131.352 154.64C131.159 154.753 131.002 154.91 130.882 155.11C130.762 155.31 130.702 155.54 130.702 155.8C130.702 156.053 130.762 156.283 130.882 156.49C131.002 156.697 131.159 156.86 131.352 156.98C131.552 157.1 131.772 157.16 132.012 157.16ZM135.477 153.77H136.597V158H135.477V153.77ZM135.427 152.26C135.427 152.087 135.494 151.943 135.627 151.83C135.767 151.717 135.917 151.66 136.077 151.66C136.23 151.66 136.374 151.717 136.507 151.83C136.64 151.943 136.707 152.087 136.707 152.26C136.707 152.433 136.64 152.577 136.507 152.69C136.374 152.797 136.23 152.85 136.077 152.85C135.917 152.85 135.767 152.797 135.627 152.69C135.494 152.577 135.427 152.433 135.427 152.26ZM138.643 153.77L138.723 154.53C138.87 154.243 139.087 154.017 139.373 153.85C139.66 153.677 140 153.59 140.393 153.59C140.787 153.59 141.113 153.71 141.373 153.95C141.64 154.183 141.777 154.487 141.783 154.86V158H140.663V155.26C140.65 155.047 140.587 154.877 140.473 154.75C140.367 154.617 140.19 154.547 139.943 154.54C139.597 154.54 139.31 154.69 139.083 154.99C138.863 155.283 138.753 155.66 138.753 156.12V158H137.633V153.77H138.643ZM144.937 160.11C144.59 160.11 144.293 160.07 144.047 159.99C143.8 159.91 143.58 159.807 143.387 159.68C143.2 159.553 143.023 159.417 142.857 159.27L143.517 158.5C143.71 158.68 143.913 158.83 144.127 158.95C144.347 159.07 144.61 159.13 144.917 159.13C145.33 159.13 145.66 159.03 145.907 158.83C146.153 158.63 146.28 158.353 146.287 158V157.29C146.153 157.523 145.943 157.72 145.657 157.88C145.37 158.033 145.023 158.11 144.617 158.11C144.23 158.11 143.873 158.013 143.547 157.82C143.22 157.62 142.96 157.35 142.767 157.01C142.573 156.67 142.477 156.287 142.477 155.86C142.477 155.42 142.58 155.03 142.787 154.69C142.993 154.343 143.263 154.073 143.597 153.88C143.93 153.68 144.287 153.58 144.667 153.58C145.04 153.58 145.37 153.647 145.657 153.78C145.95 153.907 146.163 154.067 146.297 154.26L146.377 153.77H147.407V158.02C147.407 158.413 147.3 158.767 147.087 159.08C146.88 159.4 146.59 159.65 146.217 159.83C145.843 160.017 145.417 160.11 144.937 160.11ZM143.607 155.83C143.607 156.083 143.663 156.313 143.777 156.52C143.897 156.727 144.057 156.89 144.257 157.01C144.463 157.13 144.693 157.19 144.947 157.19C145.28 157.19 145.56 157.11 145.787 156.95C146.02 156.783 146.187 156.567 146.287 156.3V155.38C146.2 155.113 146.033 154.9 145.787 154.74C145.547 154.58 145.267 154.5 144.947 154.5C144.567 154.5 144.247 154.623 143.987 154.87C143.733 155.117 143.607 155.437 143.607 155.83ZM156.783 157.43C156.676 157.503 156.516 157.593 156.303 157.7C156.096 157.807 155.846 157.9 155.553 157.98C155.259 158.053 154.939 158.087 154.593 158.08C154.026 158.073 153.516 157.973 153.063 157.78C152.609 157.58 152.223 157.313 151.903 156.98C151.589 156.64 151.349 156.253 151.183 155.82C151.016 155.38 150.933 154.913 150.933 154.42C150.933 153.867 151.019 153.36 151.193 152.9C151.373 152.44 151.619 152.043 151.933 151.71C152.253 151.37 152.629 151.107 153.063 150.92C153.503 150.733 153.986 150.64 154.513 150.64C154.973 150.64 155.383 150.703 155.743 150.83C156.109 150.95 156.416 151.087 156.663 151.24L156.203 152.33C156.016 152.203 155.783 152.077 155.503 151.95C155.223 151.823 154.906 151.76 154.553 151.76C154.119 151.76 153.719 151.877 153.353 152.11C152.993 152.337 152.699 152.647 152.473 153.04C152.253 153.427 152.143 153.863 152.143 154.35C152.143 154.857 152.243 155.307 152.443 155.7C152.649 156.093 152.936 156.403 153.303 156.63C153.676 156.85 154.116 156.96 154.623 156.96C155.003 156.96 155.333 156.903 155.613 156.79C155.893 156.67 156.119 156.537 156.293 156.39L156.783 157.43ZM157.256 155.84C157.256 155.413 157.356 155.03 157.556 154.69C157.763 154.35 158.043 154.08 158.396 153.88C158.756 153.68 159.169 153.58 159.636 153.58C160.109 153.58 160.519 153.68 160.866 153.88C161.219 154.08 161.493 154.35 161.686 154.69C161.879 155.03 161.976 155.413 161.976 155.84C161.976 156.267 161.879 156.653 161.686 157C161.493 157.34 161.219 157.61 160.866 157.81C160.513 158.01 160.099 158.11 159.626 158.11C159.166 158.11 158.756 158.02 158.396 157.84C158.043 157.653 157.763 157.39 157.556 157.05C157.356 156.71 157.256 156.307 157.256 155.84ZM158.386 155.85C158.386 156.103 158.439 156.333 158.546 156.54C158.653 156.74 158.796 156.9 158.976 157.02C159.163 157.133 159.373 157.19 159.606 157.19C159.973 157.19 160.269 157.063 160.496 156.81C160.723 156.55 160.836 156.23 160.836 155.85C160.836 155.47 160.723 155.15 160.496 154.89C160.269 154.63 159.973 154.5 159.606 154.5C159.373 154.5 159.163 154.563 158.976 154.69C158.796 154.81 158.653 154.973 158.546 155.18C158.439 155.38 158.386 155.603 158.386 155.85ZM162.143 157.39C162.143 157.223 162.206 157.08 162.333 156.96C162.459 156.84 162.599 156.78 162.753 156.78C162.893 156.78 163.026 156.84 163.153 156.96C163.279 157.08 163.343 157.223 163.343 157.39C163.343 157.577 163.279 157.727 163.153 157.84C163.026 157.947 162.893 158 162.753 158C162.599 158 162.459 157.947 162.333 157.84C162.206 157.727 162.143 157.577 162.143 157.39ZM164.832 157.12C164.679 157.473 164.529 157.823 164.382 158.17C164.242 158.517 164.099 158.867 163.952 159.22H163.052C163.185 158.867 163.315 158.517 163.442 158.17C163.569 157.823 163.699 157.473 163.832 157.12H164.832ZM168.326 150.72H169.496V156.88H173.086V158H168.326V150.72ZM174.305 151.91H175.425V153.77H176.525V154.65H175.425V158H174.305V154.65H173.575V153.77H174.305V151.91ZM178.855 158.11C178.455 158.11 178.099 158.017 177.785 157.83C177.472 157.643 177.225 157.38 177.045 157.04C176.865 156.693 176.775 156.287 176.775 155.82C176.775 155.347 176.872 154.943 177.065 154.61C177.259 154.277 177.522 154.023 177.855 153.85C178.189 153.67 178.569 153.58 178.995 153.58C179.302 153.58 179.592 153.64 179.865 153.76C180.145 153.873 180.365 154.03 180.525 154.23V150.2H181.635V158H180.515V157.43C180.309 157.63 180.065 157.793 179.785 157.92C179.512 158.047 179.202 158.11 178.855 158.11ZM179.215 157.16C179.542 157.16 179.815 157.08 180.035 156.92C180.262 156.76 180.422 156.537 180.515 156.25V155.35C180.435 155.09 180.275 154.877 180.035 154.71C179.802 154.543 179.529 154.46 179.215 154.46C178.975 154.46 178.755 154.52 178.555 154.64C178.362 154.753 178.205 154.91 178.085 155.11C177.965 155.31 177.905 155.54 177.905 155.8C177.905 156.053 177.965 156.283 178.085 156.49C178.205 156.697 178.362 156.86 178.555 156.98C178.755 157.1 178.975 157.16 179.215 157.16ZM191.013 157.43C190.907 157.503 190.747 157.593 190.533 157.7C190.327 157.807 190.077 157.9 189.783 157.98C189.49 158.053 189.17 158.087 188.823 158.08C188.257 158.073 187.747 157.973 187.293 157.78C186.84 157.58 186.453 157.313 186.133 156.98C185.82 156.64 185.58 156.253 185.413 155.82C185.247 155.38 185.163 154.913 185.163 154.42C185.163 153.867 185.25 153.36 185.423 152.9C185.603 152.44 185.85 152.043 186.163 151.71C186.483 151.37 186.86 151.107 187.293 150.92C187.733 150.733 188.217 150.64 188.743 150.64C189.203 150.64 189.613 150.703 189.973 150.83C190.34 150.95 190.647 151.087 190.893 151.24L190.433 152.33C190.247 152.203 190.013 152.077 189.733 151.95C189.453 151.823 189.137 151.76 188.783 151.76C188.35 151.76 187.95 151.877 187.583 152.11C187.223 152.337 186.93 152.647 186.703 153.04C186.483 153.427 186.373 153.863 186.373 154.35C186.373 154.857 186.473 155.307 186.673 155.7C186.88 156.093 187.167 156.403 187.533 156.63C187.907 156.85 188.347 156.96 188.853 156.96C189.233 156.96 189.563 156.903 189.843 156.79C190.123 156.67 190.35 156.537 190.523 156.39L191.013 157.43ZM192.066 150.72H196.896V151.84H193.236V153.78H196.496V154.9H193.236V156.88H197.036V158H192.066V150.72ZM197.698 154.37C197.698 153.863 197.795 153.387 197.988 152.94C198.182 152.487 198.448 152.09 198.788 151.75C199.128 151.403 199.522 151.133 199.968 150.94C200.422 150.74 200.905 150.64 201.418 150.64C201.925 150.64 202.402 150.74 202.848 150.94C203.302 151.133 203.698 151.403 204.038 151.75C204.385 152.09 204.655 152.487 204.848 152.94C205.048 153.387 205.148 153.863 205.148 154.37C205.148 154.883 205.048 155.363 204.848 155.81C204.655 156.257 204.385 156.65 204.038 156.99C203.698 157.33 203.302 157.597 202.848 157.79C202.402 157.983 201.925 158.08 201.418 158.08C200.905 158.08 200.422 157.987 199.968 157.8C199.522 157.607 199.128 157.343 198.788 157.01C198.448 156.67 198.182 156.277 197.988 155.83C197.795 155.377 197.698 154.89 197.698 154.37ZM198.898 154.37C198.898 154.85 199.012 155.287 199.238 155.68C199.465 156.067 199.768 156.377 200.148 156.61C200.535 156.843 200.968 156.96 201.448 156.96C201.915 156.96 202.335 156.843 202.708 156.61C203.088 156.377 203.388 156.067 203.608 155.68C203.835 155.287 203.948 154.85 203.948 154.37C203.948 153.883 203.835 153.443 203.608 153.05C203.382 152.657 203.078 152.343 202.698 152.11C202.318 151.877 201.892 151.76 201.418 151.76C200.945 151.76 200.518 151.877 200.138 152.11C199.758 152.343 199.455 152.66 199.228 153.06C199.008 153.453 198.898 153.89 198.898 154.37Z" fill="black"/>
</svg>
