<svg width="300" height="220" viewBox="0 0 300 220" fill="none" xmlns="http://www.w3.org/2000/svg">
<rect width="300" height="220" fill="#F50057"/>
<path d="M135.063 76.9277C134.878 76.742 134.658 76.5947 134.415 76.4942C134.173 76.3937 133.914 76.3419 133.651 76.3419C133.389 76.3419 133.129 76.3937 132.887 76.4942C132.645 76.5947 132.425 76.742 132.239 76.9277L119.582 89.5807C119.209 89.9559 119 90.4634 119 90.9924C119 91.5214 119.209 92.0289 119.582 92.4042L132.182 105.004C132.562 105.351 133.061 105.539 133.575 105.527C134.09 105.516 134.58 105.306 134.944 104.943C135.308 104.579 135.517 104.088 135.529 103.574C135.54 103.059 135.353 102.56 135.006 102.181L123.817 90.9924L135.063 79.7645C135.25 79.5787 135.399 79.3577 135.5 79.1143C135.601 78.8709 135.654 78.6098 135.654 78.3461C135.654 78.0824 135.601 77.8213 135.5 77.5779C135.399 77.3344 135.25 77.1135 135.063 76.9277Z" fill="white"/>
<path d="M179.834 89.5277L167.234 76.9277C166.86 76.5533 166.353 76.3427 165.823 76.3423C165.294 76.3418 164.787 76.5516 164.412 76.9255C164.038 77.2993 163.827 77.8066 163.827 78.3357C163.826 78.8648 164.036 79.3724 164.41 79.7468L175.603 90.9394L164.357 102.181C164.01 102.56 163.823 103.059 163.834 103.574C163.845 104.088 164.055 104.579 164.419 104.942C164.783 105.306 165.273 105.516 165.787 105.527C166.302 105.539 166.801 105.351 167.181 105.004L179.838 92.3512C180.212 91.9765 180.422 91.4688 180.422 90.9394C180.422 90.4101 180.212 89.9024 179.838 89.5277H179.834Z" fill="white"/>
<path d="M160.484 76.3983C160.274 76.2412 160.035 76.1269 159.781 76.0621C159.527 75.9972 159.263 75.983 159.004 76.0203C158.745 76.0576 158.495 76.1456 158.27 76.2794C158.045 76.4131 157.848 76.5899 157.691 76.7998L138.531 102.388C138.36 102.597 138.234 102.838 138.159 103.097C138.085 103.356 138.063 103.627 138.096 103.895C138.129 104.162 138.216 104.42 138.351 104.654C138.486 104.887 138.667 105.09 138.883 105.251C139.099 105.413 139.345 105.529 139.607 105.593C139.869 105.656 140.141 105.666 140.407 105.622C140.673 105.578 140.927 105.481 141.154 105.336C141.381 105.191 141.577 105.002 141.729 104.779L160.885 79.1909C161.042 78.9813 161.156 78.7427 161.221 78.4888C161.286 78.2349 161.3 77.9708 161.263 77.7114C161.226 77.4521 161.138 77.2026 161.004 76.9773C160.87 76.752 160.693 76.5552 160.484 76.3983Z" fill="white"/>
<path d="M55.26 116.392H69.148V120.312H64.136V137H60.076V120.312H55.26V116.392ZM78.5822 123.728L78.4702 124.764L79.0863 123.98L85.8062 116.392H91.0703L82.5582 125.632L91.0982 137H85.9462L79.5903 128.208L78.5822 129.216V137H74.4662V116.392H78.5822V123.728ZM111.037 135.292C110.813 135.479 110.393 135.731 109.777 136.048C109.18 136.365 108.442 136.645 107.565 136.888C106.688 137.131 105.717 137.243 104.653 137.224C103.029 137.187 101.573 136.897 100.285 136.356C99.0158 135.796 97.9331 135.04 97.0371 134.088C96.1598 133.136 95.4878 132.044 95.0211 130.812C94.5544 129.58 94.3211 128.264 94.3211 126.864C94.3211 124.773 94.7411 122.925 95.5811 121.32C96.4211 119.715 97.5878 118.455 99.0811 117.54C100.593 116.625 102.348 116.168 104.345 116.168C105.726 116.168 106.949 116.355 108.013 116.728C109.077 117.101 109.945 117.503 110.617 117.932L109.021 121.768C108.554 121.413 107.929 121.049 107.145 120.676C106.38 120.284 105.493 120.088 104.485 120.088C103.44 120.088 102.46 120.377 101.545 120.956C100.649 121.535 99.9211 122.319 99.3611 123.308C98.8198 124.279 98.5491 125.389 98.5491 126.64C98.5491 127.965 98.8011 129.132 99.3051 130.14C99.8091 131.129 100.528 131.904 101.461 132.464C102.394 133.024 103.486 133.304 104.737 133.304C105.838 133.304 106.781 133.127 107.565 132.772C108.349 132.417 108.946 132.044 109.357 131.652L111.037 135.292ZM144.342 116.392V137H140.282V128.628H131.07V137H127.01V116.392H131.07V124.708H140.282V116.392H144.342ZM149.455 130.728C149.455 129.477 149.744 128.357 150.323 127.368C150.92 126.379 151.751 125.604 152.815 125.044C153.879 124.465 155.101 124.176 156.483 124.176C157.883 124.176 159.096 124.465 160.123 125.044C161.149 125.604 161.933 126.379 162.475 127.368C163.035 128.357 163.315 129.477 163.315 130.728C163.315 131.979 163.035 133.108 162.475 134.116C161.933 135.105 161.149 135.889 160.123 136.468C159.096 137.047 157.864 137.336 156.427 137.336C155.083 137.336 153.879 137.075 152.815 136.552C151.769 136.029 150.948 135.273 150.351 134.284C149.753 133.295 149.455 132.109 149.455 130.728ZM153.403 130.756C153.403 131.727 153.683 132.539 154.243 133.192C154.803 133.827 155.512 134.144 156.371 134.144C157.285 134.144 158.013 133.827 158.555 133.192C159.096 132.539 159.367 131.727 159.367 130.756C159.367 129.785 159.096 128.983 158.555 128.348C158.013 127.695 157.285 127.368 156.371 127.368C155.512 127.368 154.803 127.695 154.243 128.348C153.683 128.983 153.403 129.785 153.403 130.756ZM167.803 114.908H171.723V137H167.803V114.908ZM182.144 137.336C181.005 137.336 179.988 137.075 179.092 136.552C178.196 136.011 177.486 135.236 176.964 134.228C176.46 133.22 176.208 132.025 176.208 130.644C176.208 129.263 176.488 128.087 177.048 127.116C177.608 126.145 178.373 125.408 179.344 124.904C180.314 124.4 181.416 124.148 182.648 124.148C183.432 124.148 184.178 124.269 184.888 124.512C185.616 124.755 186.222 125.128 186.708 125.632V114.908H190.6V137H186.68V135.712C186.082 136.179 185.41 136.571 184.664 136.888C183.917 137.187 183.077 137.336 182.144 137.336ZM183.432 134.032C184.216 134.032 184.869 133.883 185.392 133.584C185.914 133.267 186.344 132.8 186.68 132.184V129.188C186.456 128.591 186.054 128.115 185.476 127.76C184.897 127.405 184.216 127.228 183.432 127.228C182.853 127.228 182.312 127.377 181.808 127.676C181.322 127.956 180.93 128.348 180.632 128.852C180.333 129.356 180.184 129.935 180.184 130.588C180.184 131.241 180.333 131.829 180.632 132.352C180.93 132.875 181.322 133.285 181.808 133.584C182.312 133.883 182.853 134.032 183.432 134.032ZM196.032 124.764H199.952V137H196.032V124.764ZM195.948 120.424C195.948 119.845 196.172 119.369 196.62 118.996C197.087 118.623 197.582 118.436 198.104 118.436C198.627 118.436 199.103 118.623 199.532 118.996C199.98 119.369 200.204 119.845 200.204 120.424C200.204 121.003 199.98 121.479 199.532 121.852C199.103 122.207 198.627 122.384 198.104 122.384C197.582 122.384 197.087 122.207 196.62 121.852C196.172 121.479 195.948 121.003 195.948 120.424ZM208.945 124.764L209.225 126.724C209.655 125.959 210.261 125.343 211.045 124.876C211.829 124.409 212.781 124.176 213.901 124.176C215.059 124.176 216.02 124.521 216.785 125.212C217.569 125.884 217.971 126.761 217.989 127.844V137H214.069V129.3C214.051 128.759 213.901 128.329 213.621 128.012C213.36 127.676 212.912 127.508 212.277 127.508C211.363 127.508 210.635 127.937 210.093 128.796C209.571 129.636 209.309 130.709 209.309 132.016V137H205.389V124.764H208.945ZM229.742 143.16C228.641 143.16 227.708 143.029 226.942 142.768C226.196 142.507 225.561 142.189 225.038 141.816C224.516 141.443 224.049 141.088 223.638 140.752L225.934 138.064C226.364 138.456 226.858 138.829 227.418 139.184C227.997 139.557 228.753 139.744 229.686 139.744C230.62 139.744 231.432 139.501 232.122 139.016C232.832 138.549 233.186 137.859 233.186 136.944V135.208C232.832 135.787 232.281 136.291 231.534 136.72C230.788 137.131 229.817 137.336 228.622 137.336C227.521 137.336 226.494 137.056 225.542 136.496C224.609 135.917 223.862 135.143 223.302 134.172C222.742 133.183 222.462 132.063 222.462 130.812C222.462 129.524 222.761 128.385 223.358 127.396C223.956 126.388 224.73 125.595 225.682 125.016C226.634 124.437 227.642 124.148 228.706 124.148C229.77 124.148 230.685 124.307 231.45 124.624C232.234 124.923 232.813 125.287 233.186 125.716L233.494 124.764H237.106V137C237.106 138.195 236.77 139.249 236.098 140.164C235.426 141.097 234.53 141.825 233.41 142.348C232.309 142.889 231.086 143.16 229.742 143.16ZM226.41 130.7C226.41 131.671 226.737 132.492 227.39 133.164C228.044 133.817 228.846 134.144 229.798 134.144C231.366 134.144 232.496 133.528 233.186 132.296V129.3C232.925 128.703 232.496 128.227 231.898 127.872C231.301 127.517 230.601 127.34 229.798 127.34C228.846 127.34 228.044 127.657 227.39 128.292C226.737 128.908 226.41 129.711 226.41 130.7ZM240.937 134.984C240.937 134.405 241.143 133.92 241.553 133.528C241.983 133.136 242.449 132.94 242.953 132.94C243.42 132.94 243.859 133.136 244.269 133.528C244.699 133.92 244.913 134.405 244.913 134.984C244.913 135.6 244.699 136.095 244.269 136.468C243.859 136.823 243.42 137 242.953 137C242.449 137 241.983 136.823 241.553 136.468C241.143 136.095 240.937 135.6 240.937 134.984Z" fill="white"/>
</svg>
