<svg width="300" height="220" viewBox="0 0 300 220" fill="none" xmlns="http://www.w3.org/2000/svg">
<rect width="300" height="220" fill="white"/>
<g clip-path="url(#clip0)">
<path d="M130.804 120.978C125.001 142.51 112.715 161.355 90.402 161.355C68.0886 161.355 50 143.278 50 120.978C50 98.6789 73.5184 95.1813 90.402 80.6016C124.688 50.9947 148.826 54.111 130.804 120.978Z" fill="#F2F2F2"/>
<path d="M142.641 67.7942C149.764 67.7942 155.539 62.023 155.539 54.904C155.539 47.7849 149.764 42.0138 142.641 42.0138C135.517 42.0138 129.742 47.7849 129.742 54.904C129.742 62.023 135.517 67.7942 142.641 67.7942Z" fill="#FF6584"/>
<path d="M165.971 36.8956H159.143V43.7198H165.971V36.8956Z" fill="#FF6584"/>
<path d="M90.8947 165.822C108.704 165.822 123.14 163.859 123.14 161.438C123.14 159.016 108.704 157.054 90.8947 157.054C73.0858 157.054 58.6489 159.016 58.6489 161.438C58.6489 163.859 73.0858 165.822 90.8947 165.822Z" fill="#3F3D56"/>
<path d="M143.589 59.4535H99.9624V81.6322H143.589V59.4535Z" fill="#F50057"/>
<path d="M89.1506 154.993C97.4264 154.993 104.135 148.288 104.135 140.017C104.135 131.747 97.4264 125.042 89.1506 125.042C80.8747 125.042 74.1658 131.747 74.1658 140.017C74.1658 148.288 80.8747 154.993 89.1506 154.993Z" fill="#2F2E41"/>
<path d="M86.8744 151.77H82.322V159.921H86.8744V151.77Z" fill="#2F2E41"/>
<path d="M95.9791 151.77H91.4268V159.921H95.9791V151.77Z" fill="#2F2E41"/>
<path d="M86.1156 161.438C88.2108 161.438 89.9093 160.801 89.9093 160.016C89.9093 159.231 88.2108 158.594 86.1156 158.594C84.0205 158.594 82.322 159.231 82.322 160.016C82.322 160.801 84.0205 161.438 86.1156 161.438Z" fill="#2F2E41"/>
<path d="M95.2204 161.248C97.3155 161.248 99.014 160.612 99.014 159.826C99.014 159.041 97.3155 158.405 95.2204 158.405C93.1252 158.405 91.4268 159.041 91.4268 159.826C91.4268 160.612 93.1252 161.248 95.2204 161.248Z" fill="#2F2E41"/>
<path d="M89.5301 141.344C92.3585 141.344 94.6515 139.053 94.6515 136.226C94.6515 133.399 92.3585 131.108 89.5301 131.108C86.7016 131.108 84.4087 133.399 84.4087 136.226C84.4087 139.053 86.7016 141.344 89.5301 141.344Z" fill="white"/>
<path d="M89.5299 137.932C90.4727 137.932 91.237 137.168 91.237 136.226C91.237 135.284 90.4727 134.52 89.5299 134.52C88.5871 134.52 87.8228 135.284 87.8228 136.226C87.8228 137.168 88.5871 137.932 89.5299 137.932Z" fill="#3F3D56"/>
<path d="M74.6148 126.091C73.4049 120.675 77.2726 115.203 83.2537 113.869C89.2347 112.534 95.0642 115.842 96.2741 121.257C97.4841 126.673 93.5202 128.67 87.5392 130.004C81.5581 131.339 75.8248 131.506 74.6148 126.091Z" fill="#F50057"/>
<path d="M84.0292 111.962C92.3051 111.962 99.014 105.257 99.014 96.9867C99.014 88.716 92.3051 82.0113 84.0292 82.0113C75.7534 82.0113 69.0444 88.716 69.0444 96.9867C69.0444 105.257 75.7534 111.962 84.0292 111.962Z" fill="#2F2E41"/>
<path d="M81.753 108.74H77.2007V116.891H81.753V108.74Z" fill="#2F2E41"/>
<path d="M90.8578 108.74H86.3054V116.891H90.8578V108.74Z" fill="#2F2E41"/>
<path d="M80.9943 118.407C83.0895 118.407 84.7879 117.771 84.7879 116.985C84.7879 116.2 83.0895 115.564 80.9943 115.564C78.8991 115.564 77.2007 116.2 77.2007 116.985C77.2007 117.771 78.8991 118.407 80.9943 118.407Z" fill="#2F2E41"/>
<path d="M90.099 118.218C92.1942 118.218 93.8927 117.581 93.8927 116.796C93.8927 116.011 92.1942 115.374 90.099 115.374C88.0039 115.374 86.3054 116.011 86.3054 116.796C86.3054 117.581 88.0039 118.218 90.099 118.218Z" fill="#2F2E41"/>
<path d="M84.4085 98.3136C87.237 98.3136 89.5299 96.0221 89.5299 93.1954C89.5299 90.3688 87.237 88.0773 84.4085 88.0773C81.58 88.0773 79.2871 90.3688 79.2871 93.1954C79.2871 96.0221 81.58 98.3136 84.4085 98.3136Z" fill="white"/>
<path d="M84.4085 94.9015C85.3514 94.9015 86.1157 94.1377 86.1157 93.1954C86.1157 92.2532 85.3514 91.4894 84.4085 91.4894C83.4657 91.4894 82.7014 92.2532 82.7014 93.1954C82.7014 94.1377 83.4657 94.9015 84.4085 94.9015Z" fill="#3F3D56"/>
<path d="M69.4935 83.06C68.2836 77.6447 72.1513 72.1727 78.1323 70.8381C84.1134 69.5034 89.9428 72.8114 91.1528 78.2267C92.3628 83.642 88.3989 85.6393 82.4178 86.974C76.4368 88.3087 70.7035 88.4753 69.4935 83.06Z" fill="#F50057"/>
<path d="M100.077 86.5174C101.554 82.6546 101.768 79.1474 100.555 78.6839C99.3412 78.2204 97.1599 80.9761 95.6826 84.8389C94.2052 88.7017 93.9912 92.2088 95.2046 92.6723C96.4181 93.1358 98.5994 90.3801 100.077 86.5174Z" fill="#2F2E41"/>
<path d="M73.9209 93.2467C74.4776 92.0738 71.898 89.6863 68.1593 87.9142C64.4205 86.1421 60.9384 85.6564 60.3817 86.8293C59.825 88.0023 62.4046 90.3898 66.1434 92.1619C69.8821 93.934 73.3642 94.4197 73.9209 93.2467Z" fill="#2F2E41"/>
<path d="M76.6687 102.389C76.6687 103.855 80.445 106.749 84.6353 106.749C88.8256 106.749 92.7545 102.623 92.7545 101.157C92.7545 99.6913 88.8256 101.441 84.6353 101.441C80.445 101.441 76.6687 100.923 76.6687 102.389Z" fill="white"/>
<path d="M147.762 56.2309H104.135V78.4096H147.762V56.2309Z" stroke="#3F3D56" stroke-width="2" stroke-miterlimit="10"/>
<path d="M168.247 35.1896H161.419V42.0138H168.247V35.1896Z" stroke="#3F3D56" stroke-width="2" stroke-miterlimit="10"/>
<path d="M250 137.42C250 152.931 240.773 158.347 229.391 158.347C218.009 158.347 208.781 152.931 208.781 137.42C208.781 121.908 229.391 102.175 229.391 102.175C229.391 102.175 250 121.908 250 137.42Z" fill="#F2F2F2"/>
<path d="M228.64 155.974L228.851 142.993L237.635 126.933L228.884 140.956L228.979 135.119L235.033 123.5L229.004 133.574V133.575L229.175 123.076L235.658 113.826L229.202 121.425L229.308 102.175L228.638 127.659L228.693 126.608L222.102 116.525L228.588 128.626L227.974 140.35L227.955 140.039L220.357 129.429L227.932 141.139L227.855 142.605L227.842 142.627L227.848 142.747L226.29 172.494H228.372L228.621 157.129L236.178 145.448L228.64 155.974Z" fill="#3F3D56"/>
<path d="M227.175 174.615C231.133 174.615 234.341 173.665 234.341 172.493C234.341 171.321 231.133 170.371 227.175 170.371C223.218 170.371 220.009 171.321 220.009 172.493C220.009 173.665 223.218 174.615 227.175 174.615Z" fill="#3F3D56"/>
<path d="M195.03 184.02C212.839 184.02 227.275 182.057 227.275 179.636C227.275 177.214 212.839 175.252 195.03 175.252C177.221 175.252 162.784 177.214 162.784 179.636C162.784 182.057 177.221 184.02 195.03 184.02Z" fill="#3F3D56"/>
<path d="M195.409 172.148C203.685 172.148 210.394 165.443 210.394 157.173C210.394 148.902 203.685 142.197 195.409 142.197C187.133 142.197 180.424 148.902 180.424 157.173C180.424 165.443 187.133 172.148 195.409 172.148Z" fill="#2F2E41"/>
<path d="M197.685 177.076H202.238V168.925H197.685V177.076Z" fill="#2F2E41"/>
<path d="M188.58 177.076H193.133V168.925H188.58V177.076Z" fill="#2F2E41"/>
<path d="M190.62 179.161C192.434 178.114 193.587 176.714 193.194 176.034C192.801 175.354 191.011 175.651 189.197 176.698C187.383 177.745 186.23 179.145 186.623 179.825C187.016 180.505 188.805 180.208 190.62 179.161Z" fill="#2F2E41"/>
<path d="M199.535 179.161C201.349 178.114 202.502 176.714 202.109 176.034C201.716 175.354 199.926 175.651 198.112 176.698C196.298 177.745 195.145 179.145 195.538 179.825C195.931 180.505 197.72 180.208 199.535 179.161Z" fill="#2F2E41"/>
<path d="M195.03 158.499C197.858 158.499 200.151 156.208 200.151 153.381C200.151 150.555 197.858 148.263 195.03 148.263C192.201 148.263 189.908 150.555 189.908 153.381C189.908 156.208 192.201 158.499 195.03 158.499Z" fill="white"/>
<path d="M193.286 152.907C194.228 152.907 194.993 152.144 194.993 151.201C194.993 150.259 194.228 149.495 193.286 149.495C192.343 149.495 191.578 150.259 191.578 151.201C191.578 152.144 192.343 152.907 193.286 152.907Z" fill="#3F3D56"/>
<path d="M209.945 143.246C211.155 137.831 207.287 132.359 201.306 131.024C195.325 129.689 189.495 132.997 188.285 138.413C187.075 143.828 191.039 145.825 197.02 147.16C203.001 148.494 208.735 148.661 209.945 143.246Z" fill="#F50057"/>
<path d="M189.168 154.971C189.679 153.777 187.01 151.491 183.206 149.864C179.401 148.237 175.903 147.885 175.392 149.078C174.881 150.272 177.55 152.559 181.355 154.186C185.159 155.813 188.657 156.164 189.168 154.971Z" fill="#2F2E41"/>
<path d="M217.241 165.018C217.752 163.824 215.083 161.538 211.279 159.91C207.474 158.283 203.976 157.932 203.465 159.125C202.954 160.319 205.623 162.605 209.428 164.232C213.232 165.86 216.73 166.211 217.241 165.018Z" fill="#2F2E41"/>
<path d="M176.973 143.05H170.144V149.874H176.973V143.05Z" fill="#FF6584"/>
<path d="M169.765 130.918H162.937V137.742H169.765V130.918Z" stroke="#3F3D56" stroke-width="2" stroke-miterlimit="10"/>
<path d="M198.407 163.712C198.407 164.617 198.047 165.485 197.407 166.125C196.766 166.765 195.898 167.125 194.992 167.125C194.087 167.125 193.218 166.765 192.578 166.125C191.938 165.485 191.578 164.617 191.578 163.712C191.578 161.828 193.107 161.438 194.992 161.438C196.878 161.438 198.407 161.828 198.407 163.712Z" fill="white"/>
</g>
<defs>
<clipPath id="clip0">
<rect width="200" height="149.02" fill="white" transform="translate(50 35)"/>
</clipPath>
</defs>
</svg>
