<svg width="692" height="346" viewBox="0 0 692 346" fill="none" xmlns="http://www.w3.org/2000/svg">
<g clip-path="url(#clip0)">
<path d="M146.21 -9.02378e-05C127.409 -0.0324278 108.78 3.58443 91.3549 10.6503C90.6533 10.9381 89.9489 11.2274 89.2448 11.5232C62.7625 22.7101 40.1677 41.4728 24.2919 65.4597C8.41617 89.4467 -0.0341611 117.591 -4.2046e-05 146.365V306.075C0.0018568 307.762 0.672019 309.379 1.86342 310.572C3.05482 311.765 4.67017 312.435 6.35506 312.437L6.48125 312.448C128.97 334.716 248.05 346 360.511 346C362.197 346 363.882 345.997 365.565 345.992C476.111 345.655 583.752 334.372 685.497 312.453L685.645 312.437C687.33 312.435 688.945 311.765 690.137 310.572C691.328 309.379 691.998 307.762 692 306.075V6.3618C691.998 4.67512 691.328 3.05805 690.137 1.86538C688.945 0.672716 687.33 0.0018519 685.645 -4.70938e-05L146.21 -9.02378e-05Z" fill="#F50057"/>
<path d="M526.626 127.373C525.524 127.391 524.474 127.842 523.701 128.628C522.929 129.415 522.496 130.473 522.496 131.576C522.496 132.679 522.929 133.738 523.701 134.524C524.474 135.31 525.524 135.761 526.626 135.779H631.899C632.45 135.789 632.999 135.69 633.512 135.487C634.025 135.285 634.494 134.983 634.891 134.599C635.287 134.215 635.605 133.756 635.824 133.25C636.044 132.743 636.162 132.198 636.171 131.645C636.18 131.093 636.08 130.544 635.877 130.031C635.674 129.517 635.372 129.048 634.988 128.651C634.604 128.255 634.146 127.937 633.639 127.718C633.133 127.499 632.588 127.382 632.036 127.373C631.99 127.372 631.945 127.372 631.899 127.373H526.626Z" fill="#3F3D56"/>
<path d="M655.772 126.203C655.695 126.28 655.634 126.371 655.593 126.471C655.551 126.571 655.53 126.679 655.53 126.788C655.53 126.896 655.551 127.004 655.593 127.104C655.634 127.204 655.695 127.296 655.772 127.372L659.319 130.923H650.573C650.354 130.923 650.143 131.01 649.988 131.165C649.834 131.32 649.746 131.531 649.746 131.75C649.746 131.969 649.834 132.18 649.988 132.335C650.143 132.49 650.354 132.577 650.573 132.577H659.319L655.772 136.128C655.695 136.204 655.634 136.296 655.593 136.396C655.551 136.496 655.53 136.604 655.53 136.712C655.53 136.821 655.551 136.929 655.593 137.029C655.634 137.129 655.695 137.221 655.772 137.297C655.849 137.374 655.94 137.435 656.04 137.477C656.14 137.518 656.247 137.54 656.356 137.54C656.464 137.54 656.572 137.518 656.672 137.477C656.772 137.435 656.863 137.374 656.94 137.297L661.897 132.335C662.052 132.18 662.139 131.969 662.139 131.75C662.139 131.531 662.052 131.32 661.897 131.165L656.94 126.203C656.863 126.126 656.772 126.065 656.672 126.023C656.572 125.982 656.464 125.961 656.356 125.961C656.247 125.961 656.14 125.982 656.04 126.023C655.94 126.065 655.849 126.126 655.772 126.203Z" fill="white"/>
<path d="M502.708 126.203C502.785 126.28 502.846 126.371 502.887 126.471C502.929 126.571 502.95 126.679 502.95 126.788C502.95 126.896 502.929 127.004 502.887 127.104C502.846 127.204 502.785 127.296 502.708 127.372L499.161 130.923H507.907C508.016 130.923 508.124 130.944 508.224 130.985C508.325 131.027 508.416 131.088 508.493 131.164C508.57 131.241 508.631 131.332 508.673 131.433C508.714 131.533 508.736 131.641 508.736 131.75C508.736 131.859 508.714 131.967 508.673 132.067C508.631 132.168 508.57 132.259 508.493 132.336C508.416 132.413 508.325 132.473 508.224 132.515C508.124 132.556 508.016 132.577 507.907 132.577H499.161L502.708 136.128C502.863 136.283 502.95 136.493 502.95 136.712C502.95 136.932 502.863 137.142 502.708 137.297C502.553 137.452 502.343 137.54 502.124 137.54C501.905 137.54 501.694 137.452 501.54 137.297L496.582 132.335C496.427 132.18 496.34 131.969 496.34 131.75C496.34 131.531 496.427 131.32 496.582 131.165L501.54 126.203C501.616 126.126 501.707 126.065 501.808 126.023C501.908 125.982 502.015 125.961 502.124 125.961C502.232 125.961 502.34 125.982 502.44 126.023C502.54 126.065 502.631 126.126 502.708 126.203Z" fill="white"/>
<g opacity="0.4">
<path opacity="0.4" d="M530.877 40.136C533.369 40.136 535.389 38.1138 535.389 35.6192C535.389 33.1246 533.369 31.1024 530.877 31.1024C528.385 31.1024 526.365 33.1246 526.365 35.6192C526.365 38.1138 528.385 40.136 530.877 40.136Z" fill="white"/>
<path opacity="0.4" d="M549.677 40.136C552.169 40.136 554.189 38.1138 554.189 35.6192C554.189 33.1246 552.169 31.1024 549.677 31.1024C547.185 31.1024 545.165 33.1246 545.165 35.6192C545.165 38.1138 547.185 40.136 549.677 40.136Z" fill="white"/>
<path opacity="0.4" d="M568.477 40.136C570.969 40.136 572.989 38.1138 572.989 35.6192C572.989 33.1246 570.969 31.1024 568.477 31.1024C565.985 31.1024 563.965 33.1246 563.965 35.6192C563.965 38.1138 565.985 40.136 568.477 40.136Z" fill="white"/>
<path opacity="0.4" d="M587.278 40.136C589.77 40.136 591.79 38.1138 591.79 35.6192C591.79 33.1246 589.77 31.1024 587.278 31.1024C584.786 31.1024 582.766 33.1246 582.766 35.6192C582.766 38.1138 584.786 40.136 587.278 40.136Z" fill="white"/>
<path opacity="0.4" d="M606.078 40.136C608.57 40.136 610.59 38.1138 610.59 35.6192C610.59 33.1246 608.57 31.1024 606.078 31.1024C603.586 31.1024 601.566 33.1246 601.566 35.6192C601.566 38.1138 603.586 40.136 606.078 40.136Z" fill="white"/>
<path opacity="0.4" d="M624.878 40.136C627.37 40.136 629.39 38.1138 629.39 35.6192C629.39 33.1246 627.37 31.1024 624.878 31.1024C622.386 31.1024 620.366 33.1246 620.366 35.6192C620.366 38.1138 622.386 40.136 624.878 40.136Z" fill="white"/>
<path opacity="0.4" d="M643.678 40.136C646.17 40.136 648.19 38.1138 648.19 35.6192C648.19 33.1246 646.17 31.1024 643.678 31.1024C641.186 31.1024 639.166 33.1246 639.166 35.6192C639.166 38.1138 641.186 40.136 643.678 40.136Z" fill="white"/>
<path opacity="0.4" d="M530.877 54.4394C533.369 54.4394 535.389 52.4171 535.389 49.9225C535.389 47.428 533.369 45.4057 530.877 45.4057C528.385 45.4057 526.365 47.428 526.365 49.9225C526.365 52.4171 528.385 54.4394 530.877 54.4394Z" fill="white"/>
<path opacity="0.4" d="M549.677 54.4394C552.169 54.4394 554.189 52.4171 554.189 49.9225C554.189 47.428 552.169 45.4057 549.677 45.4057C547.185 45.4057 545.165 47.428 545.165 49.9225C545.165 52.4171 547.185 54.4394 549.677 54.4394Z" fill="white"/>
<path opacity="0.4" d="M568.477 54.4394C570.969 54.4394 572.989 52.4171 572.989 49.9225C572.989 47.428 570.969 45.4057 568.477 45.4057C565.985 45.4057 563.965 47.428 563.965 49.9225C563.965 52.4171 565.985 54.4394 568.477 54.4394Z" fill="white"/>
<path opacity="0.4" d="M587.278 54.4394C589.77 54.4394 591.79 52.4171 591.79 49.9225C591.79 47.428 589.77 45.4057 587.278 45.4057C584.786 45.4057 582.766 47.428 582.766 49.9225C582.766 52.4171 584.786 54.4394 587.278 54.4394Z" fill="white"/>
<path opacity="0.4" d="M606.078 54.4394C608.57 54.4394 610.59 52.4171 610.59 49.9225C610.59 47.428 608.57 45.4057 606.078 45.4057C603.586 45.4057 601.566 47.428 601.566 49.9225C601.566 52.4171 603.586 54.4394 606.078 54.4394Z" fill="white"/>
<path opacity="0.4" d="M624.878 54.4394C627.37 54.4394 629.39 52.4171 629.39 49.9225C629.39 47.428 627.37 45.4057 624.878 45.4057C622.386 45.4057 620.366 47.428 620.366 49.9225C620.366 52.4171 622.386 54.4394 624.878 54.4394Z" fill="white"/>
<path opacity="0.4" d="M643.678 54.4394C646.17 54.4394 648.19 52.4171 648.19 49.9225C648.19 47.428 646.17 45.4057 643.678 45.4057C641.186 45.4057 639.166 47.428 639.166 49.9225C639.166 52.4171 641.186 54.4394 643.678 54.4394Z" fill="white"/>
<path opacity="0.4" d="M530.877 68.7427C533.369 68.7427 535.389 66.7204 535.389 64.2259C535.389 61.7313 533.369 59.709 530.877 59.709C528.385 59.709 526.365 61.7313 526.365 64.2259C526.365 66.7204 528.385 68.7427 530.877 68.7427Z" fill="white"/>
<path opacity="0.4" d="M549.677 68.7427C552.169 68.7427 554.189 66.7204 554.189 64.2259C554.189 61.7313 552.169 59.709 549.677 59.709C547.185 59.709 545.165 61.7313 545.165 64.2259C545.165 66.7204 547.185 68.7427 549.677 68.7427Z" fill="white"/>
<path opacity="0.4" d="M568.477 68.7427C570.969 68.7427 572.989 66.7204 572.989 64.2259C572.989 61.7313 570.969 59.709 568.477 59.709C565.985 59.709 563.965 61.7313 563.965 64.2259C563.965 66.7204 565.985 68.7427 568.477 68.7427Z" fill="white"/>
<path opacity="0.4" d="M587.278 68.7427C589.77 68.7427 591.79 66.7204 591.79 64.2259C591.79 61.7313 589.77 59.709 587.278 59.709C584.786 59.709 582.766 61.7313 582.766 64.2259C582.766 66.7204 584.786 68.7427 587.278 68.7427Z" fill="white"/>
<path opacity="0.4" d="M606.078 68.7427C608.57 68.7427 610.59 66.7204 610.59 64.2259C610.59 61.7313 608.57 59.709 606.078 59.709C603.586 59.709 601.566 61.7313 601.566 64.2259C601.566 66.7204 603.586 68.7427 606.078 68.7427Z" fill="white"/>
<path opacity="0.4" d="M624.878 68.7427C627.37 68.7427 629.39 66.7204 629.39 64.2259C629.39 61.7313 627.37 59.709 624.878 59.709C622.386 59.709 620.366 61.7313 620.366 64.2259C620.366 66.7204 622.386 68.7427 624.878 68.7427Z" fill="white"/>
<path opacity="0.4" d="M643.678 68.7427C646.17 68.7427 648.19 66.7204 648.19 64.2259C648.19 61.7313 646.17 59.709 643.678 59.709C641.186 59.709 639.166 61.7313 639.166 64.2259C639.166 66.7204 641.186 68.7427 643.678 68.7427Z" fill="white"/>
<path opacity="0.4" d="M530.877 83.046C533.369 83.046 535.389 81.0238 535.389 78.5292C535.389 76.0346 533.369 74.0124 530.877 74.0124C528.385 74.0124 526.365 76.0346 526.365 78.5292C526.365 81.0238 528.385 83.046 530.877 83.046Z" fill="white"/>
<path opacity="0.4" d="M549.677 83.046C552.169 83.046 554.189 81.0238 554.189 78.5292C554.189 76.0346 552.169 74.0124 549.677 74.0124C547.185 74.0124 545.165 76.0346 545.165 78.5292C545.165 81.0238 547.185 83.046 549.677 83.046Z" fill="white"/>
<path opacity="0.4" d="M530.877 97.3493C533.369 97.3493 535.389 95.3271 535.389 92.8325C535.389 90.3379 533.369 88.3157 530.877 88.3157C528.385 88.3157 526.365 90.3379 526.365 92.8325C526.365 95.3271 528.385 97.3493 530.877 97.3493Z" fill="white"/>
<path opacity="0.4" d="M549.677 97.3493C552.169 97.3493 554.189 95.3271 554.189 92.8325C554.189 90.3379 552.169 88.3157 549.677 88.3157C547.185 88.3157 545.165 90.3379 545.165 92.8325C545.165 95.3271 547.185 97.3493 549.677 97.3493Z" fill="white"/>
<path opacity="0.4" d="M568.477 97.3493C570.969 97.3493 572.989 95.3271 572.989 92.8325C572.989 90.3379 570.969 88.3157 568.477 88.3157C565.985 88.3157 563.965 90.3379 563.965 92.8325C563.965 95.3271 565.985 97.3493 568.477 97.3493Z" fill="white"/>
<path opacity="0.4" d="M568.477 83.046C570.969 83.046 572.989 81.0238 572.989 78.5292C572.989 76.0346 570.969 74.0124 568.477 74.0124C565.985 74.0124 563.965 76.0346 563.965 78.5292C563.965 81.0238 565.985 83.046 568.477 83.046Z" fill="white"/>
<path opacity="0.4" d="M587.278 83.046C589.77 83.046 591.79 81.0238 591.79 78.5292C591.79 76.0346 589.77 74.0124 587.278 74.0124C584.786 74.0124 582.766 76.0346 582.766 78.5292C582.766 81.0238 584.786 83.046 587.278 83.046Z" fill="white"/>
<path opacity="0.4" d="M606.078 83.046C608.57 83.046 610.59 81.0238 610.59 78.5292C610.59 76.0346 608.57 74.0124 606.078 74.0124C603.586 74.0124 601.566 76.0346 601.566 78.5292C601.566 81.0238 603.586 83.046 606.078 83.046Z" fill="white"/>
<path opacity="0.4" d="M624.878 83.046C627.37 83.046 629.39 81.0238 629.39 78.5292C629.39 76.0346 627.37 74.0124 624.878 74.0124C622.386 74.0124 620.366 76.0346 620.366 78.5292C620.366 81.0238 622.386 83.046 624.878 83.046Z" fill="white"/>
<path opacity="0.4" d="M643.678 83.046C646.17 83.046 648.19 81.0238 648.19 78.5292C648.19 76.0346 646.17 74.0124 643.678 74.0124C641.186 74.0124 639.166 76.0346 639.166 78.5292C639.166 81.0238 641.186 83.046 643.678 83.046Z" fill="white"/>
</g>
<path d="M466.152 265.401C461.226 265.401 456.41 263.939 452.314 261.2C448.219 258.46 445.026 254.566 443.141 250.01C441.256 245.454 440.763 240.441 441.724 235.604C442.685 230.768 445.057 226.325 448.54 222.838C452.023 219.351 456.461 216.976 461.293 216.014C466.124 215.052 471.132 215.546 475.683 217.433C480.234 219.32 484.124 222.516 486.861 226.616C489.598 230.716 491.058 235.537 491.058 240.468C491.051 247.079 488.424 253.416 483.755 258.09C479.086 262.765 472.755 265.394 466.152 265.401ZM466.152 216.949C461.505 216.949 456.963 218.328 453.099 220.913C449.235 223.497 446.224 227.17 444.446 231.468C442.668 235.765 442.202 240.494 443.109 245.057C444.015 249.619 446.253 253.81 449.539 257.099C452.825 260.388 457.011 262.628 461.568 263.536C466.126 264.443 470.85 263.978 475.143 262.197C479.436 260.417 483.105 257.403 485.687 253.535C488.268 249.667 489.646 245.12 489.646 240.468C489.639 234.233 487.162 228.255 482.757 223.845C478.353 219.436 472.381 216.956 466.152 216.949Z" fill="#3F3D56"/>
<path d="M475.701 238.078H468.539V230.909C468.539 230.275 468.288 229.667 467.84 229.219C467.392 228.771 466.785 228.519 466.152 228.519C465.519 228.519 464.912 228.771 464.464 229.219C464.016 229.667 463.765 230.275 463.765 230.909V238.078H456.603C455.97 238.078 455.363 238.33 454.915 238.778C454.467 239.227 454.216 239.834 454.216 240.468C454.216 241.102 454.467 241.71 454.915 242.158C455.363 242.606 455.97 242.858 456.603 242.858H463.765V250.027C463.765 250.661 464.016 251.269 464.464 251.717C464.912 252.165 465.519 252.417 466.152 252.417C466.785 252.417 467.392 252.165 467.84 251.717C468.288 251.269 468.539 250.661 468.539 250.027V242.858H475.701C476.334 242.858 476.941 242.606 477.389 242.158C477.837 241.71 478.088 241.102 478.088 240.468C478.088 239.834 477.837 239.227 477.389 238.778C476.941 238.33 476.334 238.078 475.701 238.078Z" fill="white"/>
<g opacity="0.4">
<path opacity="0.4" d="M38.1475 268.462C40.1067 268.462 41.695 266.873 41.695 264.911C41.695 262.95 40.1067 261.36 38.1475 261.36C36.1883 261.36 34.6 262.95 34.6 264.911C34.6 266.873 36.1883 268.462 38.1475 268.462Z" fill="white"/>
<path opacity="0.4" d="M38.1475 253.666C40.1067 253.666 41.695 252.076 41.695 250.114C41.695 248.153 40.1067 246.563 38.1475 246.563C36.1883 246.563 34.6 248.153 34.6 250.114C34.6 252.076 36.1883 253.666 38.1475 253.666Z" fill="white"/>
<path opacity="0.4" d="M38.1475 238.869C40.1067 238.869 41.695 237.279 41.695 235.317C41.695 233.356 40.1067 231.766 38.1475 231.766C36.1883 231.766 34.6 233.356 34.6 235.317C34.6 237.279 36.1883 238.869 38.1475 238.869Z" fill="white"/>
<path opacity="0.4" d="M38.1475 224.072C40.1067 224.072 41.695 222.482 41.695 220.52C41.695 218.559 40.1067 216.969 38.1475 216.969C36.1883 216.969 34.6 218.559 34.6 220.52C34.6 222.482 36.1883 224.072 38.1475 224.072Z" fill="white"/>
<path opacity="0.4" d="M38.1475 209.275C40.1067 209.275 41.695 207.685 41.695 205.724C41.695 203.762 40.1067 202.172 38.1475 202.172C36.1883 202.172 34.6 203.762 34.6 205.724C34.6 207.685 36.1883 209.275 38.1475 209.275Z" fill="white"/>
<path opacity="0.4" d="M38.1475 194.478C40.1067 194.478 41.695 192.888 41.695 190.927C41.695 188.965 40.1067 187.375 38.1475 187.375C36.1883 187.375 34.6 188.965 34.6 190.927C34.6 192.888 36.1883 194.478 38.1475 194.478Z" fill="white"/>
<path opacity="0.4" d="M38.1475 179.681C40.1067 179.681 41.695 178.091 41.695 176.13C41.695 174.168 40.1067 172.578 38.1475 172.578C36.1883 172.578 34.6 174.168 34.6 176.13C34.6 178.091 36.1883 179.681 38.1475 179.681Z" fill="white"/>
<path opacity="0.4" d="M49.3812 268.462C51.3405 268.462 52.9287 266.873 52.9287 264.911C52.9287 262.95 51.3405 261.36 49.3812 261.36C47.422 261.36 45.8337 262.95 45.8337 264.911C45.8337 266.873 47.422 268.462 49.3812 268.462Z" fill="white"/>
<path opacity="0.4" d="M49.3812 253.666C51.3405 253.666 52.9287 252.076 52.9287 250.114C52.9287 248.153 51.3405 246.563 49.3812 246.563C47.422 246.563 45.8337 248.153 45.8337 250.114C45.8337 252.076 47.422 253.666 49.3812 253.666Z" fill="white"/>
<path opacity="0.4" d="M49.3812 238.869C51.3405 238.869 52.9287 237.279 52.9287 235.317C52.9287 233.356 51.3405 231.766 49.3812 231.766C47.422 231.766 45.8337 233.356 45.8337 235.317C45.8337 237.279 47.422 238.869 49.3812 238.869Z" fill="white"/>
<path opacity="0.4" d="M49.3812 224.072C51.3405 224.072 52.9287 222.482 52.9287 220.52C52.9287 218.559 51.3405 216.969 49.3812 216.969C47.422 216.969 45.8337 218.559 45.8337 220.52C45.8337 222.482 47.422 224.072 49.3812 224.072Z" fill="white"/>
<path opacity="0.4" d="M49.3812 209.275C51.3405 209.275 52.9287 207.685 52.9287 205.724C52.9287 203.762 51.3405 202.172 49.3812 202.172C47.422 202.172 45.8337 203.762 45.8337 205.724C45.8337 207.685 47.422 209.275 49.3812 209.275Z" fill="white"/>
<path opacity="0.4" d="M49.3812 194.478C51.3405 194.478 52.9287 192.888 52.9287 190.927C52.9287 188.965 51.3405 187.375 49.3812 187.375C47.422 187.375 45.8337 188.965 45.8337 190.927C45.8337 192.888 47.422 194.478 49.3812 194.478Z" fill="white"/>
<path opacity="0.4" d="M49.3812 179.681C51.3405 179.681 52.9287 178.091 52.9287 176.13C52.9287 174.168 51.3405 172.578 49.3812 172.578C47.422 172.578 45.8337 174.168 45.8337 176.13C45.8337 178.091 47.422 179.681 49.3812 179.681Z" fill="white"/>
<path opacity="0.4" d="M60.615 268.462C62.5742 268.462 64.1625 266.873 64.1625 264.911C64.1625 262.95 62.5742 261.36 60.615 261.36C58.6557 261.36 57.0675 262.95 57.0675 264.911C57.0675 266.873 58.6557 268.462 60.615 268.462Z" fill="white"/>
<path opacity="0.4" d="M60.615 253.666C62.5742 253.666 64.1625 252.076 64.1625 250.114C64.1625 248.153 62.5742 246.563 60.615 246.563C58.6557 246.563 57.0675 248.153 57.0675 250.114C57.0675 252.076 58.6557 253.666 60.615 253.666Z" fill="white"/>
<path opacity="0.4" d="M60.615 238.869C62.5742 238.869 64.1625 237.279 64.1625 235.317C64.1625 233.356 62.5742 231.766 60.615 231.766C58.6557 231.766 57.0675 233.356 57.0675 235.317C57.0675 237.279 58.6557 238.869 60.615 238.869Z" fill="white"/>
<path opacity="0.4" d="M60.615 224.072C62.5742 224.072 64.1625 222.482 64.1625 220.52C64.1625 218.559 62.5742 216.969 60.615 216.969C58.6557 216.969 57.0675 218.559 57.0675 220.52C57.0675 222.482 58.6557 224.072 60.615 224.072Z" fill="white"/>
<path opacity="0.4" d="M60.615 209.275C62.5742 209.275 64.1625 207.685 64.1625 205.724C64.1625 203.762 62.5742 202.172 60.615 202.172C58.6557 202.172 57.0675 203.762 57.0675 205.724C57.0675 207.685 58.6557 209.275 60.615 209.275Z" fill="white"/>
<path opacity="0.4" d="M60.615 194.478C62.5742 194.478 64.1625 192.888 64.1625 190.927C64.1625 188.965 62.5742 187.375 60.615 187.375C58.6557 187.375 57.0675 188.965 57.0675 190.927C57.0675 192.888 58.6557 194.478 60.615 194.478Z" fill="white"/>
<path opacity="0.4" d="M60.615 179.681C62.5742 179.681 64.1625 178.091 64.1625 176.13C64.1625 174.168 62.5742 172.578 60.615 172.578C58.6557 172.578 57.0675 174.168 57.0675 176.13C57.0675 178.091 58.6557 179.681 60.615 179.681Z" fill="white"/>
<path opacity="0.4" d="M71.8487 268.462C73.8079 268.462 75.3962 266.873 75.3962 264.911C75.3962 262.95 73.8079 261.36 71.8487 261.36C69.8895 261.36 68.3012 262.95 68.3012 264.911C68.3012 266.873 69.8895 268.462 71.8487 268.462Z" fill="white"/>
<path opacity="0.4" d="M71.8487 253.666C73.8079 253.666 75.3962 252.076 75.3962 250.114C75.3962 248.153 73.8079 246.563 71.8487 246.563C69.8895 246.563 68.3012 248.153 68.3012 250.114C68.3012 252.076 69.8895 253.666 71.8487 253.666Z" fill="white"/>
<path opacity="0.4" d="M83.0824 268.462C85.0417 268.462 86.6299 266.873 86.6299 264.911C86.6299 262.95 85.0417 261.36 83.0824 261.36C81.1232 261.36 79.535 262.95 79.535 264.911C79.535 266.873 81.1232 268.462 83.0824 268.462Z" fill="white"/>
<path opacity="0.4" d="M83.0824 253.666C85.0417 253.666 86.6299 252.076 86.6299 250.114C86.6299 248.153 85.0417 246.563 83.0824 246.563C81.1232 246.563 79.535 248.153 79.535 250.114C79.535 252.076 81.1232 253.666 83.0824 253.666Z" fill="white"/>
<path opacity="0.4" d="M83.0824 238.869C85.0417 238.869 86.6299 237.279 86.6299 235.317C86.6299 233.356 85.0417 231.766 83.0824 231.766C81.1232 231.766 79.535 233.356 79.535 235.317C79.535 237.279 81.1232 238.869 83.0824 238.869Z" fill="white"/>
<path opacity="0.4" d="M71.8487 238.869C73.8079 238.869 75.3962 237.279 75.3962 235.317C75.3962 233.356 73.8079 231.766 71.8487 231.766C69.8895 231.766 68.3012 233.356 68.3012 235.317C68.3012 237.279 69.8895 238.869 71.8487 238.869Z" fill="white"/>
<path opacity="0.4" d="M71.8487 224.072C73.8079 224.072 75.3962 222.482 75.3962 220.52C75.3962 218.559 73.8079 216.969 71.8487 216.969C69.8895 216.969 68.3012 218.559 68.3012 220.52C68.3012 222.482 69.8895 224.072 71.8487 224.072Z" fill="white"/>
<path opacity="0.4" d="M71.8487 209.275C73.8079 209.275 75.3962 207.685 75.3962 205.724C75.3962 203.762 73.8079 202.172 71.8487 202.172C69.8895 202.172 68.3012 203.762 68.3012 205.724C68.3012 207.685 69.8895 209.275 71.8487 209.275Z" fill="white"/>
<path opacity="0.4" d="M71.8487 194.478C73.8079 194.478 75.3962 192.888 75.3962 190.927C75.3962 188.965 73.8079 187.375 71.8487 187.375C69.8895 187.375 68.3012 188.965 68.3012 190.927C68.3012 192.888 69.8895 194.478 71.8487 194.478Z" fill="white"/>
<path opacity="0.4" d="M71.8487 179.681C73.8079 179.681 75.3962 178.091 75.3962 176.13C75.3962 174.168 73.8079 172.578 71.8487 172.578C69.8895 172.578 68.3012 174.168 68.3012 176.13C68.3012 178.091 69.8895 179.681 71.8487 179.681Z" fill="white"/>
</g>
<path d="M351.231 23.3283H115.568C114.411 23.3295 113.301 23.7903 112.483 24.6096C111.664 25.4289 111.204 26.5398 111.203 27.6985V229.428C111.204 230.587 111.664 231.697 112.483 232.517C113.301 233.336 114.411 233.797 115.568 233.798H351.231C352.389 233.797 353.498 233.336 354.317 232.517C355.135 231.697 355.596 230.587 355.597 229.428V27.6985C355.596 26.5398 355.135 25.4289 354.317 24.6096C353.498 23.7903 352.389 23.3295 351.231 23.3283ZM353.847 229.428C353.847 230.123 353.571 230.79 353.081 231.282C352.591 231.775 351.926 232.052 351.231 232.055H115.568C114.874 232.054 114.208 231.776 113.717 231.284C113.226 230.791 112.951 230.124 112.952 229.428V27.6985C112.951 27.0028 113.226 26.3353 113.717 25.8426C114.208 25.35 114.874 25.0726 115.568 25.0715H351.231C351.926 25.074 352.591 25.3518 353.081 25.8441C353.571 26.3365 353.847 27.0033 353.847 27.6985V229.428Z" fill="#3F3D56"/>
<path d="M169.965 197.929C169.965 198.24 169.957 198.551 169.941 198.853C169.703 203.406 167.729 207.694 164.426 210.832C161.123 213.97 156.743 215.72 152.189 215.72C147.635 215.72 143.254 213.97 139.951 210.832C136.648 207.694 134.674 203.406 134.437 198.853C134.42 198.551 134.412 198.24 134.412 197.929C134.411 195.591 134.869 193.275 135.762 191.115C136.655 188.955 137.964 186.992 139.615 185.338C141.266 183.684 143.226 182.373 145.383 181.478C147.541 180.583 149.853 180.122 152.189 180.122C154.524 180.122 156.837 180.583 158.994 181.478C161.152 182.373 163.112 183.684 164.763 185.338C166.414 186.992 167.723 188.955 168.615 191.115C169.508 193.275 169.967 195.591 169.965 197.929Z" fill="white"/>
<path d="M332.919 186.062H193.24C192.455 186.063 191.702 186.376 191.147 186.933C190.593 187.489 190.281 188.243 190.281 189.029C190.281 189.815 190.593 190.569 191.147 191.125C191.702 191.681 192.455 191.994 193.24 191.995H332.919C333.704 191.994 334.457 191.681 335.012 191.125C335.566 190.569 335.878 189.815 335.878 189.029C335.878 188.243 335.566 187.489 335.012 186.933C334.457 186.376 333.704 186.063 332.919 186.062Z" fill="#3F3D56"/>
<path d="M253.343 203.862H193.24C192.455 203.862 191.702 204.174 191.147 204.73C190.592 205.285 190.28 206.039 190.28 206.824C190.28 207.61 190.592 208.364 191.147 208.919C191.702 209.475 192.455 209.787 193.24 209.787H253.343C254.128 209.787 254.881 209.475 255.436 208.919C255.991 208.364 256.302 207.61 256.302 206.824C256.302 206.039 255.991 205.285 255.436 204.73C254.881 204.174 254.128 203.862 253.343 203.862Z" fill="white"/>
<path d="M407.22 165.112H171.558C169.958 165.11 168.423 164.473 167.291 163.34C166.16 162.207 165.523 160.671 165.522 159.068V55.5385C165.523 53.9363 166.16 52.4003 167.292 51.2673C168.423 50.1344 169.958 49.4971 171.558 49.4952H407.22C408.82 49.4971 410.354 50.1344 411.486 51.2673C412.618 52.4003 413.254 53.9363 413.256 55.5385V159.068C413.254 160.67 412.618 162.207 411.486 163.34C410.355 164.473 408.82 165.11 407.22 165.112ZM171.558 51.6158C170.519 51.617 169.523 52.0307 168.789 52.7661C168.054 53.5015 167.641 54.4985 167.64 55.5385V159.068C167.641 160.108 168.054 161.105 168.789 161.841C169.523 162.576 170.519 162.99 171.558 162.991H407.22C408.259 162.99 409.254 162.576 409.989 161.841C410.724 161.105 411.137 160.108 411.138 159.068V55.5385C411.137 54.4985 410.724 53.5015 409.989 52.7661C409.254 52.0307 408.258 51.617 407.22 51.6158H171.558Z" fill="white"/>
<path d="M219.551 87.2559C218.765 87.2559 218.011 87.5684 217.456 88.1246C216.9 88.6808 216.588 89.4352 216.588 90.2219C216.588 91.0085 216.9 91.7629 217.456 92.3191C218.011 92.8753 218.765 93.1878 219.551 93.1878H359.227C360.013 93.1878 360.766 92.8753 361.322 92.3191C361.877 91.7629 362.19 91.0085 362.19 90.2219C362.19 89.4352 361.877 88.6808 361.322 88.1246C360.766 87.5684 360.013 87.2559 359.227 87.2559H219.551Z" fill="white"/>
<path d="M219.551 104.442C218.765 104.442 218.011 104.754 217.456 105.31C216.9 105.867 216.588 106.621 216.588 107.408C216.588 108.194 216.9 108.949 217.456 109.505C218.011 110.061 218.765 110.374 219.551 110.374H359.227C360.012 110.372 360.764 110.059 361.319 109.503C361.874 108.947 362.185 108.194 362.185 107.408C362.185 106.622 361.874 105.868 361.319 105.312C360.764 104.756 360.012 104.443 359.227 104.442H219.551Z" fill="white"/>
<path d="M219.551 121.419C218.765 121.419 218.011 121.732 217.456 122.288C216.9 122.844 216.588 123.599 216.588 124.385C216.588 125.172 216.9 125.926 217.456 126.482C218.011 127.039 218.765 127.351 219.551 127.351H279.654C280.439 127.35 281.191 127.037 281.746 126.481C282.3 125.925 282.612 125.171 282.612 124.385C282.612 123.599 282.3 122.846 281.746 122.29C281.191 121.733 280.439 121.42 279.654 121.419H219.551Z" fill="white"/>
<path d="M446.074 208.975L422.405 175.534L430.067 177.133C430.204 177.161 430.344 177.162 430.481 177.136C430.618 177.11 430.748 177.058 430.864 176.981C430.981 176.905 431.081 176.806 431.159 176.691C431.238 176.576 431.293 176.447 431.321 176.31C431.35 176.174 431.351 176.033 431.325 175.896C431.299 175.759 431.246 175.629 431.17 175.512C431.094 175.396 430.995 175.295 430.88 175.217C430.765 175.138 430.636 175.083 430.5 175.055L419.081 172.675L417.54 184.247C417.521 184.386 417.53 184.526 417.565 184.661C417.601 184.796 417.663 184.923 417.747 185.034C417.832 185.145 417.938 185.238 418.058 185.308C418.179 185.378 418.312 185.424 418.45 185.442C418.589 185.461 418.729 185.452 418.864 185.416C418.999 185.38 419.125 185.317 419.236 185.232C419.346 185.147 419.439 185.041 419.509 184.921C419.578 184.8 419.623 184.666 419.641 184.528L420.675 176.757L444.346 210.201C444.427 210.314 444.529 210.411 444.646 210.485C444.764 210.559 444.895 210.609 445.032 210.633C445.169 210.656 445.31 210.652 445.445 210.621C445.581 210.59 445.709 210.533 445.823 210.453C445.936 210.372 446.032 210.27 446.107 210.152C446.181 210.034 446.231 209.903 446.254 209.766C446.278 209.629 446.274 209.488 446.243 209.352C446.212 209.217 446.155 209.088 446.074 208.975V208.975Z" fill="white"/>
<path d="M317.519 306.302H149.281C148.455 306.301 147.663 305.972 147.079 305.388C146.495 304.803 146.166 304.01 146.165 303.183V261.406C146.166 260.579 146.495 259.787 147.079 259.202C147.663 258.617 148.455 258.288 149.281 258.287H317.519C318.345 258.288 319.137 258.617 319.721 259.202C320.305 259.787 320.634 260.579 320.635 261.406V303.183C320.634 304.01 320.305 304.803 319.721 305.388C319.137 305.972 318.345 306.301 317.519 306.302ZM149.281 259.535C148.785 259.535 148.31 259.733 147.959 260.084C147.609 260.434 147.412 260.91 147.411 261.406V303.183C147.412 303.679 147.609 304.155 147.959 304.506C148.31 304.857 148.785 305.054 149.281 305.055H317.519C318.015 305.054 318.49 304.857 318.84 304.506C319.191 304.155 319.388 303.679 319.389 303.183V261.406C319.388 260.91 319.191 260.434 318.84 260.084C318.49 259.733 318.015 259.535 317.519 259.535H149.281Z" fill="#3F3D56"/>
<path d="M175.421 293.396C182.43 293.396 188.112 287.708 188.112 280.692C188.112 273.675 182.43 267.987 175.421 267.987C168.412 267.987 162.73 273.675 162.73 280.692C162.73 287.708 168.412 293.396 175.421 293.396Z" fill="white"/>
<path d="M204.732 272.222C204.453 272.222 204.178 272.276 203.921 272.382C203.664 272.488 203.43 272.644 203.233 272.841C203.037 273.038 202.88 273.271 202.774 273.528C202.667 273.785 202.613 274.061 202.613 274.34C202.613 274.618 202.667 274.894 202.774 275.151C202.88 275.408 203.037 275.641 203.233 275.838C203.43 276.035 203.664 276.191 203.921 276.297C204.178 276.403 204.453 276.457 204.732 276.457H304.447C305.008 276.457 305.546 276.234 305.942 275.837C306.339 275.44 306.562 274.901 306.562 274.34C306.562 273.778 306.339 273.239 305.942 272.842C305.546 272.445 305.008 272.222 304.447 272.222H204.732Z" fill="white"/>
<path d="M204.732 284.927C204.453 284.926 204.178 284.98 203.921 285.087C203.664 285.193 203.43 285.349 203.233 285.545C203.037 285.742 202.88 285.976 202.774 286.233C202.667 286.49 202.613 286.766 202.613 287.044C202.613 287.322 202.667 287.598 202.774 287.855C202.88 288.112 203.037 288.346 203.233 288.543C203.43 288.739 203.664 288.895 203.921 289.001C204.178 289.107 204.453 289.162 204.732 289.161H247.639C248.2 289.161 248.738 288.938 249.135 288.541C249.532 288.144 249.754 287.606 249.754 287.044C249.754 286.482 249.532 285.944 249.135 285.547C248.738 285.15 248.2 284.927 247.639 284.927H204.732Z" fill="white"/>
<path d="M539.495 157.46H614.268C615.094 157.461 615.886 157.79 616.47 158.374C617.054 158.959 617.382 159.752 617.383 160.579V238.534C617.382 239.361 617.054 240.154 616.47 240.739C615.886 241.323 615.094 241.652 614.268 241.653H539.495C538.669 241.652 537.877 241.323 537.293 240.739C536.709 240.154 536.38 239.361 536.379 238.534V160.579C536.38 159.752 536.709 158.959 537.293 158.374C537.877 157.79 538.669 157.461 539.495 157.46ZM614.268 240.406C614.763 240.405 615.239 240.208 615.589 239.857C615.939 239.506 616.137 239.03 616.137 238.534V160.579C616.137 160.083 615.939 159.607 615.589 159.256C615.239 158.905 614.763 158.708 614.268 158.707H539.495C538.999 158.708 538.524 158.905 538.174 159.256C537.823 159.607 537.626 160.083 537.626 160.579V238.534C537.626 239.03 537.823 239.506 538.174 239.857C538.524 240.208 538.999 240.405 539.495 240.406H614.268Z" fill="#3F3D56"/>
<path d="M598.335 225.577C598.896 225.577 599.434 225.354 599.831 224.957C600.227 224.56 600.45 224.021 600.45 223.46C600.45 222.898 600.227 222.36 599.831 221.963C599.434 221.565 598.896 221.342 598.335 221.342H555.427C554.866 221.342 554.328 221.565 553.932 221.963C553.535 222.36 553.312 222.898 553.312 223.46C553.312 224.021 553.535 224.56 553.932 224.957C554.328 225.354 554.866 225.577 555.427 225.577H598.335Z" fill="white"/>
<path d="M598.335 213.102C598.613 213.102 598.889 213.048 599.146 212.942C599.403 212.836 599.636 212.68 599.833 212.483C600.03 212.286 600.186 212.053 600.293 211.796C600.399 211.539 600.454 211.263 600.454 210.984C600.454 210.706 600.399 210.43 600.293 210.173C600.186 209.916 600.03 209.683 599.833 209.486C599.636 209.289 599.403 209.133 599.146 209.027C598.889 208.921 598.613 208.867 598.335 208.867H555.427C555.149 208.867 554.874 208.921 554.617 209.027C554.36 209.133 554.126 209.289 553.929 209.486C553.733 209.683 553.576 209.916 553.47 210.173C553.363 210.43 553.308 210.706 553.308 210.984C553.308 211.263 553.363 211.539 553.47 211.796C553.576 212.053 553.733 212.286 553.929 212.483C554.126 212.68 554.36 212.836 554.617 212.942C554.874 213.048 555.149 213.102 555.427 213.102H598.335Z" fill="white"/>
<path d="M576.881 173.536C579.514 173.536 582.089 174.317 584.278 175.782C586.468 177.246 588.174 179.328 589.182 181.763C590.189 184.199 590.453 186.879 589.939 189.464C589.426 192.049 588.158 194.424 586.296 196.288C584.434 198.152 582.061 199.422 579.479 199.936C576.896 200.45 574.219 200.186 571.786 199.177C569.353 198.169 567.274 196.46 565.811 194.269C564.348 192.077 563.567 189.5 563.567 186.864C563.571 183.33 564.975 179.942 567.471 177.444C569.967 174.945 573.351 173.54 576.881 173.536Z" fill="white"/>
</g>
<defs>
<clipPath id="clip0">
<rect width="692" height="346" fill="white"/>
</clipPath>
</defs>
</svg>
