<svg width="261" height="63" viewBox="0 0 261 63" fill="none" xmlns="http://www.w3.org/2000/svg">
<path d="M70.26 17.392H84.148V21.312H79.136V38H75.076V21.312H70.26V17.392ZM93.5822 24.728L93.4702 25.764L94.0863 24.98L100.806 17.392H106.07L97.5582 26.632L106.098 38H100.946L94.5903 29.208L93.5822 30.216V38H89.4662V17.392H93.5822V24.728ZM159.342 17.392V38H155.282V29.628H146.07V38H142.01V17.392H146.07V25.708H155.282V17.392H159.342ZM164.455 31.728C164.455 30.4773 164.744 29.3573 165.323 28.368C165.92 27.3787 166.751 26.604 167.815 26.044C168.879 25.4653 170.101 25.176 171.483 25.176C172.883 25.176 174.096 25.4653 175.123 26.044C176.149 26.604 176.933 27.3787 177.475 28.368C178.035 29.3573 178.315 30.4773 178.315 31.728C178.315 32.9787 178.035 34.108 177.475 35.116C176.933 36.1053 176.149 36.8893 175.123 37.468C174.096 38.0467 172.864 38.336 171.427 38.336C170.083 38.336 168.879 38.0747 167.815 37.552C166.769 37.0293 165.948 36.2733 165.351 35.284C164.753 34.2947 164.455 33.1093 164.455 31.728ZM168.403 31.756C168.403 32.7267 168.683 33.5387 169.243 34.192C169.803 34.8267 170.512 35.144 171.371 35.144C172.285 35.144 173.013 34.8267 173.555 34.192C174.096 33.5387 174.367 32.7267 174.367 31.756C174.367 30.7853 174.096 29.9827 173.555 29.348C173.013 28.6947 172.285 28.368 171.371 28.368C170.512 28.368 169.803 28.6947 169.243 29.348C168.683 29.9827 168.403 30.7853 168.403 31.756ZM182.803 15.908H186.723V38H182.803V15.908ZM197.144 38.336C196.005 38.336 194.988 38.0747 194.092 37.552C193.196 37.0107 192.486 36.236 191.964 35.228C191.46 34.22 191.208 33.0253 191.208 31.644C191.208 30.2627 191.488 29.0867 192.048 28.116C192.608 27.1453 193.373 26.408 194.344 25.904C195.314 25.4 196.416 25.148 197.648 25.148C198.432 25.148 199.178 25.2693 199.888 25.512C200.616 25.7547 201.222 26.128 201.708 26.632V15.908H205.6V38H201.68V36.712C201.082 37.1787 200.41 37.5707 199.664 37.888C198.917 38.1867 198.077 38.336 197.144 38.336ZM198.432 35.032C199.216 35.032 199.869 34.8827 200.392 34.584C200.914 34.2667 201.344 33.8 201.68 33.184V30.188C201.456 29.5907 201.054 29.1147 200.476 28.76C199.897 28.4053 199.216 28.228 198.432 28.228C197.853 28.228 197.312 28.3773 196.808 28.676C196.322 28.956 195.93 29.348 195.632 29.852C195.333 30.356 195.184 30.9347 195.184 31.588C195.184 32.2413 195.333 32.8293 195.632 33.352C195.93 33.8747 196.322 34.2853 196.808 34.584C197.312 34.8827 197.853 35.032 198.432 35.032ZM211.032 25.764H214.952V38H211.032V25.764ZM210.948 21.424C210.948 20.8453 211.172 20.3693 211.62 19.996C212.087 19.6227 212.582 19.436 213.104 19.436C213.627 19.436 214.103 19.6227 214.532 19.996C214.98 20.3693 215.204 20.8453 215.204 21.424C215.204 22.0027 214.98 22.4787 214.532 22.852C214.103 23.2067 213.627 23.384 213.104 23.384C212.582 23.384 212.087 23.2067 211.62 22.852C211.172 22.4787 210.948 22.0027 210.948 21.424ZM223.945 25.764L224.225 27.724C224.655 26.9587 225.261 26.3427 226.045 25.876C226.829 25.4093 227.781 25.176 228.901 25.176C230.059 25.176 231.02 25.5213 231.785 26.212C232.569 26.884 232.971 27.7613 232.989 28.844V38H229.069V30.3C229.051 29.7587 228.901 29.3293 228.621 29.012C228.36 28.676 227.912 28.508 227.277 28.508C226.363 28.508 225.635 28.9373 225.093 29.796C224.571 30.636 224.309 31.7093 224.309 33.016V38H220.389V25.764H223.945ZM244.742 44.16C243.641 44.16 242.708 44.0293 241.942 43.768C241.196 43.5067 240.561 43.1893 240.038 42.816C239.516 42.4427 239.049 42.088 238.638 41.752L240.934 39.064C241.364 39.456 241.858 39.8293 242.418 40.184C242.997 40.5573 243.753 40.744 244.686 40.744C245.62 40.744 246.432 40.5013 247.122 40.016C247.832 39.5493 248.186 38.8587 248.186 37.944V36.208C247.832 36.7867 247.281 37.2907 246.534 37.72C245.788 38.1307 244.817 38.336 243.622 38.336C242.521 38.336 241.494 38.056 240.542 37.496C239.609 36.9173 238.862 36.1427 238.302 35.172C237.742 34.1827 237.462 33.0627 237.462 31.812C237.462 30.524 237.761 29.3853 238.358 28.396C238.956 27.388 239.73 26.5947 240.682 26.016C241.634 25.4373 242.642 25.148 243.706 25.148C244.77 25.148 245.685 25.3067 246.45 25.624C247.234 25.9227 247.813 26.2867 248.186 26.716L248.494 25.764H252.106V38C252.106 39.1947 251.77 40.2493 251.098 41.164C250.426 42.0973 249.53 42.8253 248.41 43.348C247.309 43.8893 246.086 44.16 244.742 44.16ZM241.41 31.7C241.41 32.6707 241.737 33.492 242.39 34.164C243.044 34.8173 243.846 35.144 244.798 35.144C246.366 35.144 247.496 34.528 248.186 33.296V30.3C247.925 29.7027 247.496 29.2267 246.898 28.872C246.301 28.5173 245.601 28.34 244.798 28.34C243.846 28.34 243.044 28.6573 242.39 29.292C241.737 29.908 241.41 30.7107 241.41 31.7Z" fill="#333333"/>
<path d="M126.037 36.292C125.813 36.4787 125.393 36.7307 124.777 37.048C124.18 37.3653 123.442 37.6453 122.565 37.888C121.688 38.1307 120.717 38.2427 119.653 38.224C118.029 38.1867 116.573 37.8973 115.285 37.356C114.016 36.796 112.933 36.04 112.037 35.088C111.16 34.136 110.488 33.044 110.021 31.812C109.554 30.58 109.321 29.264 109.321 27.864C109.321 25.7733 109.741 23.9253 110.581 22.32C111.421 20.7147 112.588 19.4547 114.081 18.54C115.593 17.6253 117.348 17.168 119.345 17.168C120.726 17.168 121.949 17.3547 123.013 17.728C124.077 18.1013 124.945 18.5027 125.617 18.932L124.021 22.768C123.554 22.4133 122.929 22.0493 122.145 21.676C121.38 21.284 120.493 21.088 119.485 21.088C118.44 21.088 117.46 21.3773 116.545 21.956C115.649 22.5347 114.921 23.3187 114.361 24.308C113.82 25.2787 113.549 26.3893 113.549 27.64C113.549 28.9653 113.801 30.132 114.305 31.14C114.809 32.1293 115.528 32.904 116.461 33.464C117.394 34.024 118.486 34.304 119.737 34.304C120.838 34.304 121.781 34.1267 122.565 33.772C123.349 33.4173 123.946 33.044 124.357 32.652L126.037 36.292ZM255.937 35.984C255.937 35.4053 256.143 34.92 256.553 34.528C256.983 34.136 257.449 33.94 257.953 33.94C258.42 33.94 258.859 34.136 259.269 34.528C259.699 34.92 259.913 35.4053 259.913 35.984C259.913 36.6 259.699 37.0947 259.269 37.468C258.859 37.8227 258.42 38 257.953 38C257.449 38 256.983 37.8227 256.553 37.468C256.143 37.0947 255.937 36.6 255.937 35.984Z" fill="#F50057"/>
<path d="M63 31.5C63 14.103 48.897 0 31.5 0C14.103 0 0 14.103 0 31.5C0 48.897 14.103 63 31.5 63C48.897 63 63 48.897 63 31.5Z" fill="#333333"/>
<path d="M21.2378 20.3885C21.1082 20.2585 20.9541 20.1554 20.7846 20.085C20.615 20.0147 20.4332 19.9785 20.2496 19.9785C20.066 19.9785 19.8842 20.0147 19.7146 20.085C19.545 20.1554 19.391 20.2585 19.2614 20.3885L10.4012 29.2456C10.1402 29.5082 9.99371 29.8635 9.99371 30.2338C9.99371 30.6041 10.1402 30.9594 10.4012 31.222L19.2212 40.042C19.487 40.2851 19.8364 40.4163 20.1965 40.4083C20.5566 40.4002 20.8998 40.2536 21.1545 39.9988C21.4092 39.7441 21.5559 39.401 21.5639 39.0409C21.5719 38.6807 21.4408 38.3314 21.1977 38.0656L13.3659 30.2338L21.2378 22.3742C21.3688 22.2442 21.4728 22.0895 21.5438 21.9191C21.6147 21.7487 21.6512 21.566 21.6512 21.3814C21.6512 21.1968 21.6147 21.014 21.5438 20.8436C21.4728 20.6732 21.3688 20.5185 21.2378 20.3885Z" fill="white"/>
<path d="M52.5772 29.2085L43.7572 20.3885C43.4955 20.1264 43.1404 19.979 42.77 19.9787C42.3997 19.9784 42.0444 20.1253 41.7823 20.3869C41.5202 20.6486 41.3728 21.0037 41.3725 21.3741C41.3722 21.7445 41.519 22.0998 41.7807 22.3619L49.6156 30.1967L41.7437 38.0655C41.5006 38.3314 41.3694 38.6807 41.3774 39.0409C41.3855 39.401 41.5321 39.7441 41.7868 39.9988C42.0415 40.2536 42.3847 40.4002 42.7448 40.4082C43.105 40.4163 43.4543 40.2851 43.7201 40.042L52.5803 31.185C52.842 30.9227 52.989 30.5673 52.989 30.1967C52.989 29.8262 52.842 29.4708 52.5803 29.2085H52.5772Z" fill="white"/>
<path d="M39.0322 20.0179C38.8854 19.908 38.7184 19.828 38.5407 19.7826C38.363 19.7372 38.1781 19.7272 37.9965 19.7533C37.815 19.7794 37.6404 19.8411 37.4826 19.9347C37.3249 20.0283 37.1872 20.1521 37.0774 20.299L23.6651 38.2107C23.5459 38.357 23.4575 38.5258 23.4053 38.7071C23.353 38.8883 23.3379 39.0783 23.361 39.2656C23.384 39.4528 23.4447 39.6335 23.5394 39.7967C23.634 39.9598 23.7607 40.1022 23.9118 40.2152C24.0629 40.3281 24.2353 40.4094 24.4186 40.454C24.6019 40.4986 24.7924 40.5057 24.9785 40.4748C25.1646 40.4439 25.3425 40.3757 25.5016 40.2743C25.6607 40.1728 25.7976 40.0403 25.9041 39.8846L39.3132 21.9728C39.4232 21.826 39.5032 21.659 39.5486 21.4813C39.594 21.3036 39.6039 21.1187 39.5778 20.9371C39.5517 20.7556 39.4901 20.581 39.3965 20.4232C39.3029 20.2655 39.1791 20.1278 39.0322 20.0179Z" fill="#F50057"/>
</svg>
