<svg width="31" height="31" viewBox="0 0 31 31" fill="none" xmlns="http://www.w3.org/2000/svg">
<path d="M15.5 30.0833C7.44584 30.0833 0.916656 23.5541 0.916656 15.5C0.916656 7.44584 7.44584 0.916656 15.5 0.916656C23.5541 0.916656 30.0833 7.44584 30.0833 15.5C30.0745 23.5505 23.5505 30.0745 15.5 30.0833ZM3.83332 15.7508C3.90233 22.1693 9.14327 27.3264 15.562 27.2921C21.9808 27.2574 27.166 22.0443 27.166 15.6254C27.166 9.20656 21.9808 3.99341 15.562 3.95874C9.14327 3.92441 3.90233 9.08152 3.83332 15.5V15.7508ZM12.5833 22.0625V8.93749L21.3333 15.5L12.5833 22.0625Z" fill="#F2F2F2"/>
</svg>