<svg width="495" height="330" viewBox="0 0 495 330" fill="none" xmlns="http://www.w3.org/2000/svg">
<g clip-path="url(#clip0)">
<path opacity="0.1" d="M293.33 53.0239C262.473 51.9529 233.085 42.0097 205.017 31.1289C176.949 20.248 149.158 8.19153 119.041 2.42744C99.6694 -1.28042 77.5185 -1.804 61.909 8.5628C46.8906 18.5583 42.0371 35.7649 39.4244 51.7435C37.4648 63.7714 36.3063 76.4229 41.689 87.6798C45.4222 95.4953 52.0541 102.064 56.6406 109.551C72.5935 135.596 61.3178 167.715 44.0252 193.147C35.9201 205.075 26.5086 216.47 20.2486 229.159C13.9885 241.849 11.0945 256.409 16.5679 269.365C21.9983 282.217 34.9332 291.85 48.9408 298.633C77.3993 312.408 110.921 316.354 143.637 318.586C216.021 323.531 288.796 321.39 361.37 319.248C388.231 318.453 415.207 317.648 441.63 313.503C456.305 311.199 471.457 307.543 482.108 298.747C495.629 287.548 498.981 268.58 489.922 254.538C474.723 230.982 432.71 225.128 422.073 199.849C416.223 185.936 422.23 170.433 430.726 157.529C448.958 129.842 479.514 105.558 481.126 73.9098C482.232 52.1766 467.543 30.4102 444.829 20.1243C421.019 9.3434 388.007 10.6999 370.453 28.5443C352.354 46.898 320.573 53.9663 293.33 53.0239Z" fill="#F50057"/>
<path d="M213.942 310.095C213.466 308.372 212.989 306.629 212.035 305.13C211.151 303.859 210.101 302.711 208.912 301.717C205.456 298.585 201.213 295.406 196.631 296.196C195.214 296.509 193.845 297.008 192.559 297.681C191.892 297.99 191.219 298.3 190.533 298.562C188.6 299.368 186.464 299.554 184.421 299.095C183.372 298.814 182.394 298.309 181.36 297.995C180.868 297.848 180.366 297.74 179.858 297.672C180.858 297.225 181.827 296.714 182.761 296.144C187.901 293.002 192.001 287.324 191.429 281.25C191.234 279.208 190.533 277.252 189.837 275.324L188.006 270.269C187.215 268.08 186.394 265.848 184.95 264.029C183.343 262.002 181.055 260.626 178.69 259.603C173.612 257.399 168.063 256.623 162.584 255.871L162.203 255.819V196.736C162.203 195.726 161.801 194.757 161.086 194.043C160.371 193.329 159.4 192.928 158.389 192.928H151.19C150.872 190.986 150.554 189.047 150.236 187.111C149.33 181.585 148.391 175.959 145.84 170.985C144.171 167.73 141.516 164.621 137.935 163.984C137.232 163.92 136.54 163.76 135.88 163.508C134.831 162.994 134.259 161.851 133.454 161.009C131.375 158.834 127.995 158.8 125.21 157.677C122.75 156.701 120.738 154.864 118.497 153.45C116.256 152.037 113.472 151.032 110.993 151.951C110.993 152.132 110.959 152.313 110.94 152.489L109.348 151.756C107.632 150.961 105.882 150.147 104.504 148.843C102.735 147.177 101.791 144.968 101.057 142.622C100.981 142.379 100.909 142.146 100.833 141.884C103.88 138.78 105.943 134.848 106.764 130.58L107.15 131.831C107.237 132.113 107.339 132.389 107.455 132.66C107.652 133.183 107.981 133.646 108.409 134.007C108.531 134.102 108.666 134.181 108.809 134.24C108.941 134.292 109.079 134.327 109.219 134.345C109.417 134.369 109.618 134.354 109.81 134.302C110.133 134.202 110.429 134.031 110.676 133.802C110.924 133.573 111.117 133.292 111.241 132.979C111.317 132.791 111.373 132.597 111.408 132.398C111.426 132.278 111.437 132.157 111.441 132.036C111.441 131.998 111.441 131.96 111.441 131.922C111.441 131.884 111.441 131.755 111.441 131.674C111.441 131.593 111.441 131.589 111.441 131.541C111.441 131.493 111.441 131.384 111.417 131.303V131.179C111.417 131.084 111.389 130.989 111.369 130.898C111.35 130.808 111.369 130.846 111.369 130.822C111.346 130.703 111.317 130.58 111.293 130.461C111.293 130.432 111.293 130.399 111.293 130.37C111.293 130.342 111.25 130.175 111.226 130.075C111.203 129.975 111.193 129.947 111.179 129.88V129.851C111.131 129.661 111.088 129.475 111.045 129.285C110.699 127.633 110.61 125.938 110.783 124.259C111.068 121.795 111.524 119.353 112.147 116.952L112.247 116.519C112.285 116.353 112.323 116.186 112.356 116.015C112.433 115.672 112.509 115.329 112.58 114.982L112.752 114.106L112.881 113.325V113.225C113.148 111.457 113.204 109.662 113.048 107.88C112.828 105.391 112.056 103.035 110.363 101.159C109.167 99.8314 107.589 98.8509 106.478 97.4563C105.438 96.1521 104.852 94.5433 103.774 93.2629C100.799 89.7169 93.1615 86.9848 88.4748 86.5088C83.1063 85.9662 74.4338 87.337 70.1047 90.5023C68.5028 91.6684 67.4062 93.3581 66.2906 94.9574C64.2404 97.9323 61.9138 100.902 58.6288 102.573C57.3892 103.201 55.9684 103.677 55.1436 104.772C54.6529 105.514 54.3352 106.357 54.2139 107.238C53.5822 110.337 53.2533 113.49 53.2317 116.652C53.2317 117.048 53.2317 117.443 53.2317 117.842C53.2415 119.028 53.4947 120.199 53.9755 121.284C54.0518 121.446 54.1376 121.603 54.2282 121.76L54.2854 121.86C54.8621 122.683 55.3722 123.55 55.8111 124.454C55.9204 124.707 55.9989 124.972 56.0447 125.244C56.1264 125.941 56.0812 126.647 55.9112 127.329C55.9112 127.433 55.8683 127.538 55.8492 127.643L55.8063 127.847C55.8063 127.919 55.8063 127.99 55.7682 128.057C55.73 128.262 55.6967 128.466 55.6681 128.666C55.5958 129.217 55.6314 129.776 55.7729 130.313C55.8382 130.612 55.9663 130.894 56.1488 131.14C56.3312 131.386 56.5639 131.591 56.8314 131.741C57.103 131.871 57.3921 131.961 57.6896 132.008C57.9899 132.06 58.2951 132.093 58.5907 132.16C58.9708 132.246 59.3379 132.382 59.6825 132.564C60.0126 132.722 60.3217 132.92 60.6027 133.155C60.7416 133.281 60.8737 133.414 60.9984 133.554C61.2502 133.842 61.4767 134.151 61.6754 134.478C61.7771 134.646 61.8725 134.817 61.9615 134.992C62.3031 135.681 62.5762 136.401 62.7767 137.143C62.9007 137.586 63.0056 138.033 63.0962 138.481C63.1391 138.681 63.1772 138.881 63.2106 139.076C63.244 139.271 63.2774 139.471 63.306 139.666C63.4361 139.659 63.5645 139.633 63.6874 139.59C64.3882 139.338 64.7792 138.524 64.9985 137.734C65.0367 137.6 65.07 137.472 65.0986 137.343C65.2083 136.867 65.3227 136.344 65.4324 135.844C67.3117 139.828 70.342 143.16 74.1335 145.411C74.267 145.806 74.3957 146.196 74.5101 146.596C75.1347 148.752 75.4351 151.009 74.3528 152.893C73.5804 154.231 72.2836 155.054 70.8342 155.626C70.6252 155.347 70.3564 155.12 70.0475 154.959C68.7936 154.331 67.287 155.092 66.2333 156.03C64.3263 157.753 62.772 160.223 60.2641 160.79C59.3583 160.999 58.3571 160.956 57.6038 161.509C57.1055 161.976 56.6883 162.523 56.3689 163.127C55.8247 163.907 55.0929 164.538 54.2407 164.962C53.3885 165.387 52.4431 165.59 51.4915 165.554C50.619 165.512 49.5844 165.312 48.9885 165.949C48.5451 166.425 48.5117 167.177 48.0349 167.63C47.396 168.258 46.3471 167.953 45.4556 167.915C43.7583 167.844 42.1802 168.939 41.2123 170.343C40.2445 171.747 39.782 173.427 39.3052 175.103V175.131C39.1829 175.22 39.0666 175.317 38.9572 175.421C38.4949 175.913 38.1366 176.493 37.9035 177.125C34.0478 185.889 31.772 195.264 31.181 204.818C31.1904 205.283 31.0857 205.744 30.8759 206.16C30.6626 206.432 30.4282 206.686 30.175 206.922C29.9485 207.199 29.7799 207.518 29.6794 207.861C29.5788 208.204 29.5483 208.564 29.5897 208.919C29.631 209.274 29.7434 209.618 29.9201 209.929C30.0968 210.239 30.3343 210.512 30.6184 210.729C30.7556 210.481 30.9274 210.254 31.1286 210.054C31.0761 210.272 31.0284 210.487 30.9951 210.682C30.8036 212.07 30.786 213.478 30.9426 214.87C31.394 221.483 31.8501 228.092 32.311 234.695C32.4397 236.566 32.5684 238.431 32.74 240.297C33.0738 243.908 33.5506 247.505 34.1704 251.088C34.199 251.249 34.2323 251.416 34.2753 251.564C30.3896 252.796 26.933 255.024 25.4788 258.741C24.9734 260.026 24.7446 261.426 24.1248 262.659C23.443 264.01 22.3226 265.091 21.5788 266.414C20.2963 268.689 20.2391 271.478 20.7063 274.03C21.6074 279.004 24.3012 283.449 27.8579 287.067C27.7006 287.067 27.5385 287.067 27.3811 287.067C26.2191 287.195 25.1036 287.595 24.1248 288.233C16.6013 292.621 12.3008 302.036 13.8694 310.632C14.1793 312.313 14.718 314.017 15.8432 315.297C16.7785 316.315 17.981 317.05 19.3141 317.42C20.1478 317.67 21.0063 317.83 21.8744 317.896C27.7387 318.372 33.4171 315.659 39.2957 315.43C41.2431 315.399 43.1905 315.49 45.1266 315.702C47.9586 315.936 50.7954 316.086 53.637 316.149C58.2569 316.258 60.8554 315.03 63.8018 311.584C64.526 310.727 65.1307 309.776 65.5992 308.757C68.1071 308.614 70.8771 308.395 72.8796 308.233L72.9082 308.51C73.0178 309.461 73.1847 310.556 73.9475 311.156C74.3767 311.451 74.8645 311.651 75.3779 311.741C80.1933 312.922 85.0659 314.121 90.0243 314.121C92.3512 314.074 94.6736 313.896 96.9804 313.588L105.691 312.584C108.229 312.905 110.734 313.45 113.176 314.212C115.694 315.064 118.044 316.33 120.504 317.334C126.226 319.647 132.376 320.476 138.469 321.285C139.509 321.423 140.701 321.518 141.468 320.809C142.46 319.857 142.131 318.267 141.85 316.934C141.735 316.387 141.649 315.84 141.583 315.287C145.694 316.37 149.717 317.764 153.616 319.457L154.298 319.757C154.498 320.795 155.457 321.623 156.377 322.741C156.679 323.213 157.032 323.651 157.43 324.045C157.886 324.34 158.403 324.526 158.942 324.588C165.374 325.784 171.942 326.081 178.456 325.469C179.789 325.287 181.138 325.241 182.48 325.331C183.466 325.465 184.439 325.683 185.388 325.983L190.905 327.563C194.972 328.724 199.134 329.9 203.353 329.638C204.209 329.585 205.059 329.462 205.894 329.272C209.232 328.501 212.34 326.64 213.942 323.646C216.207 319.576 215.163 314.569 213.942 310.095Z" fill="url(#paint0_linear)"/>
<path d="M59.6062 309.166C58.6002 306.882 57.6466 304.254 58.6526 301.97C59.3093 300.624 60.4373 299.566 61.8232 298.995C63.1945 298.437 64.64 298.081 66.1141 297.938C70.7409 297.332 75.4228 297.268 80.0645 297.748C80.403 300.423 79.6879 303.136 79.0728 305.72C78.515 308.1 78.1956 308.453 75.7354 308.576C74.143 308.662 59.9828 310.009 59.6062 309.166Z" fill="#FBBEBE"/>
<path d="M102.063 293.754C139.717 293.754 170.241 285.23 170.241 274.715C170.241 264.2 139.717 255.676 102.063 255.676C64.4089 255.676 33.8843 264.2 33.8843 274.715C33.8843 285.23 64.4089 293.754 102.063 293.754Z" fill="#464353"/>
<path opacity="0.1" d="M102.063 293.754C139.717 293.754 170.241 285.23 170.241 274.715C170.241 264.2 139.717 255.676 102.063 255.676C64.4089 255.676 33.8843 264.2 33.8843 274.715C33.8843 285.23 64.4089 293.754 102.063 293.754Z" fill="black"/>
<path d="M114.287 174.208C111.95 178.716 108.069 182.236 103.35 184.127C100.564 185.141 97.6321 185.697 94.668 185.774C91.4307 185.922 88.1267 185.712 85.0849 184.608C81.0037 183.132 77.6138 180.115 75.0726 176.597C72.5314 173.08 70.7817 169.062 69.2608 165.012C68.4598 162.903 67.697 160.657 68.0736 158.429C70.529 157.872 73.218 157.054 74.4862 154.878C75.5685 153.013 75.2681 150.775 74.6435 148.643C74.4671 148.039 74.2621 147.439 74.0571 146.863C73.5803 145.483 71.9355 142.86 73.1036 141.68C73.833 140.932 76.8891 140.551 77.9428 140.066C81.1896 138.571 84.1838 136.41 87.75 135.701C90.8348 135.087 94.0196 135.663 97.0995 136.301C97.5081 136.36 97.9005 136.501 98.2533 136.715C98.6557 137.054 98.9533 137.499 99.1115 138C99.9888 140.133 100.504 142.489 101.209 144.711C101.944 147.039 102.888 149.224 104.656 150.875C106.034 152.165 107.789 152.974 109.505 153.76L113.729 155.692C114.481 155.973 115.162 156.413 115.727 156.982C116.279 157.74 116.61 158.637 116.681 159.571C117.438 164.58 116.6 169.7 114.287 174.208Z" fill="#FBBEBE"/>
<path opacity="0.1" d="M101.19 144.711C97.8265 148.208 93.3954 150.491 88.5919 151.202C83.7884 151.914 78.8842 151.014 74.6484 148.643C74.472 148.039 74.267 147.439 74.0619 146.863C73.5852 145.483 71.9403 142.86 73.1084 141.68C73.8379 140.932 76.894 140.551 77.9476 140.066C81.1945 138.571 84.1886 136.41 87.7549 135.701C90.8396 135.087 94.0244 135.663 97.1044 136.301C97.5129 136.36 97.9053 136.501 98.2582 136.715C98.6605 137.054 98.9581 137.499 99.1164 138C99.9698 140.133 100.485 142.489 101.19 144.711Z" fill="black"/>
<path d="M85.3757 150.485C97.4881 150.485 107.307 140.683 107.307 128.59C107.307 116.498 97.4881 106.695 85.3757 106.695C73.2632 106.695 63.4441 116.498 63.4441 128.59C63.4441 140.683 73.2632 150.485 85.3757 150.485Z" fill="#FBBEBE"/>
<path d="M152.195 199.649L150.393 188.749C149.483 183.28 148.543 177.706 145.997 172.78C144.324 169.553 141.668 166.478 138.088 165.84C137.382 165.777 136.689 165.617 136.028 165.364C134.979 164.86 134.407 163.727 133.601 162.889C131.523 160.738 128.137 160.704 125.353 159.609C122.893 158.658 120.881 156.825 118.64 155.426C116.399 154.026 113.61 153.046 111.131 153.941C110.73 158.201 110.306 162.556 108.494 166.435C107.315 168.96 105.586 171.191 103.432 172.963C101.278 174.735 98.7549 176.004 96.0467 176.678C93.3385 177.351 90.5137 177.412 87.779 176.855C85.0443 176.298 82.4688 175.139 80.2409 173.46C75.9928 170.267 73.2704 165.34 72.0022 160.185C71.6923 158.929 71.3395 157.487 70.1809 156.911C68.927 156.282 67.4204 157.044 66.3668 157.967C64.4597 159.676 62.9006 162.123 60.3928 162.699C59.4869 162.908 58.4857 162.865 57.7324 163.413C57.2318 163.874 56.8127 164.416 56.4928 165.017C55.944 165.791 55.2108 166.416 54.3593 166.837C53.5077 167.257 52.5648 167.459 51.6154 167.425C50.7429 167.382 49.7083 167.182 49.1123 167.815C48.6689 168.291 48.6356 169.034 48.1588 169.476C47.5152 170.1 46.471 169.795 45.5747 169.762C43.8774 169.691 42.2993 170.776 41.3266 172.142C40.354 173.508 39.8963 175.198 39.4196 176.835C44.6307 188.42 49.3984 200.02 54.6095 211.605C54.8537 212.042 54.9833 212.533 54.9862 213.033C54.8817 213.552 54.6599 214.041 54.3378 214.461C51.7823 218.559 51.8633 223.714 52.1446 228.531C52.4259 233.348 52.7692 238.436 50.6142 242.753C50.0278 243.938 49.2649 245.024 48.7071 246.209C47.4007 248.893 46.9287 257.48 47.6916 260.364H155.48C153.426 254.724 154.207 243.405 154.637 237.418C154.937 233.229 154.16 229.045 153.826 224.856C153.097 216.303 153.611 208.188 152.195 199.649Z" fill="#F50057"/>
<path d="M31.1619 212.119C30.9711 213.497 30.9519 214.893 31.1047 216.275L32.473 235.918C32.6017 237.77 32.7305 239.617 32.9021 241.464C33.2311 245.048 33.7221 248.603 34.3324 252.154C34.3461 252.658 34.5597 253.136 34.9262 253.483C35.2927 253.831 35.7822 254.018 36.2872 254.006C42.3184 255.281 48.5498 255.229 54.7049 254.881C64.0974 254.358 73.4755 253.163 82.8822 253.368C85.3042 253.42 88.1267 253.368 89.5952 251.464C91.0636 249.56 90.2102 246.48 88.2936 244.943C86.377 243.405 83.7738 243.039 81.3136 243.039C78.0573 243.006 74.8009 243.467 71.5541 243.277C68.5743 243.101 65.6612 242.382 62.7719 241.663L54.6668 239.65C54.9767 237.199 55.9112 234.89 56.798 232.563C58.3904 228.436 59.8779 224.171 59.9065 219.749C59.9351 215.328 58.2664 210.677 54.6382 208.145C51.6536 206.065 47.8108 205.679 44.173 205.765C41.5269 205.841 36.9547 205.208 34.5374 206.241C32.6256 207.079 31.5195 210.249 31.1619 212.119Z" fill="#FBBEBE"/>
<path d="M157.712 257.033C159.299 256.428 161.049 256.647 162.751 256.876C168.229 257.623 173.789 258.389 178.866 260.574C181.25 261.593 183.519 262.954 185.131 264.958C186.561 266.762 187.396 268.97 188.187 271.145L190.018 276.153C190.714 278.057 191.42 279.999 191.615 282.021C192.187 288.014 188.082 293.664 182.919 296.777C177.755 299.89 171.676 300.999 165.755 302.16C159.833 303.321 153.888 304.607 147.99 305.968C145.24 306.681 142.449 307.229 139.633 307.61C133.32 308.324 126.722 307.272 120.724 309.357C118.34 310.19 115.999 311.427 113.524 312.003C111.881 312.349 110.219 312.601 108.547 312.76L97.195 314.055C94.8865 314.363 92.5626 314.541 90.2341 314.588C85.2756 314.588 80.3982 313.417 75.5828 312.246C75.0709 312.156 74.5835 311.96 74.1525 311.67C73.3897 311.07 73.2228 310.009 73.1132 309.047C72.6268 304.792 72.2009 300.532 71.8354 296.267C71.721 294.882 71.6352 293.383 72.3932 292.217C73.3468 290.789 75.2062 290.342 76.9035 290.065C84.1007 288.89 91.3917 288.385 98.6825 288.557C101.453 285.791 106.02 285.777 109.648 284.273C110.983 283.661 112.275 282.96 113.515 282.174C120.005 278.394 127.258 276.106 134.746 275.477C136.212 275.432 137.669 275.225 139.089 274.858C141.897 273.987 144.457 271.617 147.342 272.197C147.7 271.212 147.947 269.894 148.772 269.218C149.182 268.87 149.688 268.637 150.064 268.266C150.861 267.461 150.932 266.195 150.813 265.072C150.694 263.949 150.427 262.797 150.717 261.702C150.838 261.288 151.017 260.892 151.247 260.526C152.677 258.061 154.837 256.795 157.712 257.033Z" fill="#464353"/>
<path opacity="0.05" d="M157.712 257.033C159.299 256.428 161.049 256.647 162.751 256.876C168.229 257.623 173.789 258.389 178.866 260.574C181.25 261.593 183.519 262.954 185.131 264.958C186.561 266.762 187.396 268.97 188.187 271.145L190.018 276.153C190.714 278.057 191.42 279.999 191.615 282.021C192.187 288.014 188.082 293.664 182.919 296.777C177.755 299.89 171.676 300.999 165.755 302.16C159.833 303.321 153.888 304.607 147.99 305.968C145.24 306.681 142.449 307.229 139.633 307.61C133.32 308.324 126.722 307.272 120.724 309.357C118.34 310.19 115.999 311.427 113.524 312.003C111.881 312.349 110.219 312.601 108.547 312.76L97.195 314.055C94.8865 314.363 92.5626 314.541 90.2341 314.588C85.2756 314.588 80.3982 313.417 75.5828 312.246C75.0709 312.156 74.5835 311.96 74.1525 311.67C73.3897 311.07 73.2228 310.009 73.1132 309.047C72.6268 304.792 72.2009 300.532 71.8354 296.267C71.721 294.882 71.6352 293.383 72.3932 292.217C73.3468 290.789 75.2062 290.342 76.9035 290.065C84.1007 288.89 91.3917 288.385 98.6825 288.557C101.453 285.791 106.02 285.777 109.648 284.273C110.983 283.661 112.275 282.96 113.515 282.174C120.005 278.394 127.258 276.106 134.746 275.477C136.212 275.432 137.669 275.225 139.089 274.858C141.897 273.987 144.457 271.617 147.342 272.197C147.7 271.212 147.947 269.894 148.772 269.218C149.182 268.87 149.688 268.637 150.064 268.266C150.861 267.461 150.932 266.195 150.813 265.072C150.694 263.949 150.427 262.797 150.717 261.702C150.838 261.288 151.017 260.892 151.247 260.526C152.677 258.061 154.837 256.795 157.712 257.033Z" fill="black"/>
<path d="M63.9925 312.108C61.0412 315.521 58.4428 316.739 53.8229 316.63C50.9813 316.563 48.1429 316.416 45.3077 316.187C43.3699 315.978 41.421 315.887 39.472 315.916C33.5886 316.144 27.9103 318.834 22.0412 318.362C21.1734 318.294 20.3152 318.135 19.4809 317.886C18.1495 317.52 16.9462 316.792 16.0053 315.783C14.8801 314.512 14.3413 312.827 14.0314 311.161C12.4628 302.622 16.7633 293.321 24.2916 288.976C25.2738 288.342 26.3904 287.946 27.5527 287.819C28.6924 287.814 29.8191 288.061 30.852 288.542L30.9235 288.571C33.982 289.827 36.7598 291.678 39.0954 294.016C39.4497 294.421 39.8725 294.761 40.3445 295.02C40.8156 295.198 41.3143 295.292 41.8177 295.297L48.0825 295.692C49.1439 295.723 50.1989 295.868 51.2292 296.125C52.3651 296.521 53.471 296.998 54.5381 297.553C57.9088 299.057 61.6467 299.457 65.2893 300.037C65.6403 300.057 65.9753 300.19 66.2428 300.418C66.3882 300.599 66.4894 300.81 66.5384 301.037C67.0503 302.95 67.086 304.958 66.6422 306.888C66.1985 308.818 65.2888 310.61 63.9925 312.108Z" fill="#3F3D56"/>
<path opacity="0.1" d="M30.9235 288.576C28.4929 290.893 26.3843 293.524 24.6539 296.401C21.8772 301.147 20.1325 306.425 19.5334 311.889C19.3062 313.882 19.2886 315.894 19.4809 317.891C18.1495 317.525 16.9462 316.796 16.0053 315.787C14.8801 314.516 14.3413 312.831 14.0314 311.166C12.4628 302.626 16.7633 293.326 24.2916 288.98C25.2738 288.347 26.3904 287.951 27.5527 287.824C28.6924 287.819 29.8191 288.066 30.852 288.547L30.9235 288.576Z" fill="black"/>
<path d="M152.257 300.418C155.762 300.323 159.695 300.147 162.27 302.503C164.725 304.73 165.049 308.405 165.211 311.713L165.397 315.554C165.454 316.725 165.502 317.934 165.03 319.019C164.191 320.923 161.888 321.842 159.786 321.732C157.683 321.623 155.752 320.704 153.831 319.876C148.614 317.633 143.183 315.925 137.62 314.778C137.802 312.122 138.104 309.479 138.526 306.849C138.817 305.026 138.865 301.974 140.085 300.461C141.377 298.862 143.06 299.728 144.815 300.023C147.277 300.398 149.77 300.53 152.257 300.418Z" fill="#FBBEBE"/>
<path d="M59.6491 261.821C59.6491 262.297 58.9005 261.821 58.8338 261.312C58.3093 257.461 55.2485 254.286 51.6822 252.744C48.1159 251.202 44.0538 251.121 40.192 251.488C34.3515 252.04 27.7959 254.272 25.6599 259.722C25.1546 260.998 24.9257 262.378 24.3059 263.601C23.6193 264.943 22.4989 266.014 21.7552 267.319C20.4726 269.575 20.4202 272.34 20.8827 274.891C22.127 281.698 26.7899 287.519 32.4396 291.551C38.0894 295.582 44.6927 297.991 51.2769 300.161C68.6871 305.893 86.5497 310.153 104.676 312.893C107.612 313.336 110.578 313.745 113.391 314.688C115.908 315.53 118.264 316.792 120.724 317.782C126.445 320.076 132.6 320.895 138.698 321.699C139.737 321.832 140.929 321.927 141.697 321.223C142.689 320.304 142.36 318.705 142.078 317.387C141.043 312.374 141.912 307.155 144.515 302.746C145.535 301.032 146.86 299.276 146.67 297.291C146.441 294.978 144.133 293.34 141.835 292.969C139.537 292.598 137.201 293.145 134.893 293.445C134.097 293.55 133.229 293.616 132.533 293.212C132.19 292.981 131.879 292.705 131.608 292.393C130.019 290.862 127.984 289.873 125.797 289.568C123.609 289.263 121.381 289.657 119.432 290.694C118.578 291.17 117.286 290.108 116.399 289.709L106.373 285.177C94.854 279.975 83.2779 274.749 71.0916 271.455C70.1193 271.264 69.1952 270.88 68.374 270.327C67.7685 269.851 67.3346 269.204 66.7768 268.675C65.5611 267.528 63.8685 267.071 62.4096 266.257C60.9507 265.443 59.3153 263.454 59.6491 261.821Z" fill="#464353"/>
<path d="M214.224 324.027C212.622 326.992 209.513 328.839 206.176 329.6C205.338 329.789 204.487 329.91 203.63 329.962C199.41 330.224 195.243 329.058 191.176 327.906L185.655 326.354C184.706 326.056 183.733 325.839 182.747 325.707C181.405 325.617 180.056 325.664 178.723 325.845C172.198 326.451 165.62 326.156 159.175 324.969C158.636 324.911 158.118 324.727 157.664 324.431C157.266 324.042 156.913 323.609 156.61 323.141C155.109 321.337 153.492 320.285 155.271 317.906C156.296 316.525 158.198 315.835 158.994 314.25C159.79 312.665 159.28 310.414 158.808 308.776C158.165 306.515 156.048 305.54 155.29 303.464C154.722 301.898 155.676 300.08 157.111 299.228C158.546 298.376 160.32 298.31 161.974 298.528C163.628 298.747 165.25 299.214 166.913 299.342C171.805 299.733 176.806 297.215 181.503 298.633C182.537 298.947 183.515 299.447 184.564 299.723C186.608 300.18 188.745 299.995 190.681 299.195C191.367 298.938 192.039 298.628 192.707 298.324C193.994 297.655 195.365 297.16 196.783 296.853C201.365 296.068 205.613 299.233 209.07 302.322C210.256 303.305 211.306 304.442 212.193 305.701C213.146 307.187 213.652 308.914 214.1 310.618C215.363 315.021 216.407 319.981 214.224 324.027Z" fill="#3F3D56"/>
<path opacity="0.1" d="M214.224 324.027C212.622 326.992 209.513 328.839 206.176 329.6C207.474 327.082 208.059 324.258 207.868 321.433C207.582 316.906 205.589 312.641 203.048 308.881C201.485 306.566 199.706 304.404 197.737 302.422C196.221 300.899 194.356 299.69 192.726 298.295C194.013 297.626 195.384 297.132 196.802 296.825C201.384 296.039 205.632 299.204 209.089 302.293C210.275 303.277 211.326 304.413 212.212 305.673C213.165 307.158 213.671 308.886 214.119 310.59C215.363 315.021 216.407 319.981 214.224 324.027Z" fill="black"/>
<path d="M39.1478 177.187C38.6834 177.673 38.3232 178.248 38.0894 178.877C34.2355 187.548 31.9591 196.835 31.3669 206.303C31.3773 206.765 31.2707 207.221 31.057 207.631C30.8463 207.903 30.6118 208.157 30.3562 208.388C30.124 208.662 29.9508 208.982 29.8472 209.326C29.7437 209.67 29.7119 210.032 29.7539 210.389C29.7959 210.745 29.9108 211.09 30.0915 211.401C30.2721 211.712 30.5148 211.982 30.8043 212.195C31.591 210.715 33.4743 210.234 35.1477 210.106C43.1623 209.473 50.9909 213.195 59.0293 212.914C58.4619 210.958 57.6466 209.078 57.1842 207.098C55.1388 198.306 60.2403 188.735 57.1126 180.267C56.4881 178.572 55.4439 176.907 53.7991 176.164C53.118 175.889 52.4053 175.701 51.6774 175.602C49.6464 175.236 45.6034 173.67 43.639 174.298C42.9144 174.531 42.6283 175.212 42.0276 175.621C41.1169 176.207 39.9059 176.421 39.1478 177.187Z" fill="#F50057"/>
<path d="M158.575 194.513H59.8541C57.7555 194.513 56.0543 196.212 56.0543 198.307V258.308C56.0543 260.404 57.7555 262.102 59.8541 262.102H158.575C160.673 262.102 162.375 260.404 162.375 258.308V198.307C162.375 196.212 160.673 194.513 158.575 194.513Z" fill="#3F3D56"/>
<path d="M108.976 231.163C110.556 231.163 111.837 229.885 111.837 228.308C111.837 226.73 110.556 225.452 108.976 225.452C107.396 225.452 106.115 226.73 106.115 228.308C106.115 229.885 107.396 231.163 108.976 231.163Z" fill="white"/>
<path d="M70.2239 93.0536C68.6219 94.2103 67.5254 95.8714 66.4097 97.4659C64.3548 100.412 62.0282 103.354 58.7432 104.996C57.4988 105.619 56.078 106.091 55.2532 107.176C54.7637 107.91 54.4459 108.744 54.3235 109.618C53.6942 112.688 53.3653 115.813 53.3414 118.947C53.3414 120.508 53.4081 122.117 54.0994 123.535C54.7526 124.868 55.9302 125.996 56.1734 127.448C56.3593 128.581 55.9398 129.709 55.792 130.846C55.6442 131.984 55.9016 133.331 56.9553 133.873C57.523 134.087 58.116 134.226 58.7194 134.288C61.8899 134.992 62.9531 138.705 63.4347 141.775C64.5122 141.713 64.9985 140.48 65.2226 139.476L68.5266 124.811C68.8842 123.221 69.4801 121.379 71.0678 120.822C72.131 120.456 73.2943 120.798 74.4052 120.894C78.7677 121.251 82.4579 117.885 86.725 116.957C88.0909 116.682 89.4873 116.589 90.8777 116.681C94.2437 116.848 98.158 118.228 98.8732 121.365C98.9924 121.874 99.0639 122.483 99.5407 122.736C100.017 122.988 100.518 122.774 101.019 122.736C103.155 122.521 104.413 124.92 105.028 126.881L107.269 134.021C107.603 135.102 108.165 136.372 109.338 136.51C110.421 136.644 111.341 135.62 111.503 134.606C111.665 133.593 111.312 132.541 111.079 131.522C110.025 126.834 111.636 122.036 112.619 117.338C113.601 112.64 113.777 107.243 110.483 103.625C109.286 102.316 107.713 101.34 106.597 99.9601C105.558 98.6654 104.971 97.0756 103.894 95.8048C100.914 92.2968 93.2711 89.5885 88.5844 89.1411C83.2303 88.5604 74.553 89.9169 70.2239 93.0536Z" fill="#3F3D56"/>
<g opacity="0.1">
<path opacity="0.1" d="M109.357 133.179C108.185 133.036 107.622 131.751 107.288 130.689C106.541 128.306 105.794 125.926 105.047 123.55C104.432 121.584 103.174 119.185 101.038 119.404C100.537 119.456 99.9983 119.651 99.5597 119.404C99.1211 119.156 99.0114 118.542 98.8922 118.033C98.1771 114.892 94.2628 113.516 90.8967 113.349C89.5066 113.258 88.1104 113.349 86.744 113.621C82.4769 114.573 78.7867 117.904 74.4242 117.557C73.2991 117.467 72.1357 117.124 71.0868 117.49C69.4801 118.043 68.9032 119.87 68.5456 121.479L65.2416 136.139C65.0175 137.148 64.5312 138.381 63.4537 138.438C62.9769 135.373 61.9089 131.66 58.7384 130.956C58.1358 130.89 57.5434 130.75 56.9743 130.542C56.5596 130.316 56.2348 129.954 56.0542 129.518C55.9684 129.961 55.8682 130.404 55.811 130.846C55.668 131.979 55.9207 133.331 56.9743 133.874C57.5421 134.087 58.135 134.226 58.7384 134.288C61.9089 134.992 62.9721 138.705 63.4537 141.775C64.5312 141.713 65.0175 140.48 65.2416 139.476L68.5456 124.811C68.9032 123.221 69.4992 121.379 71.0868 120.822C72.15 120.456 73.3134 120.798 74.4242 120.894C78.7867 121.251 82.4769 117.885 86.744 116.957C88.1099 116.682 89.5064 116.589 90.8967 116.681C94.2628 116.848 98.1771 118.228 98.8922 121.365C99.0114 121.874 99.0829 122.483 99.5597 122.736C100.036 122.988 100.537 122.774 101.038 122.736C103.174 122.521 104.432 124.92 105.047 126.881C105.791 129.265 106.538 131.644 107.288 134.021C107.622 135.102 108.185 136.372 109.357 136.51C110.44 136.644 111.36 135.62 111.522 134.607C111.595 133.753 111.498 132.894 111.236 132.079C111.066 132.427 110.797 132.716 110.463 132.912C110.129 133.107 109.744 133.2 109.357 133.179Z" fill="black"/>
<path opacity="0.1" d="M56.1782 124.116C55.935 122.664 54.7478 121.536 54.1042 120.203C53.6904 119.304 53.451 118.335 53.3986 117.347C53.3986 117.881 53.3509 118.414 53.3461 118.951C53.3461 120.513 53.4129 122.121 54.1042 123.54C54.6334 124.62 55.5059 125.572 55.9445 126.672C56.1758 125.841 56.2549 124.975 56.1782 124.116Z" fill="black"/>
<path opacity="0.1" d="M112.638 113.987C111.77 118.138 110.416 122.364 110.835 126.524C111.107 123.454 112.004 120.365 112.638 117.319C113.167 115.006 113.353 112.628 113.191 110.26C113.087 111.513 112.902 112.758 112.638 113.987Z" fill="black"/>
</g>
<g opacity="0.8">
<path opacity="0.8" d="M157.354 138.267H455.366" stroke="#3F3D56" stroke-width="3" stroke-miterlimit="10"/>
<path opacity="0.8" d="M183.829 138.262C183.829 138.262 198.08 140.237 190.7 124.973C183.319 109.708 210.724 112.597 210.724 112.597" stroke="#3F3D56" stroke-width="3" stroke-miterlimit="10"/>
<path opacity="0.8" d="M278.741 138.262C278.741 138.262 292.991 136.291 285.611 151.556C278.23 166.821 305.635 163.931 305.635 163.931" stroke="#3F3D56" stroke-width="3" stroke-miterlimit="10"/>
<path opacity="0.8" d="M415.398 138.262C415.398 138.262 401.142 136.291 408.528 151.556C415.913 166.821 388.503 163.931 388.503 163.931" stroke="#3F3D56" stroke-width="3" stroke-miterlimit="10"/>
<path opacity="0.8" d="M388.503 163.927H309.869" stroke="#3F3D56" stroke-width="3" stroke-miterlimit="10"/>
<path opacity="0.8" d="M157.354 146.953C162.16 146.953 166.055 143.064 166.055 138.267C166.055 133.469 162.16 129.58 157.354 129.58C152.549 129.58 148.653 133.469 148.653 138.267C148.653 143.064 152.549 146.953 157.354 146.953Z" fill="#F50057"/>
<path opacity="0.8" d="M210.872 121.16C215.677 121.16 219.573 117.271 219.573 112.474C219.573 107.676 215.677 103.787 210.872 103.787C206.066 103.787 202.171 107.676 202.171 112.474C202.171 117.271 206.066 121.16 210.872 121.16Z" fill="#3ACC6C"/>
<path opacity="0.8" d="M210.872 146.953C215.677 146.953 219.573 143.064 219.573 138.267C219.573 133.469 215.677 129.58 210.872 129.58C206.066 129.58 202.171 133.469 202.171 138.267C202.171 143.064 206.066 146.953 210.872 146.953Z" fill="#F50057"/>
<path opacity="0.8" d="M245.409 146.953C250.215 146.953 254.11 143.064 254.11 138.267C254.11 133.469 250.215 129.58 245.409 129.58C240.604 129.58 236.708 133.469 236.708 138.267C236.708 143.064 240.604 146.953 245.409 146.953Z" fill="#F50057"/>
<path opacity="0.8" d="M305.778 172.485C310.584 172.485 314.479 168.596 314.479 163.798C314.479 159.001 310.584 155.112 305.778 155.112C300.973 155.112 297.077 159.001 297.077 163.798C297.077 168.596 300.973 172.485 305.778 172.485Z" fill="#FF6584"/>
<path opacity="0.8" d="M351.396 172.485C356.202 172.485 360.097 168.596 360.097 163.798C360.097 159.001 356.202 155.112 351.396 155.112C346.591 155.112 342.695 159.001 342.695 163.798C342.695 168.596 346.591 172.485 351.396 172.485Z" fill="#FF6584"/>
<path opacity="0.8" d="M349.017 146.953C353.822 146.953 357.718 143.064 357.718 138.267C357.718 133.469 353.822 129.58 349.017 129.58C344.211 129.58 340.316 133.469 340.316 138.267C340.316 143.064 344.211 146.953 349.017 146.953Z" fill="#F50057"/>
<path opacity="0.8" d="M453.163 146.953C457.969 146.953 461.864 143.064 461.864 138.267C461.864 133.469 457.969 129.58 453.163 129.58C448.358 129.58 444.462 133.469 444.462 138.267C444.462 143.064 448.358 146.953 453.163 146.953Z" fill="#F50057"/>
<path opacity="0.8" d="M410.559 146.953C415.364 146.953 419.26 143.064 419.26 138.267C419.26 133.469 415.364 129.58 410.559 129.58C405.753 129.58 401.858 133.469 401.858 138.267C401.858 143.064 405.753 146.953 410.559 146.953Z" fill="#F50057"/>
<path opacity="0.8" d="M171.929 58.3835H142.736V78.4698H171.929V58.3835Z" fill="#F50057"/>
<path opacity="0.8" d="M225.576 58.3835H196.383V78.4698H225.576V58.3835Z" fill="#3ACC6C"/>
<path opacity="0.8" d="M320.253 58.3835H291.06V78.4698H320.253V58.3835Z" fill="#FF6584"/>
</g>
<g opacity="0.1">
<path opacity="0.1" d="M41.1694 142.489C41.1694 142.489 5.52108 127.524 0.848704 154.526C0.848704 154.526 -1.58761 158.734 1.80225 162.209C1.80225 162.209 2.53171 160.343 5.97401 162.27C7.2035 162.949 8.5095 163.48 9.86448 163.851C11.6944 164.355 13.6388 164.251 15.4046 163.556C15.4046 163.556 27.1284 162.923 36.9881 147.61C36.9881 147.61 41.2171 145.002 41.4269 144.021L34.3611 144.497C34.3611 144.497 34.9046 149.662 31.9772 152.76C31.9772 152.76 34.5709 144.745 33.3265 144.521C33.0738 144.474 29.5934 144.931 29.5934 144.931C29.5934 144.931 30.4945 153.912 25.7792 158.558C25.7792 158.558 30.1559 149.424 28.2536 145.092L23.0377 146.097C23.0377 146.097 24.468 155.545 19.3094 161.038C19.3094 161.038 23.5526 151.328 21.9125 146.397L16.9207 148.072C16.9207 148.072 18.1222 157.311 13.8074 161.875C13.8074 161.875 17.5739 150.162 15.8003 148.548C15.8003 148.548 11.3091 150.366 10.3508 151.404C10.3508 151.404 11.0612 158.068 8.31974 160.471C8.31974 160.471 10.0027 152.38 9.1684 152.046C9.1684 152.046 3.9525 155.969 2.36007 159.353C2.36007 159.353 4.34345 154.184 8.51521 151.261C8.51521 151.261 5.01093 150.671 2.31717 152.132C2.31717 152.132 4.11937 148.7 9.77866 150.328C9.77866 150.328 13.9695 147.429 14.8086 147.472C14.8086 147.472 9.45446 145.092 5.58783 145.388C5.58783 145.388 9.73575 143.008 16.115 146.982L21.0973 145.188C21.0973 145.188 14.184 141.651 10.7227 141.665C10.7227 141.665 15.3283 139.885 22.3893 144.835L27.4908 143.798C27.4908 143.798 21.7695 140.299 17.9124 139.485C17.9124 139.485 22.5371 138.752 28.964 143.555L32.4492 143.265C32.4492 143.265 28.2298 140.78 26.952 140.176C25.6743 139.571 25.7315 139.181 25.7315 139.181C28.7637 139.699 31.5924 141.047 33.9034 143.074C33.9034 143.074 41.1408 142.931 41.1694 142.489Z" fill="#F50057"/>
</g>
<g opacity="0.1">
<path opacity="0.1" d="M39.8534 115.663C39.8534 115.663 27.2284 86.4995 9.03956 99.8744C9.03956 99.8744 5.19677 100.988 5.22538 104.967C5.22538 104.967 6.72245 104.272 7.67123 107.381C8.01912 108.483 8.49939 109.54 9.10154 110.527C9.8974 111.869 11.1114 112.914 12.5581 113.502C12.5581 113.502 19.8861 119.794 34.4897 116.305C34.4897 116.305 38.4946 117.157 39.1764 116.7L34.7138 112.954C34.7138 112.954 32.0868 116.334 28.5682 116.496C28.5682 116.496 34.6852 113.211 34.0749 112.369C33.9509 112.197 31.6195 110.493 31.6195 110.493C31.6195 110.493 27.033 116.338 21.6073 116.429C21.6073 116.429 29.4216 113.487 30.7613 109.837L27.0902 107.457C27.0902 107.457 22.4607 113.887 16.2627 114.22C16.2627 114.22 24.3249 110.865 26.1652 107L22.2414 105.158C22.2414 105.158 17.6835 111.345 12.5295 111.579C12.5295 111.579 21.4547 106.762 21.3165 104.796C21.3165 104.796 17.6119 103.321 16.4343 103.406C16.4343 103.406 13.0635 107.761 10.0551 107.638C10.0551 107.638 15.6762 103.787 15.3711 103.116C15.3711 103.116 10.0313 102.478 7.15631 103.592C7.15631 103.592 11.2852 101.65 15.4283 102.288C15.4283 102.288 13.6833 99.9411 11.2566 99.289C11.2566 99.289 14.2888 98.2752 16.7204 102.454C16.7204 102.454 20.8588 103.121 21.3451 103.616C21.3451 103.616 19.5286 99.1462 17.0541 97.1328C17.0541 97.1328 20.8683 98.0848 22.394 104.068L26.3798 105.834C26.3798 105.834 24.2915 99.7983 22.2223 97.842C22.2223 97.842 25.9745 99.4032 27.3476 106.362L30.9711 108.642C30.9711 108.642 29.5694 103.311 27.7434 100.631C27.7434 100.631 30.9091 102.83 31.9819 109.337L34.2227 111.146C34.2227 111.146 33.1309 107.271 32.7161 106.186C32.3013 105.101 32.5588 104.901 32.5588 104.901C34.0648 106.942 34.9713 109.361 35.1763 111.888C35.1763 111.888 39.5816 115.905 39.8534 115.663Z" fill="#F50057"/>
</g>
</g>
<defs>
<linearGradient id="paint0_linear" x1="114.459" y1="329.691" x2="114.459" y2="86.3708" gradientUnits="userSpaceOnUse">
<stop stop-color="#808080" stop-opacity="0.25"/>
<stop offset="0.54" stop-color="#808080" stop-opacity="0.12"/>
<stop offset="1" stop-color="#808080" stop-opacity="0.1"/>
</linearGradient>
<clipPath id="clip0">
<rect width="495" height="330" fill="white"/>
</clipPath>
</defs>
</svg>
