<svg width="544" height="300" viewBox="0 0 544 300" fill="none" xmlns="http://www.w3.org/2000/svg">
<g clip-path="url(#clip0)">
<path d="M541.706 0.244545H111.801V276.518H541.706V0.244545Z" fill="#E6E6E6"/>
<path d="M305.018 37.3435H149.816V197.368H305.018V37.3435Z" fill="white"/>
<path d="M518.267 40.4468H363.065V234.806H518.267V40.4468Z" fill="white"/>
<path d="M516.198 296.604C531.553 296.604 544 294.82 544 292.619C544 290.418 531.553 288.634 516.198 288.634C500.844 288.634 488.396 290.418 488.396 292.619C488.396 294.82 500.844 296.604 516.198 296.604Z" fill="#E6E6E6"/>
<path d="M238.24 296.694C253.594 296.694 266.042 294.909 266.042 292.708C266.042 290.507 253.594 288.723 238.24 288.723C222.885 288.723 210.438 290.507 210.438 292.708C210.438 294.909 222.885 296.694 238.24 296.694Z" fill="#E6E6E6"/>
<path d="M63.8067 291.789C99.0461 291.789 127.613 290.416 127.613 288.723C127.613 287.03 99.0461 285.658 63.8067 285.658C28.5672 285.658 0 287.03 0 288.723C0 290.416 28.5672 291.789 63.8067 291.789Z" fill="#E6E6E6"/>
<path d="M541.523 0H111.618V18.3265H541.523V0Z" fill="#F50057"/>
<path d="M125.19 12.7661C127.06 12.7661 128.575 11.2454 128.575 9.36947C128.575 7.49354 127.06 5.97279 125.19 5.97279C123.321 5.97279 121.805 7.49354 121.805 9.36947C121.805 11.2454 123.321 12.7661 125.19 12.7661Z" fill="#E6E6E6"/>
<path d="M138.039 12.7661C139.909 12.7661 141.424 11.2454 141.424 9.36947C141.424 7.49354 139.909 5.97279 138.039 5.97279C136.17 5.97279 134.654 7.49354 134.654 9.36947C134.654 11.2454 136.17 12.7661 138.039 12.7661Z" fill="#E6E6E6"/>
<path d="M150.888 12.7661C152.758 12.7661 154.273 11.2454 154.273 9.36947C154.273 7.49354 152.758 5.97279 150.888 5.97279C149.018 5.97279 147.503 7.49354 147.503 9.36947C147.503 11.2454 149.018 12.7661 150.888 12.7661Z" fill="#E6E6E6"/>
<path d="M484.049 92.5805H483.109V66.7371C483.109 64.7728 482.723 62.8278 481.974 61.0131C481.225 59.1984 480.127 57.5495 478.743 56.1605C477.359 54.7716 475.715 53.6698 473.907 52.9181C472.098 52.1665 470.16 51.7796 468.202 51.7796H413.637C411.679 51.7796 409.741 52.1665 407.932 52.9181C406.124 53.6698 404.48 54.7716 403.096 56.1605C401.712 57.5495 400.614 59.1984 399.865 61.0131C399.116 62.8278 398.73 64.7728 398.73 66.7371V208.516C398.73 210.48 399.116 212.425 399.865 214.24C400.614 216.055 401.712 217.704 403.096 219.093C404.48 220.481 406.124 221.583 407.932 222.335C409.741 223.087 411.679 223.473 413.637 223.473H468.202C470.16 223.473 472.098 223.087 473.907 222.335C475.715 221.583 477.359 220.481 478.743 219.093C480.127 217.704 481.225 216.055 481.974 214.24C482.723 212.425 483.109 210.48 483.109 208.516V110.976H484.049V92.5805Z" fill="#3F3D56"/>
<path d="M468.193 55.671H461.07C461.398 56.4768 461.523 57.3511 461.434 58.2168C461.346 59.0825 461.047 59.9131 460.563 60.6354C460.079 61.3577 459.426 61.9495 458.66 62.3588C457.895 62.768 457.041 62.9821 456.174 62.9822H424.914C424.046 62.9821 423.192 62.768 422.427 62.3588C421.661 61.9495 421.008 61.3577 420.524 60.6354C420.041 59.9131 419.741 59.0825 419.653 58.2168C419.564 57.3511 419.689 56.4768 420.017 55.671H413.364C411.902 55.671 410.455 55.9599 409.104 56.5213C407.754 57.0826 406.526 57.9054 405.493 58.9427C404.459 59.9799 403.639 61.2112 403.08 62.5665C402.52 63.9217 402.232 65.3742 402.232 66.8411V208.412C402.232 209.879 402.52 211.331 403.08 212.687C403.639 214.042 404.459 215.273 405.493 216.31C406.526 217.348 407.754 218.17 409.104 218.732C410.455 219.293 411.902 219.582 413.364 219.582H468.193C469.655 219.582 471.102 219.293 472.453 218.732C473.804 218.17 475.031 217.348 476.064 216.31C477.098 215.273 477.918 214.042 478.478 212.687C479.037 211.331 479.325 209.879 479.325 208.412V66.8411C479.325 63.8786 478.152 61.0374 476.064 58.9426C473.977 56.8478 471.145 55.671 468.193 55.671Z" fill="white"/>
<path d="M281.461 138.428H173.587V143.365H281.461V138.428Z" fill="#E6E6E6"/>
<path d="M281.461 154.369H173.587V159.306H281.461V154.369Z" fill="#F50057"/>
<path d="M281.461 170.31H173.587V175.247H281.461V170.31Z" fill="#E6E6E6"/>
<path d="M472.877 149.2H409.902V154.138H472.877V149.2Z" fill="#E6E6E6"/>
<path d="M472.877 164.528H409.902V169.466H472.877V164.528Z" fill="#E6E6E6"/>
<path d="M472.877 179.856H409.902V184.794H472.877V179.856Z" fill="#E6E6E6"/>
<path d="M479.461 256.524V245.992H468.966V256.524H479.461Z" fill="#3F3D56"/>
<path d="M462.551 256.524V245.992H452.056V256.524H462.551Z" fill="#F50057"/>
<path d="M445.642 256.524V245.992H435.146V256.524H445.642Z" fill="#3F3D56"/>
<path d="M428.732 256.524V245.992H418.236V256.524H428.732Z" fill="#3F3D56"/>
<path d="M411.822 256.524V245.992H401.326V256.524H411.822Z" fill="#3F3D56"/>
<path d="M458.272 85.2179H423.286V120.324H458.272V85.2179Z" fill="#F50057"/>
<path d="M213.619 168.972L213.166 169.881L211.807 163.065C211.807 163.065 209.996 155.794 213.619 155.794C217.242 155.794 216.336 163.065 216.336 163.065V168.063L213.619 168.972Z" fill="#A0616A"/>
<path d="M273.036 168.041L273.489 168.95L274.847 162.134C274.847 162.134 276.659 154.864 273.036 154.864C269.413 154.864 270.319 162.134 270.319 162.134V167.132L273.036 168.041Z" fill="#A0616A"/>
<path d="M233.544 220.074L228.11 253.7L230.827 286.416L237.167 283.69L236.262 259.152L242.602 239.613L243.96 262.787L241.243 286.871L249.395 287.78L255.282 238.25L254.829 221.437L233.544 220.074Z" fill="#2F2E41"/>
<path d="M233.545 282.327L230.375 287.325V298.494C230.375 298.816 230.489 299.127 230.697 299.372C230.904 299.617 231.192 299.78 231.509 299.831C233.063 300.087 235.768 300.269 236.715 298.686C238.073 296.414 237.167 291.415 237.167 291.415C237.167 291.415 238.979 287.78 238.073 285.054C237.167 282.327 236.262 281.873 236.262 281.873L233.545 282.327Z" fill="#2F2E41"/>
<path d="M247.13 286.871L248.036 288.234C248.036 288.234 249.394 289.598 248.489 290.506C247.824 291.213 247.218 291.973 246.677 292.778C246.677 292.778 241.696 294.141 241.696 292.324V286.417L247.13 286.871Z" fill="#2F2E41"/>
<path d="M245.498 183.09C248.813 183.09 251.501 180.393 251.501 177.066C251.501 173.74 248.813 171.043 245.498 171.043C242.183 171.043 239.495 173.74 239.495 177.066C239.495 180.393 242.183 183.09 245.498 183.09Z" fill="#A0616A"/>
<path d="M241.469 178.95L241.017 187.584L249.168 188.038L248.715 179.404L241.469 178.95Z" fill="#A0616A"/>
<path d="M250.3 188.265L249.015 185.114C249.015 185.114 243.054 182.812 241.243 185.084L240.337 187.811L233.092 185.993L229.016 195.081L232.639 220.982C232.639 220.982 242.149 233.251 254.829 221.437L258.452 196.899L255.734 187.356L250.3 188.265Z" fill="#575A89"/>
<path d="M254.829 189.174L255.734 187.356L264.792 181.903L270.319 165.486L274.596 167.325L269.773 186.902L256.64 199.171L254.829 189.174Z" fill="#575A89"/>
<path d="M233.997 186.902L233.092 185.993L223.582 180.086L216.789 166.454L211.355 168.271L217.242 185.084L231.733 196.899L233.997 186.902Z" fill="#575A89"/>
<path d="M249.953 167.842L250.935 167.35L249.463 166.857V166.365C249.463 166.365 242.102 163.41 241.12 168.335C239.853 170.042 239.169 172.115 239.169 174.244C239.169 176.373 239.853 178.445 241.12 180.153V181.63L248.972 182.615L249.953 179.66C249.953 179.66 254.861 170.797 249.953 167.842Z" fill="#2F2E41"/>
<path d="M70.3231 220.607L68.5784 221.482C68.5784 221.482 61.5994 224.692 63.6349 226.443C65.6705 228.193 71.1955 224.692 71.1955 224.692L72.3587 223.233L70.3231 220.607Z" fill="#FFB8B8"/>
<path d="M121.371 220.171L115.978 256.497L107.835 281.882L103.473 279.84L107.544 245.117L95.9126 235.196L96.7852 220.607L121.371 220.171Z" fill="#2F2E41"/>
<path d="M102.892 280.715C102.892 280.715 107.835 278.089 108.126 281.882L107.544 285.675C107.544 285.675 109.289 292.386 103.473 290.927C97.6575 289.468 101.729 285.092 101.729 285.092L102.892 280.715Z" fill="#2F2E41"/>
<path d="M99.693 231.987L95.9127 235.196C95.9127 235.196 95.9127 255.038 98.5298 257.956C101.147 260.873 117.722 275.754 118.304 276.338C118.885 276.922 121.502 270.502 121.502 270.502L105.8 252.12L106.963 240.74L99.693 231.987Z" fill="#2F2E41"/>
<path d="M119.757 269.627C119.757 269.627 124.41 268.752 124.41 271.961C124.468 274.499 124.662 277.031 124.992 279.548C124.992 279.548 126.155 289.76 122.375 288.301C118.594 286.842 117.14 276.63 117.14 276.63C117.492 275.781 118.103 275.066 118.885 274.587C120.048 274.004 119.757 269.627 119.757 269.627Z" fill="#2F2E41"/>
<path d="M105.218 176.839L106.091 187.635L103.764 191.72L97.3669 185.592L96.7852 177.423L105.218 176.839Z" fill="#FFB8B8"/>
<path d="M99.9839 180.34C103.838 180.34 106.963 177.205 106.963 173.338C106.963 169.47 103.838 166.335 99.9839 166.335C96.1295 166.335 93.0049 169.47 93.0049 173.338C93.0049 177.205 96.1295 180.34 99.9839 180.34Z" fill="#FFB8B8"/>
<path d="M102.892 187.343L105.8 178.882L111.034 184.717L120.63 221.774L113.36 226.151L110.162 221.482L109.58 227.61L95.3309 224.692L94.1681 185.592L97.0741 181.485L102.892 187.343Z" fill="#D0CDE1"/>
<path d="M98.8205 228.777L97.076 181.508L93.2956 184.426L86.3164 189.094L90.9694 205.726L92.423 223.233L98.8205 228.777Z" fill="#2F2E41"/>
<path d="M88.3523 189.386L86.3163 189.094L80.5006 206.309L68.869 220.899L73.2312 225.567L86.6072 212.437L91.551 201.641L88.3523 189.386Z" fill="#2F2E41"/>
<path d="M120.109 220.874L119.712 222.79C119.712 222.79 117.897 230.275 120.528 229.758C123.158 229.24 123.844 222.719 123.844 222.719L123.424 220.899L120.109 220.874Z" fill="#FFB8B8"/>
<path d="M105.345 178.408L119.757 184.134L118.013 201.641L121.502 220.899L118.013 224.692L105.11 180.888L105.345 178.408Z" fill="#2F2E41"/>
<path d="M100.349 161.576L102.398 160.548V161.576L103.763 160.891V162.604C103.763 162.604 108.885 166.372 107.86 170.826C106.836 175.28 106.836 175.622 106.836 175.622C106.836 175.622 105.541 167.153 100.42 168.523C95.2985 169.893 94.8863 170.141 93.5206 173.909L93.1501 175.526C93.1501 175.526 87.375 162.261 100.349 161.576Z" fill="#2F2E41"/>
<path d="M117.722 184.134H120.048L123.829 204.559V222.358L119.176 221.482L115.396 194.638L117.722 184.134Z" fill="#2F2E41"/>
<path d="M87.9002 227.328H2.16003V287.114H87.9002V227.328Z" fill="#F50057"/>
<path d="M45.03 238.993C41.4373 238.993 37.9252 240.062 34.9379 242.065C31.9507 244.068 29.6224 246.915 28.2475 250.246C26.8726 253.576 26.5129 257.241 27.2138 260.777C27.9147 264.313 29.6448 267.561 32.1852 270.11C34.7257 272.659 37.9624 274.395 41.4862 275.098C45.0099 275.801 48.6623 275.441 51.9816 274.061C55.3008 272.681 58.1379 270.345 60.1339 267.348C62.1299 264.35 63.1953 260.826 63.1953 257.221C63.1812 252.391 61.2629 247.763 57.8593 244.348C54.4557 240.933 49.8434 239.008 45.03 238.993ZM45.03 244.462C46.1079 244.462 47.1615 244.782 48.0577 245.383C48.9538 245.984 49.6523 246.838 50.0648 247.837C50.4773 248.837 50.5852 249.936 50.3749 250.997C50.1646 252.058 49.6456 253.032 48.8835 253.797C48.1213 254.561 47.1503 255.082 46.0932 255.293C45.0361 255.504 43.9403 255.396 42.9446 254.982C41.9488 254.568 41.0977 253.867 40.4989 252.968C39.9001 252.069 39.5804 251.011 39.5804 249.93C39.5853 248.481 40.161 247.093 41.1819 246.069C42.2029 245.044 43.5862 244.467 45.03 244.462ZM45.03 270.786C42.8772 270.777 40.7593 270.24 38.8601 269.223C36.9608 268.206 35.3374 266.739 34.1309 264.95C34.2182 261.305 41.397 259.298 45.03 259.298C48.6631 259.298 55.8419 261.305 55.9292 264.95C54.7213 266.738 53.0976 268.203 51.1986 269.22C49.2997 270.237 47.1825 270.775 45.03 270.786Z" fill="white"/>
<path d="M281.188 55.7371H173.646V117.662H281.188V55.7371Z" fill="#E6E6E6"/>
<path d="M493.835 178.561L494.333 175.336C494.333 175.336 497.237 168.712 494.942 168.354C492.646 167.997 490.731 174.304 490.731 174.304L491.571 181.04L493.835 178.561Z" fill="#FFB8B8"/>
<path d="M517.34 196.843L496.821 192.708L494.437 177.711L488.396 177.243L488.692 196.632L506.52 206.011L517.34 196.843Z" fill="#575A89"/>
<path opacity="0.2" d="M517.34 196.843L496.821 192.708L494.437 177.711L488.396 177.243L488.692 196.632L506.52 206.011L517.34 196.843Z" fill="black"/>
<path d="M461.518 174.595H524.493V169.658H461.518V174.595Z" fill="#F50057"/>
<path d="M489.826 177.456L489.83 174.192C489.83 174.192 491.697 167.202 489.374 167.199C487.051 167.196 486.114 173.721 486.114 173.721L487.964 180.251L489.826 177.456Z" fill="#FFB8B8"/>
<path d="M516.535 186.803L519.35 186.114C520.425 186.115 521.486 185.877 522.457 185.416C523.428 184.956 524.285 184.284 524.966 183.45C525.647 182.616 526.135 181.641 526.394 180.595C526.653 179.548 526.677 178.458 526.464 177.401C526.465 176.153 526.222 174.916 525.747 173.762C525.273 172.608 524.576 171.56 523.697 170.676C522.819 169.792 521.775 169.09 520.627 168.611C519.478 168.132 518.246 167.885 517.002 167.883C515.758 167.882 514.526 168.126 513.376 168.602C512.226 169.078 511.181 169.777 510.3 170.659C509.419 171.54 508.72 172.587 508.242 173.74C507.765 174.893 507.518 176.129 507.517 177.377C507.153 178.649 507.128 179.994 507.444 181.278C507.761 182.562 508.408 183.741 509.322 184.695C510.235 185.649 511.382 186.346 512.648 186.716C513.914 187.086 515.254 187.116 516.535 186.803Z" fill="#2F2E41"/>
<path d="M499.977 233.88L502.269 259.058L506.419 283.773L513.388 283.781L512.489 259.537L508.809 230.161L499.977 233.88Z" fill="#2F2E41"/>
<path d="M507.35 282.375L502.7 285.167C502.7 285.167 495.265 286.09 496.656 288.422C498.047 290.755 514.31 289.377 514.312 288.445C514.313 287.512 513.855 282.383 512.925 282.382L507.35 282.375Z" fill="#2F2E41"/>
<path d="M520.549 231.705C520.549 231.705 520.418 235.304 517.159 240.895L517.602 258.145L534.301 279.612L528.255 284.733L507.841 261.396L502.765 233.417L509.278 226.899L520.549 231.705Z" fill="#2F2E41"/>
<path d="M532.908 279.61C532.908 279.61 538.482 280.55 537.55 282.879C536.618 285.209 534.281 295.929 528.243 294.523C528.243 294.523 525.455 294.519 526.387 292.656C526.947 291.535 527.568 290.446 528.249 289.395L528.257 283.334L532.908 279.61Z" fill="#2F2E41"/>
<path d="M513.518 187.276C517.367 187.276 520.487 184.145 520.487 180.283C520.487 176.421 517.367 173.29 513.518 173.29C509.669 173.29 506.549 176.421 506.549 180.283C506.549 184.145 509.669 187.276 513.518 187.276Z" fill="#FFB8B8"/>
<path d="M516.764 184.949L516.754 192.874L509.321 192.865L510.26 184.941L516.764 184.949Z" fill="#FFB8B8"/>
<path d="M507.466 190.066L509.718 189.51L516.758 190.077C516.758 190.077 520.47 193.812 520.004 194.744C519.539 195.675 517.187 218.517 517.187 218.517L521.348 234.839L506.479 235.753L499.046 234.811L500.477 205.442C500.477 205.442 497.235 197.512 501.419 195.186C503.783 193.942 505.846 192.195 507.466 190.066Z" fill="#575A89"/>
<path d="M515.826 191.941L494.92 190.982L490.292 176.524L484.251 176.982L487.479 196.101L506.521 202.652L515.826 191.941Z" fill="#575A89"/>
<path d="M526.971 175.131C529.454 175.131 531.468 173.111 531.468 170.619C531.468 168.127 529.454 166.107 526.971 166.107C524.488 166.107 522.475 168.127 522.475 170.619C522.475 173.111 524.488 175.131 526.971 175.131Z" fill="#2F2E41"/>
<path d="M522.822 168.194C522.823 167.526 522.971 166.867 523.256 166.264C523.541 165.661 523.956 165.129 524.471 164.707C524.986 164.284 525.587 163.981 526.233 163.82C526.878 163.659 527.552 163.644 528.204 163.776C527.628 163.503 527.002 163.356 526.366 163.344C525.729 163.333 525.098 163.457 524.513 163.708C523.928 163.96 523.403 164.333 522.973 164.803C522.543 165.274 522.217 165.83 522.017 166.437C521.817 167.043 521.747 167.685 521.813 168.32C521.879 168.955 522.078 169.569 522.398 170.12C522.718 170.672 523.151 171.15 523.669 171.521C524.186 171.893 524.776 172.15 525.4 172.275C524.629 171.911 523.977 171.333 523.52 170.61C523.064 169.888 522.822 169.049 522.822 168.194Z" fill="#2F2E41"/>
<path d="M518.965 170.752L512.903 169.632L508.241 172.564C507.095 173.285 506.179 174.32 505.601 175.548C505.024 176.775 504.81 178.143 504.984 179.489L509.652 178.302L510.698 175.671L511.943 177.719L516.995 186.581L522.109 183.79L525.368 178.666L518.965 170.752Z" fill="#2F2E41"/>
<path d="M173.951 55.2055L173.342 56.2688L280.884 118.194L281.492 117.131L173.951 55.2055Z" fill="white"/>
<path d="M280.886 55.2096L173.34 117.127L173.948 118.19L281.494 56.273L280.886 55.2096Z" fill="white"/>
<path d="M423.989 84.7335L423.125 85.6004L457.954 120.548L458.818 119.681L423.989 84.7335Z" fill="white"/>
<path d="M457.954 84.7334L423.125 119.681L423.989 120.548L458.818 85.6004L457.954 84.7334Z" fill="white"/>
</g>
<defs>
<clipPath id="clip0">
<rect width="544" height="300" fill="white"/>
</clipPath>
</defs>
</svg>
